{"glyphs":{"0":{"ha":635,"x_min":67,"x_max":568,"o":"m 418 722 q 317 825 418 825 q 239 799 261 825 q 217 722 217 774 l 217 225 q 239 147 217 174 q 317 121 261 121 q 395 147 372 121 q 418 225 418 174 l 418 722 m 67 728 q 128 898 67 835 q 317 961 189 961 q 506 898 444 961 q 568 728 568 835 l 568 219 q 506 49 568 111 q 317 -14 444 -14 q 128 49 189 -14 q 67 219 67 111 l 67 728 z "},"1":{"ha":414,"x_min":18,"x_max":333,"o":"m 333 947 l 333 0 l 182 0 l 182 775 l 18 654 l 18 821 l 189 947 l 333 947 z "},"2":{"ha":583,"x_min":54,"x_max":526,"o":"m 254 954 q 526 740 526 954 l 526 658 q 421 447 525 519 l 304 357 q 225 283 243 311 q 207 199 207 254 l 207 135 l 522 135 l 522 0 l 54 0 l 54 213 q 88 347 54 296 q 188 447 121 399 l 311 544 q 362 599 349 571 q 375 679 375 628 l 375 725 q 349 792 375 769 q 239 815 324 815 q 72 782 154 815 l 72 926 q 254 954 146 954 z "},"3":{"ha":564,"x_min":35,"x_max":497,"o":"m 56 935 q 235 954 111 954 q 426 898 358 954 q 493 739 493 842 l 493 643 q 396 481 493 513 q 497 328 497 457 l 497 208 q 429 49 497 106 q 233 -8 361 -8 q 35 19 106 -8 l 35 164 q 203 129 117 129 q 319 153 290 129 q 347 222 347 176 l 347 310 q 324 383 347 360 q 244 406 300 406 l 143 406 l 143 544 l 243 544 q 320 570 297 544 q 343 647 343 596 l 343 725 q 315 793 343 769 q 203 817 288 817 q 56 793 118 817 l 56 935 z "},"4":{"ha":600,"x_min":14,"x_max":593,"o":"m 593 301 l 593 169 l 501 169 l 501 0 l 358 0 l 358 169 l 14 169 l 14 307 l 296 947 l 501 947 l 501 301 l 593 301 m 363 301 l 363 800 l 146 301 l 363 301 z "},"5":{"ha":596,"x_min":68,"x_max":536,"o":"m 75 947 l 510 947 l 510 807 l 224 807 l 224 575 q 319 579 274 579 q 481 525 426 579 q 536 369 536 471 l 536 208 q 469 49 536 106 q 263 -8 401 -8 q 68 22 165 -8 l 68 165 q 257 129 174 129 q 386 222 386 129 l 386 350 q 363 422 386 400 q 295 444 340 444 q 75 429 250 444 l 75 947 z "},"6":{"ha":622,"x_min":67,"x_max":568,"o":"m 418 385 q 322 476 418 476 q 217 454 254 476 l 217 222 q 239 145 217 172 q 317 118 261 118 q 395 144 372 118 q 418 222 418 171 l 418 385 m 67 715 q 133 888 67 822 q 328 954 200 954 q 528 926 457 954 l 528 785 q 346 815 450 815 q 217 701 217 815 l 217 585 q 360 607 265 607 q 511 552 454 607 q 568 397 568 497 l 568 219 q 506 49 568 111 q 317 -14 444 -14 q 128 49 189 -14 q 67 219 67 111 l 67 715 z "},"7":{"ha":494,"x_min":7,"x_max":467,"o":"m 7 947 l 467 947 l 467 826 l 361 501 q 300 140 300 314 l 300 0 l 147 0 l 147 151 q 211 522 147 331 l 301 808 l 7 808 l 7 947 z "},"8":{"ha":646,"x_min":67,"x_max":579,"o":"m 578 733 l 578 639 q 497 472 578 521 q 579 306 579 424 l 579 214 q 515 47 579 108 q 322 -14 451 -14 q 130 47 193 -14 q 67 214 67 107 l 67 306 q 149 472 67 424 q 68 639 68 521 l 68 733 q 131 900 68 839 q 323 961 194 961 q 515 900 451 961 q 578 733 578 839 m 217 731 l 217 635 q 323 531 217 531 q 429 635 429 531 l 429 731 q 322 831 429 831 q 241 806 265 831 q 217 731 217 781 m 431 215 l 431 308 q 322 413 431 413 q 214 308 214 413 l 214 215 q 322 117 214 117 q 431 215 431 117 z "},"9":{"ha":622,"x_min":53,"x_max":556,"o":"m 406 725 q 306 828 406 828 q 226 801 249 828 q 203 725 203 775 l 203 556 q 300 458 203 458 q 406 482 369 458 l 406 725 m 53 728 q 115 898 53 835 q 305 961 178 961 q 494 898 432 961 q 556 728 556 835 l 556 215 q 486 53 556 113 q 289 -7 417 -7 q 85 21 161 -7 l 85 164 q 275 131 169 131 q 406 229 406 131 l 406 351 q 261 328 358 328 q 108 384 164 328 q 53 542 53 440 l 53 728 z "},"\r":{"ha":0,"x_min":0,"x_max":0,"o":""}," ":{"ha":261,"x_min":0,"x_max":0,"o":""},"!":{"ha":397,"x_min":113,"x_max":286,"o":"m 199 -11 q 156 -11 199 -11 q 113 74 113 -11 q 199 158 113 158 q 286 74 286 158 q 199 -11 286 -11 m 118 947 l 279 947 l 260 272 l 138 272 l 118 947 z "},"\"":{"ha":575,"x_min":114,"x_max":457,"o":"m 114 1056 l 246 1056 l 246 725 l 114 725 l 114 1056 m 325 1056 l 457 1056 l 457 725 l 325 725 l 325 1056 z "},"#":{"ha":801,"x_min":51,"x_max":751,"o":"m 751 574 l 633 574 l 601 360 l 703 360 l 703 243 l 585 243 l 550 0 l 419 0 l 454 243 l 288 243 l 253 0 l 121 0 l 156 243 l 51 243 l 51 360 l 172 360 l 204 574 l 100 574 l 100 690 l 221 690 l 256 933 l 388 933 l 353 690 l 518 690 l 553 933 l 685 933 l 650 690 l 751 690 l 751 574 m 471 360 l 501 574 l 336 574 l 304 360 l 471 360 z "},"$":{"ha":572,"x_min":33,"x_max":538,"o":"m 538 290 l 538 210 q 343 1 538 36 l 343 -89 l 201 -89 l 201 -6 q 43 22 94 1 l 43 168 q 242 132 128 132 q 385 225 385 132 l 385 267 q 370 327 385 306 q 315 369 356 349 l 161 454 q 33 657 33 525 l 33 742 q 214 946 33 913 l 214 1029 l 354 1029 l 354 953 q 492 928 428 949 l 492 785 q 307 815 410 815 q 188 726 188 815 l 188 681 q 203 613 188 638 q 264 565 219 589 l 424 475 q 538 290 538 414 z "},"%":{"ha":888,"x_min":49,"x_max":839,"o":"m 488 207 q 663 424 488 424 q 839 206 839 424 q 664 -11 839 -11 q 531 47 574 -11 q 488 207 488 106 m 596 206 q 596 148 596 206 q 663 89 596 89 q 729 206 729 89 q 663 324 729 324 q 596 206 596 324 m 224 522 q 49 740 49 522 q 224 957 49 957 q 400 740 400 957 q 357 581 400 639 q 224 522 314 522 m 223 624 q 257 624 223 624 q 290 740 290 624 q 223 857 290 857 q 156 740 156 857 q 223 624 156 624 m 596 947 l 701 947 l 292 0 l 188 0 l 596 947 z "},"&":{"ha":665,"x_min":74,"x_max":650,"o":"m 650 554 l 650 425 l 586 425 l 586 222 q 523 52 586 115 q 332 -11 460 -11 q 139 53 204 -11 q 74 222 74 117 l 74 331 q 176 493 74 458 q 76 656 76 528 l 76 735 q 147 896 76 838 q 344 954 218 954 q 538 932 471 954 l 538 790 q 376 817 465 817 q 256 792 286 817 q 226 721 226 768 l 226 658 q 248 580 226 606 q 324 554 269 554 l 442 554 l 442 640 l 586 640 l 586 554 l 650 554 m 442 226 l 442 425 l 324 425 q 224 322 224 425 l 224 226 q 333 122 224 122 q 442 226 442 122 z "},"'":{"ha":368,"x_min":114,"x_max":253,"o":"m 114 1056 l 253 1056 l 253 725 l 114 725 l 114 1056 z "},"(":{"ha":442,"x_min":92,"x_max":364,"o":"m 364 1132 q 262 816 301 993 q 222 459 222 639 q 262 101 222 279 q 364 -214 301 -76 l 233 -214 q 132 97 172 -83 q 92 458 92 276 q 131 820 92 640 q 233 1132 171 1000 l 364 1132 z "},")":{"ha":442,"x_min":76,"x_max":349,"o":"m 208 1132 q 309 820 269 1000 q 349 459 349 640 q 309 97 349 278 q 208 -214 269 -83 l 76 -214 q 178 101 139 -76 q 218 459 218 279 q 178 816 218 639 q 76 1132 139 993 l 208 1132 z "},"*":{"ha":728,"x_min":61,"x_max":667,"o":"m 296 993 l 296 1125 l 432 1125 l 432 993 q 421 907 432 943 q 499 944 451 929 l 625 986 l 667 856 l 542 815 q 457 799 492 799 q 515 736 488 775 l 593 631 l 483 550 l 404 656 q 364 731 378 693 q 324 657 354 700 l 246 550 l 135 631 l 213 738 q 271 799 242 776 q 188 815 229 801 l 61 856 l 103 985 l 229 944 q 307 908 274 929 q 296 993 296 942 z "},"+":{"ha":654,"x_min":60,"x_max":593,"o":"m 593 519 l 593 392 l 396 392 l 396 189 l 257 189 l 257 392 l 60 392 l 60 519 l 257 519 l 257 722 l 396 722 l 396 519 l 593 519 z "},",":{"ha":251,"x_min":14,"x_max":217,"o":"m 150 157 q 217 96 217 157 q 177 -33 217 49 q 97 -179 138 -115 l 14 -179 l 75 157 l 150 157 z "},"-":{"ha":371,"x_min":57,"x_max":322,"o":"m 57 519 l 322 519 l 322 392 l 57 392 l 57 519 z "},".":{"ha":272,"x_min":49,"x_max":221,"o":"m 135 -11 q 92 -11 135 -11 q 49 74 49 -11 q 135 158 49 158 q 221 74 221 158 q 135 -11 221 -11 z "},"/":{"ha":578,"x_min":47,"x_max":544,"o":"m 413 1132 l 544 1132 l 181 -214 l 47 -214 l 413 1132 z "},":":{"ha":317,"x_min":49,"x_max":221,"o":"m 135 -11 q 92 -11 135 -11 q 49 74 49 -11 q 135 158 49 158 q 221 74 221 158 q 135 -11 221 -11 m 49 560 q 135 646 49 646 q 221 560 221 646 q 135 476 221 476 q 49 560 49 476 z "},";":{"ha":318,"x_min":14,"x_max":221,"o":"m 49 560 q 135 646 49 646 q 221 560 221 646 q 135 476 221 476 q 49 560 49 476 m 150 157 q 217 96 217 157 q 177 -33 217 49 q 97 -179 138 -115 l 14 -179 l 75 157 l 150 157 z "},"<":{"ha":672,"x_min":53,"x_max":594,"o":"m 594 726 l 594 592 l 189 456 l 594 319 l 594 185 l 53 385 l 53 526 l 594 726 z "},"=":{"ha":647,"x_min":50,"x_max":592,"o":"m 50 388 l 592 388 l 592 258 l 50 258 l 50 388 m 50 651 l 592 651 l 592 524 l 50 524 l 50 651 z "},">":{"ha":668,"x_min":67,"x_max":610,"o":"m 67 726 l 610 526 l 610 385 l 67 185 l 67 319 l 474 456 l 67 592 l 67 726 z "},"?":{"ha":556,"x_min":43,"x_max":492,"o":"m 210 -11 q 167 -11 210 -11 q 124 74 124 -11 q 210 158 124 158 q 296 74 296 158 q 210 -11 296 -11 m 219 961 q 492 747 492 961 l 492 619 q 279 401 492 403 l 271 272 l 146 272 l 139 517 l 218 517 q 315 542 286 517 q 344 622 344 568 l 344 735 q 319 802 344 781 q 208 824 293 824 q 43 794 124 824 l 43 938 q 219 961 117 961 z "},"@":{"ha":1229,"x_min":92,"x_max":1150,"o":"m 744 -174 l 621 -174 q 200 -19 319 -174 q 117 156 142 58 q 92 387 92 254 q 118 619 92 519 q 203 794 144 718 q 622 950 324 950 q 1083 736 972 950 q 1150 403 1150 611 q 1085 110 1150 196 q 897 25 1021 25 q 724 101 774 25 q 579 68 671 68 q 417 226 417 68 l 417 256 q 450 363 417 324 q 553 425 483 401 l 693 472 l 693 551 q 676 604 693 586 q 602 622 660 622 q 444 596 544 622 l 444 701 q 614 724 531 724 q 810 557 810 724 l 810 239 q 832 161 810 185 q 910 138 854 138 q 994 194 965 138 q 1022 367 1022 250 q 1014 545 1022 483 q 981 665 1006 607 q 912 757 956 722 q 796 812 868 792 q 622 832 724 832 q 449 810 521 832 q 333 753 376 789 q 263 658 289 717 q 229 537 238 600 q 221 388 221 474 q 230 238 221 301 q 264 117 239 175 q 333 22 289 58 q 622 -56 429 -56 l 744 -56 l 744 -174 m 536 226 q 551 182 536 196 q 609 168 567 168 q 693 194 651 168 l 693 367 l 604 338 q 551 310 567 326 q 536 258 536 294 l 536 226 z "},"A":{"ha":642,"x_min":15,"x_max":625,"o":"m 481 0 l 432 243 l 208 243 l 161 0 l 15 0 l 217 947 l 426 947 l 625 0 l 481 0 m 233 371 l 406 371 l 318 810 l 233 371 z "},"B":{"ha":667,"x_min":81,"x_max":600,"o":"m 592 731 l 592 647 q 492 478 592 514 q 600 306 600 446 l 600 215 q 371 0 600 0 l 81 0 l 81 947 l 363 947 q 592 731 592 947 m 342 819 l 231 819 l 231 543 l 342 543 q 443 639 443 543 l 443 724 q 342 819 443 819 m 451 224 l 451 314 q 350 410 451 410 l 231 410 l 231 128 l 350 128 q 451 224 451 128 z "},"C":{"ha":558,"x_min":67,"x_max":515,"o":"m 67 739 q 135 898 67 842 q 344 954 204 954 q 511 933 436 954 l 511 794 q 356 818 438 818 q 247 795 275 818 q 218 726 218 772 l 218 219 q 247 152 218 175 q 358 129 275 129 q 515 150 442 129 l 515 14 q 343 -7 440 -7 q 135 49 203 -7 q 67 207 67 104 l 67 739 z "},"D":{"ha":664,"x_min":81,"x_max":599,"o":"m 449 731 q 351 821 449 821 l 231 821 l 231 131 l 351 131 q 449 229 449 131 l 449 731 m 81 947 l 368 947 q 539 892 479 947 q 599 735 599 836 l 599 219 q 544 58 599 115 q 376 0 489 0 l 81 0 l 81 947 z "},"E":{"ha":567,"x_min":81,"x_max":524,"o":"m 81 947 l 524 947 l 524 815 l 231 815 l 231 544 l 485 544 l 485 413 l 231 413 l 231 131 l 524 131 l 524 0 l 81 0 l 81 947 z "},"F":{"ha":536,"x_min":81,"x_max":513,"o":"m 81 947 l 513 947 l 513 815 l 232 815 l 232 518 l 494 518 l 494 383 l 232 383 l 232 0 l 81 0 l 81 947 z "},"G":{"ha":636,"x_min":67,"x_max":571,"o":"m 67 733 q 140 895 67 836 q 356 954 213 954 q 536 929 461 954 l 536 786 q 357 815 458 815 q 218 718 218 815 l 218 219 q 333 128 218 128 q 424 149 386 128 l 424 486 l 571 486 l 571 50 q 338 -7 469 -7 q 136 47 206 -7 q 67 207 67 101 l 67 733 z "},"H":{"ha":711,"x_min":81,"x_max":632,"o":"m 479 947 l 632 947 l 632 0 l 479 0 l 479 399 l 232 399 l 232 0 l 81 0 l 81 947 l 232 947 l 232 532 l 479 532 l 479 947 z "},"I":{"ha":311,"x_min":81,"x_max":232,"o":"m 81 947 l 232 947 l 232 0 l 81 0 l 81 947 z "},"J":{"ha":315,"x_min":-12,"x_max":236,"o":"m 85 947 l 236 947 l 236 282 q 189 -62 236 97 l 146 -207 l -12 -207 l 29 -62 q 85 281 85 131 l 85 947 z "},"K":{"ha":636,"x_min":81,"x_max":621,"o":"m 81 947 l 231 947 l 231 0 l 81 0 l 81 947 m 446 947 l 607 947 l 419 482 l 621 0 l 453 0 l 263 479 l 446 947 z "},"L":{"ha":510,"x_min":81,"x_max":503,"o":"m 81 947 l 232 947 l 232 128 l 503 128 l 503 0 l 81 0 l 81 947 z "},"M":{"ha":874,"x_min":81,"x_max":793,"o":"m 793 947 l 793 0 l 649 0 l 649 418 q 665 699 649 560 l 501 247 l 371 247 l 206 699 q 224 418 224 569 l 224 0 l 81 0 l 81 947 l 243 947 l 436 406 l 629 947 l 793 947 z "},"N":{"ha":715,"x_min":81,"x_max":635,"o":"m 486 947 l 635 947 l 635 0 l 481 0 l 318 411 q 245 610 281 508 q 207 718 210 711 q 211 661 207 707 q 228 368 228 507 l 228 0 l 81 0 l 81 947 l 238 947 q 508 232 457 386 q 503 290 508 242 q 486 585 486 436 l 486 947 z "},"O":{"ha":656,"x_min":67,"x_max":589,"o":"m 439 721 q 328 824 439 824 q 217 721 217 824 l 217 226 q 328 122 217 122 q 439 226 439 122 l 439 721 m 67 728 q 133 897 67 833 q 328 961 199 961 q 523 897 457 961 q 589 728 589 833 l 589 219 q 523 49 589 113 q 328 -14 457 -14 q 133 49 199 -14 q 67 219 67 113 l 67 728 z "},"P":{"ha":631,"x_min":81,"x_max":581,"o":"m 431 721 q 332 815 431 815 l 231 815 l 231 432 l 332 432 q 431 526 431 432 l 431 721 m 81 947 l 347 947 q 520 891 460 947 q 581 735 581 835 l 581 513 q 520 356 581 413 q 347 300 460 300 l 231 300 l 231 0 l 81 0 l 81 947 z "},"Q":{"ha":656,"x_min":67,"x_max":658,"o":"m 328 -14 q 133 49 199 -14 q 67 219 67 113 l 67 728 q 133 897 67 833 q 328 961 199 961 q 523 897 457 961 q 589 728 589 833 l 589 219 q 503 33 589 94 l 658 -131 l 478 -131 l 367 -12 q 328 -14 354 -14 m 217 721 l 217 226 q 328 122 217 122 q 439 226 439 122 l 439 721 q 328 824 439 824 q 217 721 217 824 z "},"R":{"ha":651,"x_min":81,"x_max":614,"o":"m 231 363 l 231 0 l 81 0 l 81 947 l 347 947 q 520 892 460 947 q 581 736 581 836 l 581 579 q 464 379 581 421 l 614 0 l 449 0 l 315 363 l 231 363 m 231 818 l 231 485 l 335 485 q 408 508 386 485 q 431 582 431 532 l 431 725 q 335 818 431 818 l 231 818 z "},"S":{"ha":572,"x_min":33,"x_max":538,"o":"m 33 742 q 101 898 33 842 q 292 954 169 954 q 492 928 415 954 l 492 785 q 307 815 410 815 q 188 726 188 815 l 188 681 q 203 613 188 638 q 264 565 219 589 l 424 475 q 538 290 538 414 l 538 210 q 463 49 538 106 q 253 -7 389 -7 q 43 22 118 -7 l 43 168 q 242 132 128 132 q 385 225 385 132 l 385 267 q 370 327 385 306 q 315 369 356 349 l 161 454 q 33 657 33 525 l 33 742 z "},"T":{"ha":526,"x_min":10,"x_max":517,"o":"m 517 947 l 517 815 l 339 815 l 339 0 l 188 0 l 188 815 l 10 815 l 10 947 l 517 947 z "},"U":{"ha":665,"x_min":74,"x_max":593,"o":"m 443 947 l 593 947 l 593 219 q 527 49 593 113 q 332 -14 461 -14 q 138 49 203 -14 q 74 219 74 113 l 74 947 l 224 947 l 224 226 q 333 122 224 122 q 443 226 443 122 l 443 947 z "},"V":{"ha":625,"x_min":13,"x_max":613,"o":"m 457 947 l 613 947 l 418 0 l 208 0 l 13 947 l 167 947 q 290 292 268 426 q 315 136 311 158 q 342 304 321 161 q 375 510 364 447 l 457 947 z "},"W":{"ha":835,"x_min":18,"x_max":817,"o":"m 682 947 l 817 947 l 675 0 l 525 0 q 435 576 442 518 q 419 717 428 633 q 385 426 407 564 l 315 0 l 158 0 l 18 947 l 154 947 l 224 503 l 253 247 q 285 504 268 378 l 351 947 l 488 947 l 551 503 l 583 253 q 613 503 597 396 l 682 947 z "},"X":{"ha":594,"x_min":13,"x_max":581,"o":"m 418 947 l 581 947 l 376 472 l 581 0 l 418 0 l 299 311 l 176 0 l 13 0 l 217 472 l 13 947 l 175 947 l 299 633 l 418 947 z "},"Y":{"ha":615,"x_min":3,"x_max":613,"o":"m 383 0 l 232 0 l 232 307 l 3 947 l 157 947 l 229 744 q 310 469 281 589 q 392 744 347 610 l 461 947 l 613 947 l 383 307 l 383 0 z "},"Z":{"ha":558,"x_min":33,"x_max":522,"o":"m 40 947 l 522 947 l 522 824 l 192 129 l 522 129 l 522 0 l 33 0 l 33 129 l 360 818 l 40 818 l 40 947 z "},"[":{"ha":461,"x_min":118,"x_max":410,"o":"m 242 -99 l 410 -99 l 410 -218 l 118 -218 l 118 1146 l 410 1146 l 410 1028 l 242 1028 l 242 -99 z "},"\\":{"ha":607,"x_min":50,"x_max":563,"o":"m 50 1146 l 188 1146 l 563 -218 l 424 -218 l 50 1146 z "},"]":{"ha":461,"x_min":50,"x_max":343,"o":"m 50 1146 l 343 1146 l 343 -218 l 50 -218 l 50 -99 l 219 -99 l 219 1028 l 50 1028 l 50 1146 z "},"^":{"ha":521,"x_min":3,"x_max":515,"o":"m 515 540 l 367 540 l 258 875 l 150 540 l 3 540 l 171 969 l 349 969 l 515 540 z "},"_":{"ha":719,"x_min":8,"x_max":711,"o":"m 8 -8 l 711 -8 l 711 -129 l 8 -129 l 8 -8 z "},"`":{"ha":486,"x_min":154,"x_max":332,"o":"m 154 1018 l 275 1018 l 332 864 l 247 864 l 154 1018 z "},"a":{"ha":599,"x_min":36,"x_max":525,"o":"m 183 231 l 183 190 q 202 131 183 150 q 277 111 221 111 q 379 147 333 111 l 379 364 l 265 332 q 200 297 217 318 q 183 231 183 275 m 76 785 q 281 811 153 811 q 467 755 408 811 q 525 588 525 699 l 525 0 l 383 0 l 383 58 q 227 -4 326 -4 q 82 44 128 -4 q 36 192 36 93 l 36 238 q 76 368 36 319 q 207 442 117 417 l 381 489 l 381 588 q 353 656 379 635 q 240 678 328 678 q 76 649 151 678 l 76 785 z "},"b":{"ha":632,"x_min":81,"x_max":565,"o":"m 413 599 q 340 668 413 668 q 231 643 286 668 l 231 139 l 318 139 q 413 224 413 139 l 413 599 m 81 1018 l 231 1018 l 231 781 q 387 808 307 808 q 516 762 467 808 q 565 628 565 715 l 565 204 q 509 51 565 103 q 357 0 453 0 l 81 0 l 81 1018 z "},"c":{"ha":518,"x_min":67,"x_max":479,"o":"m 67 592 q 318 811 67 811 q 478 792 407 811 l 478 653 q 335 672 400 672 q 244 651 271 672 q 217 582 217 631 l 217 222 q 244 152 217 174 q 338 131 271 131 q 479 153 406 131 l 479 14 q 318 -7 410 -7 q 67 211 67 -7 l 67 592 z "},"d":{"ha":631,"x_min":67,"x_max":550,"o":"m 400 669 l 318 669 q 217 572 217 669 l 217 210 q 294 132 217 132 q 400 165 361 132 l 400 669 m 399 1018 l 550 1018 l 550 0 l 404 0 l 404 51 q 252 -6 343 -6 q 114 45 161 -6 q 67 189 67 96 l 67 576 q 127 744 67 683 q 301 804 188 804 l 399 804 l 399 1018 z "},"e":{"ha":603,"x_min":67,"x_max":547,"o":"m 67 217 l 67 599 q 127 759 67 700 q 310 818 188 818 q 490 760 432 818 q 547 599 547 701 l 547 338 l 213 338 l 213 226 q 244 149 213 174 q 356 125 276 125 q 526 151 436 125 l 526 17 q 340 -8 440 -8 q 67 217 67 -8 m 213 456 l 407 456 l 407 596 q 310 690 407 690 q 213 596 213 690 l 213 456 z "},"f":{"ha":393,"x_min":28,"x_max":393,"o":"m 107 833 q 325 1044 107 1044 q 393 1039 349 1044 l 393 918 q 344 922 375 922 q 258 836 258 922 l 258 804 l 389 804 l 389 682 l 258 682 l 258 0 l 107 0 l 107 682 l 28 682 l 28 804 l 107 804 l 107 833 z "},"g":{"ha":626,"x_min":39,"x_max":608,"o":"m 608 743 l 560 743 q 513 735 533 743 q 549 608 549 683 l 549 493 q 488 339 549 394 q 306 282 428 283 q 247 229 247 282 q 263 192 247 203 q 321 181 279 181 l 400 181 q 551 140 503 181 q 600 13 600 99 l 600 -12 q 329 -208 600 -208 l 275 -208 q 39 -156 117 -208 l 39 -17 q 272 -81 135 -81 l 313 -81 q 458 -11 458 -81 l 458 0 q 442 43 458 29 q 382 57 426 57 l 299 57 q 114 178 114 57 l 114 200 q 133 263 114 238 q 186 296 153 289 q 47 493 47 339 l 47 608 q 109 763 47 708 q 297 818 171 818 q 450 788 389 818 q 586 881 479 881 l 608 881 l 608 743 m 399 493 l 399 607 q 298 696 399 696 q 197 607 197 696 l 197 493 q 298 406 197 406 q 399 493 399 406 z "},"h":{"ha":635,"x_min":81,"x_max":561,"o":"m 81 1018 l 231 1018 l 231 781 q 379 808 301 808 q 509 764 457 808 q 561 628 561 719 l 561 0 l 408 0 l 408 599 q 338 668 408 668 q 231 643 278 668 l 231 0 l 81 0 l 81 1018 z "},"i":{"ha":311,"x_min":69,"x_max":242,"o":"m 156 863 q 113 863 156 863 q 69 947 69 863 q 156 1032 69 1032 q 242 947 242 1032 q 156 863 242 863 m 81 790 l 231 790 l 231 0 l 81 0 l 81 790 z "},"j":{"ha":311,"x_min":-31,"x_max":242,"o":"m 156 863 q 113 863 156 863 q 69 947 69 863 q 156 1032 69 1032 q 242 947 242 1032 q 156 863 242 863 m 81 790 l 231 790 l 231 14 q 176 -150 231 -89 q 14 -211 121 -211 q -31 -207 -8 -211 l -31 -69 q 4 -72 -8 -72 q 81 14 81 -72 l 81 790 z "},"k":{"ha":579,"x_min":81,"x_max":564,"o":"m 81 1018 l 226 1018 l 226 0 l 81 0 l 81 1018 m 394 804 l 547 804 l 399 421 l 564 0 l 403 0 l 249 425 l 394 804 z "},"l":{"ha":311,"x_min":81,"x_max":231,"o":"m 81 1018 l 231 1018 l 231 0 l 81 0 l 81 1018 z "},"m":{"ha":965,"x_min":81,"x_max":892,"o":"m 518 754 q 701 807 610 807 q 842 761 793 807 q 892 628 892 715 l 892 0 l 739 0 l 739 599 q 668 668 739 668 q 557 635 608 668 q 561 599 561 619 l 561 0 l 408 0 l 408 599 q 338 668 408 668 q 231 640 286 668 l 231 0 l 81 0 l 81 804 l 224 804 l 224 768 q 390 807 310 807 q 518 754 471 807 z "},"n":{"ha":635,"x_min":81,"x_max":561,"o":"m 224 768 q 387 807 310 807 q 513 761 464 807 q 561 628 561 715 l 561 0 l 408 0 l 408 599 q 338 668 408 668 q 231 640 286 668 l 231 0 l 81 0 l 81 804 l 224 804 l 224 768 z "},"o":{"ha":619,"x_min":67,"x_max":553,"o":"m 404 594 q 309 689 404 689 q 214 594 214 689 l 214 210 q 309 115 214 115 q 404 210 404 115 l 404 594 m 67 599 q 127 759 67 700 q 310 818 188 818 q 492 759 432 818 q 553 599 553 700 l 553 206 q 492 45 553 104 q 310 -14 432 -14 q 127 45 188 -14 q 67 206 67 104 l 67 599 z "},"p":{"ha":632,"x_min":81,"x_max":565,"o":"m 413 599 q 339 668 413 668 q 231 640 286 668 l 231 139 l 319 139 q 413 225 413 139 l 413 599 m 224 767 q 383 807 300 807 q 516 761 467 807 q 565 628 565 715 l 565 206 q 508 53 565 106 q 357 0 451 0 l 231 0 l 231 -207 l 81 -207 l 81 804 l 224 804 l 224 767 z "},"q":{"ha":631,"x_min":67,"x_max":550,"o":"m 400 669 l 319 669 q 217 568 217 669 l 217 217 q 299 133 217 133 q 400 165 360 133 l 400 669 m 303 804 l 550 804 l 550 -207 l 400 -207 l 400 29 q 263 -1 354 -1 q 67 203 67 -1 l 67 574 q 128 742 67 681 q 303 804 189 804 z "},"r":{"ha":418,"x_min":81,"x_max":411,"o":"m 382 808 l 411 808 l 411 667 l 372 667 q 231 621 303 667 l 231 0 l 81 0 l 81 804 l 224 804 l 224 746 q 240 757 226 749 q 256 767 253 765 q 269 776 258 769 q 284 785 281 783 q 297 791 288 786 q 313 797 307 796 q 327 802 318 799 q 344 806 336 806 q 382 808 367 808 z "},"s":{"ha":519,"x_min":35,"x_max":486,"o":"m 35 603 q 96 759 35 707 q 294 811 157 811 q 456 789 383 811 l 456 654 q 309 676 386 676 q 207 658 232 676 q 182 596 182 639 l 182 571 q 196 522 182 539 q 251 481 210 504 l 368 415 q 456 342 426 382 q 486 240 486 301 l 486 204 q 210 -7 486 -7 q 36 14 108 -7 l 36 150 q 190 128 106 128 q 305 148 274 128 q 336 210 336 168 l 336 231 q 319 278 336 260 q 251 325 303 296 l 143 385 q 35 561 35 444 l 35 603 z "},"t":{"ha":422,"x_min":7,"x_max":401,"o":"m 239 947 l 239 804 l 390 804 l 390 675 l 239 675 l 239 199 q 314 126 239 126 q 401 144 356 126 l 401 10 q 288 -8 365 -8 q 88 186 88 -8 l 88 675 l 7 675 l 7 804 l 94 804 l 139 947 l 239 947 z "},"u":{"ha":638,"x_min":74,"x_max":557,"o":"m 407 804 l 557 804 l 557 0 l 414 0 l 414 38 q 256 -1 343 -1 q 122 48 169 -1 q 74 189 74 97 l 74 804 l 225 804 l 225 214 q 303 133 225 133 q 407 164 346 133 l 407 804 z "},"v":{"ha":569,"x_min":15,"x_max":554,"o":"m 404 804 l 554 804 l 381 0 l 192 0 l 15 804 l 168 804 q 263 309 249 404 q 288 114 276 214 q 344 490 307 292 l 404 804 z "},"w":{"ha":847,"x_min":15,"x_max":832,"o":"m 679 804 l 832 804 l 697 0 l 514 0 q 426 601 440 485 q 390 349 411 467 l 336 0 l 156 0 l 15 804 l 172 804 l 251 181 l 351 804 l 499 804 l 600 179 l 679 804 z "},"x":{"ha":533,"x_min":10,"x_max":524,"o":"m 361 804 l 524 804 l 343 404 l 524 0 l 361 0 l 267 261 l 172 0 l 10 0 l 188 404 l 11 804 l 172 804 l 267 550 l 361 804 z "},"y":{"ha":578,"x_min":19,"x_max":558,"o":"m 411 804 l 558 804 l 351 -207 l 207 -207 l 247 0 l 189 0 l 19 804 l 169 804 l 236 476 q 290 114 272 288 q 346 475 308 281 l 411 804 z "},"z":{"ha":474,"x_min":28,"x_max":444,"o":"m 33 804 l 443 804 l 443 706 l 189 128 l 444 128 l 444 0 l 28 0 l 28 100 l 282 676 l 33 676 l 33 804 z "},"{":{"ha":528,"x_min":79,"x_max":442,"o":"m 315 929 l 315 656 q 289 519 315 567 q 192 460 263 472 q 289 403 263 449 q 315 271 315 358 l 315 -12 q 401 -86 315 -86 l 442 -86 l 442 -215 l 392 -215 q 239 -159 293 -215 q 185 -7 185 -103 l 185 304 q 83 394 185 394 l 79 394 l 79 524 l 83 524 q 185 614 185 524 l 185 924 q 239 1076 185 1019 q 392 1132 293 1132 l 442 1132 l 442 1004 l 401 1004 q 315 929 315 1004 z "},"|":{"ha":299,"x_min":96,"x_max":201,"o":"m 96 1167 l 201 1167 l 201 -235 l 96 -235 l 96 1167 z "},"}":{"ha":525,"x_min":81,"x_max":444,"o":"m 439 524 l 444 524 l 444 394 l 439 394 q 338 304 338 394 l 338 -7 q 283 -159 338 -103 q 131 -215 229 -215 l 81 -215 l 81 -86 l 121 -86 q 207 -12 207 -86 l 207 271 q 233 403 207 358 q 331 460 260 449 q 233 519 260 472 q 207 656 207 567 l 207 929 q 121 1004 207 1004 l 81 1004 l 81 1132 l 131 1132 q 283 1076 229 1132 q 338 924 338 1019 l 338 614 q 439 524 338 524 z "},"~":{"ha":722,"x_min":33,"x_max":686,"o":"m 686 518 q 608 377 686 413 q 436 382 531 342 l 279 442 q 194 450 229 465 q 169 378 160 435 l 39 378 q 33 439 33 407 q 71 550 33 510 q 283 575 138 622 l 440 515 q 527 506 493 490 q 551 579 561 522 l 681 579 q 686 518 686 553 z "}," ":{"ha":261,"x_min":0,"x_max":0,"o":""},"¡":{"ha":397,"x_min":113,"x_max":286,"o":"m 279 -143 l 118 -143 l 138 532 l 260 532 l 279 -143 m 199 646 q 156 646 199 646 q 113 731 113 646 q 199 815 113 815 q 286 731 286 815 q 199 646 286 646 z "},"¢":{"ha":542,"x_min":74,"x_max":486,"o":"m 386 -100 l 247 -100 l 247 -1 q 74 211 74 29 l 74 592 q 251 806 74 776 l 251 908 l 390 908 l 390 808 q 485 792 433 806 l 485 653 q 342 672 407 672 q 251 651 278 672 q 224 582 224 631 l 224 222 q 251 152 224 174 q 345 131 278 131 q 486 153 413 131 l 486 14 q 386 -4 435 -1 l 386 -100 z "},"£":{"ha":678,"x_min":69,"x_max":611,"o":"m 611 133 l 611 0 l 69 0 l 69 131 q 93 138 75 131 q 116 149 111 146 q 128 159 121 153 q 140 172 136 165 q 150 187 144 178 q 158 207 156 196 q 165 261 165 235 l 165 421 l 79 421 l 79 547 l 165 547 l 165 704 q 233 888 165 824 q 435 951 301 951 q 599 929 522 951 l 599 788 q 446 813 521 813 q 343 783 371 813 q 315 694 315 753 l 315 547 l 531 547 l 531 421 l 315 421 l 315 282 q 250 133 315 176 l 611 133 z "},"¤":{"ha":639,"x_min":32,"x_max":613,"o":"m 569 540 l 569 407 q 547 292 569 338 l 611 228 l 522 139 l 457 204 q 323 179 406 179 q 186 204 240 179 l 121 139 l 32 228 l 97 292 q 75 407 75 340 l 75 540 q 97 654 75 606 l 32 718 l 121 807 l 186 743 q 322 768 246 768 q 458 743 399 768 l 524 807 l 613 718 l 547 654 q 569 540 569 606 m 219 536 l 219 411 q 242 335 219 360 q 322 310 265 310 q 401 335 378 310 q 424 411 424 360 l 424 536 q 401 611 424 586 q 322 636 378 636 q 242 611 265 636 q 219 536 219 586 z "},"¥":{"ha":715,"x_min":56,"x_max":671,"o":"m 661 594 l 661 478 l 503 478 l 461 367 l 661 367 l 661 250 l 438 250 l 438 0 l 289 0 l 289 250 l 58 250 l 58 367 l 264 367 l 222 478 l 58 478 l 58 594 l 181 594 l 56 933 l 207 933 l 322 611 l 365 476 l 408 611 l 521 933 l 671 933 l 544 594 l 661 594 z "},"¦":{"ha":300,"x_min":96,"x_max":201,"o":"m 96 299 l 201 299 l 201 -235 l 96 -235 l 96 299 m 96 1167 l 201 1167 l 201 633 l 96 633 l 96 1167 z "},"§":{"ha":532,"x_min":43,"x_max":504,"o":"m 199 376 l 199 349 q 213 299 199 317 q 269 260 228 282 l 386 193 q 474 120 443 161 q 504 18 504 79 l 504 4 q 228 -208 504 -208 q 56 -189 128 -208 l 56 -51 q 208 -74 122 -74 q 324 -55 293 -74 q 354 0 354 -36 q 338 54 354 36 q 269 103 322 72 l 161 163 q 54 339 54 222 l 54 376 l 199 376 m 43 744 q 104 899 43 847 q 303 951 165 951 q 464 931 397 951 l 464 796 q 317 818 394 818 q 215 799 239 818 q 190 741 190 781 q 203 685 190 701 q 258 647 217 668 l 375 583 q 463 511 433 551 q 493 408 493 471 l 493 371 l 347 371 l 347 397 q 330 446 347 428 q 260 493 313 464 l 151 553 q 43 729 43 613 l 43 744 z "},"¨":{"ha":486,"x_min":72,"x_max":414,"o":"m 348 876 q 315 876 348 876 q 282 940 282 876 q 348 1003 282 1003 q 414 940 414 1003 q 348 876 414 876 m 138 876 q 105 876 138 876 q 72 940 72 876 q 138 1003 72 1003 q 204 940 204 1003 q 138 876 204 876 z "},"©":{"ha":968,"x_min":57,"x_max":910,"o":"m 790 343 q 796 459 796 390 q 791 574 796 528 q 769 668 786 619 q 719 744 751 717 q 628 790 686 772 q 485 807 569 807 q 342 789 400 807 q 251 744 283 771 q 200 667 218 717 q 177 573 182 618 q 172 458 172 528 q 177 341 172 388 q 201 247 182 294 q 253 171 219 199 q 485 108 325 108 q 714 172 640 108 q 790 343 776 226 m 314 539 q 499 707 314 707 q 604 694 547 707 l 604 596 q 497 608 542 608 q 438 591 451 608 q 424 536 424 574 l 424 381 q 428 344 424 357 q 606 321 446 289 l 606 222 q 499 210 550 210 q 314 378 314 210 l 314 539 m 142 131 q 76 273 94 194 q 57 458 57 351 q 76 642 57 564 q 140 786 94 721 q 485 917 233 917 q 786 833 686 917 q 900 608 876 758 q 910 448 910 543 q 890 274 910 353 q 825 131 871 196 q 485 0 732 0 q 142 131 235 0 z "},"ª":{"ha":465,"x_min":49,"x_max":418,"o":"m 147 593 l 147 556 q 164 501 147 518 q 233 483 181 483 q 318 515 286 483 l 318 692 l 225 671 q 147 593 147 650 m 232 1033 q 418 883 418 1033 l 418 397 l 318 397 l 318 447 q 197 401 279 401 q 49 554 49 401 l 49 601 q 87 699 49 664 q 206 756 125 733 l 318 782 l 318 883 q 235 943 315 943 q 74 919 154 943 l 74 1011 q 232 1033 140 1033 z "},"«":{"ha":760,"x_min":83,"x_max":688,"o":"m 251 701 l 404 701 l 235 447 l 404 193 l 251 193 l 83 447 l 251 701 m 536 701 l 688 701 l 518 447 l 688 193 l 536 193 l 368 447 l 536 701 z "},"¬":{"ha":682,"x_min":79,"x_max":603,"o":"m 79 532 l 603 532 l 603 250 l 450 250 l 450 399 l 79 399 l 79 532 z "},"­":{"ha":371,"x_min":57,"x_max":322,"o":"m 57 519 l 322 519 l 322 392 l 57 392 l 57 519 z "},"®":{"ha":772,"x_min":114,"x_max":714,"o":"m 114 726 q 114 806 114 726 q 179 966 114 886 q 415 1046 244 1046 q 649 967 585 1046 q 714 728 714 888 q 649 488 714 568 q 413 408 583 408 q 178 488 243 408 q 114 726 114 567 m 292 495 q 315 488 292 495 q 413 481 338 481 q 533 495 488 481 q 601 545 579 510 q 630 620 624 581 q 636 728 636 660 q 630 835 636 796 q 602 910 624 875 q 535 960 581 946 q 414 975 489 975 q 293 960 339 975 q 226 910 247 946 q 198 835 204 875 q 192 727 192 796 q 198 619 192 658 q 226 545 204 581 q 292 495 247 510 m 301 917 l 410 917 q 542 800 542 917 q 493 696 542 725 l 558 542 l 476 542 l 428 678 l 376 678 l 376 542 l 301 542 l 301 917 m 376 739 l 401 739 q 455 751 440 739 q 469 799 469 764 q 456 843 469 833 q 410 853 442 853 l 376 853 l 376 739 z "},"¯":{"ha":486,"x_min":74,"x_max":411,"o":"m 74 983 l 411 983 l 411 899 l 74 899 l 74 983 z "},"°":{"ha":560,"x_min":65,"x_max":497,"o":"m 353 835 q 364 850 353 835 q 374 918 374 864 q 353 1001 374 972 q 281 1029 333 1029 q 208 1001 228 1029 q 189 918 189 974 q 208 835 189 863 q 281 807 228 807 q 353 835 333 807 m 281 694 q 225 694 281 694 q 117 755 169 694 q 65 919 65 815 q 117 1083 65 1022 q 281 1144 169 1144 q 445 1083 393 1144 q 497 919 497 1022 q 445 755 497 815 q 281 694 393 694 z "},"±":{"ha":647,"x_min":60,"x_max":593,"o":"m 396 519 l 593 519 l 593 392 l 396 392 l 396 229 l 257 229 l 257 392 l 60 392 l 60 519 l 257 519 l 257 682 l 396 682 l 396 519 m 593 158 l 593 31 l 61 31 l 60 158 l 593 158 z "},"²":{"ha":411,"x_min":44,"x_max":374,"o":"m 206 1033 q 374 886 374 1033 l 374 838 q 301 699 374 750 l 210 632 q 155 585 165 600 q 144 533 144 569 l 144 493 l 374 493 l 374 401 l 44 401 l 44 538 q 64 628 44 596 q 133 693 83 660 l 233 763 q 267 799 260 781 q 274 851 274 817 l 274 883 q 258 928 274 914 q 186 943 243 943 q 60 926 129 943 l 60 1019 q 206 1033 119 1033 z "},"³":{"ha":414,"x_min":40,"x_max":357,"o":"m 188 1033 q 357 889 357 1033 l 357 825 q 304 719 357 744 q 357 613 357 693 l 357 543 q 188 394 357 394 q 40 411 96 394 l 40 504 q 171 486 117 486 q 242 501 225 486 q 258 546 258 515 l 258 613 q 245 656 258 642 q 193 672 232 671 l 128 672 l 128 764 l 193 764 q 245 780 232 764 q 258 825 258 796 l 258 883 q 242 928 258 914 q 173 943 225 943 q 47 928 121 943 l 47 1021 q 188 1033 97 1033 z "},"´":{"ha":486,"x_min":154,"x_max":332,"o":"m 211 1018 l 332 1018 l 239 864 l 154 864 l 211 1018 z "},"µ":{"ha":639,"x_min":75,"x_max":558,"o":"m 226 150 q 306 136 265 136 q 408 167 347 136 l 408 804 l 558 804 l 558 0 l 415 0 l 415 38 q 313 3 365 6 q 226 8 261 0 l 226 -207 l 75 -207 l 75 804 l 226 804 l 226 150 z "},"¶":{"ha":600,"x_min":85,"x_max":511,"o":"m 317 947 l 511 947 l 511 0 l 360 0 l 360 526 l 317 526 q 145 582 206 526 q 85 738 85 638 q 145 892 85 838 q 317 947 206 947 z "},"·":{"ha":346,"x_min":93,"x_max":253,"o":"m 173 400 q 133 400 173 400 q 93 480 93 400 q 173 560 93 560 q 253 480 253 560 q 173 400 253 400 z "},"¸":{"ha":486,"x_min":142,"x_max":343,"o":"m 256 -54 q 317 -81 290 -57 q 343 -152 343 -104 q 307 -229 343 -200 q 223 -258 271 -258 q 142 -250 175 -258 l 142 -176 q 194 -186 161 -186 q 253 -144 253 -186 q 194 -101 253 -101 l 176 -101 l 200 8 l 269 8 l 256 -54 z "},"¹":{"ha":303,"x_min":22,"x_max":242,"o":"m 242 1026 l 242 400 l 142 400 l 142 919 l 22 828 l 22 942 l 136 1026 l 242 1026 z "},"º":{"ha":456,"x_min":63,"x_max":417,"o":"m 317 886 q 238 943 314 943 q 161 886 161 943 l 161 547 q 239 488 161 488 q 317 547 317 488 l 317 886 m 63 882 q 240 1036 63 1036 q 417 882 417 1036 l 417 549 q 240 394 417 394 q 63 549 63 394 l 63 882 z "},"»":{"ha":757,"x_min":60,"x_max":664,"o":"m 60 701 l 211 701 l 379 447 l 211 193 l 60 193 l 229 447 l 60 701 m 343 701 l 496 701 l 664 447 l 496 193 l 343 193 l 513 447 l 343 701 z "},"¼":{"ha":1121,"x_min":56,"x_max":1046,"o":"m 713 947 l 813 947 l 304 0 l 204 0 l 713 947 m 883 211 l 883 543 l 738 211 l 883 211 m 982 625 l 982 211 l 1046 211 l 1046 122 l 982 122 l 982 0 l 883 0 l 883 122 l 644 122 l 644 215 l 828 625 l 982 625 m 275 947 l 275 321 l 176 321 l 176 840 l 56 749 l 56 863 l 169 947 l 275 947 z "},"½":{"ha":1122,"x_min":56,"x_max":1032,"o":"m 713 947 l 814 947 l 306 0 l 204 0 l 713 947 m 275 947 l 275 321 l 175 321 l 175 840 l 56 749 l 56 863 l 169 947 l 275 947 m 864 632 q 1032 485 1032 632 l 1032 436 q 960 297 1032 349 l 868 231 q 813 183 824 199 q 803 132 803 168 l 803 92 l 1032 92 l 1032 0 l 703 0 l 703 136 q 722 226 703 194 q 792 292 742 258 l 892 361 q 925 397 918 379 q 932 450 932 415 l 932 482 q 917 527 932 513 q 844 542 901 542 q 718 525 788 542 l 718 618 q 864 632 778 632 z "},"¾":{"ha":1164,"x_min":56,"x_max":1089,"o":"m 203 954 q 374 810 371 954 l 374 746 q 319 640 374 667 q 374 533 374 614 l 374 464 q 203 315 374 315 q 56 332 111 315 l 56 425 q 186 407 132 407 q 257 422 240 407 q 274 467 274 436 l 274 533 q 260 577 274 563 q 208 592 247 592 l 143 592 l 143 685 l 208 685 q 260 701 247 685 q 274 746 274 717 l 274 804 q 258 849 274 835 q 185 863 242 863 q 63 849 129 863 l 63 940 q 203 954 107 954 m 767 947 l 868 947 l 360 0 l 258 0 l 767 947 m 928 211 l 928 543 l 781 211 l 928 211 m 1025 625 l 1025 211 l 1089 211 l 1089 122 l 1025 122 l 1025 0 l 928 0 l 928 122 l 688 122 l 688 215 l 871 625 l 1025 625 z "},"¿":{"ha":556,"x_min":42,"x_max":490,"o":"m 324 815 q 367 815 324 815 q 410 731 410 815 q 324 646 410 646 q 238 731 238 646 q 324 815 238 815 m 314 -157 q 42 57 42 -157 l 42 185 q 254 403 42 401 l 263 532 l 388 532 l 394 288 l 315 288 q 218 262 247 288 q 189 182 189 236 l 189 69 q 215 2 189 24 q 325 -19 240 -19 q 490 10 410 -19 l 490 -133 q 314 -157 417 -157 z "},"À":{"ha":642,"x_min":15,"x_max":625,"o":"m 481 0 l 432 243 l 208 243 l 161 0 l 15 0 l 217 947 l 426 947 l 625 0 l 481 0 m 233 371 l 406 371 l 318 810 l 233 371 m 358 1003 l 274 1003 l 181 1157 l 301 1157 l 358 1003 z "},"Á":{"ha":642,"x_min":15,"x_max":625,"o":"m 481 0 l 432 243 l 208 243 l 161 0 l 15 0 l 217 947 l 426 947 l 625 0 l 481 0 m 233 371 l 406 371 l 318 810 l 233 371 m 451 1157 l 358 1003 l 274 1003 l 331 1157 l 451 1157 z "},"Â":{"ha":642,"x_min":15,"x_max":625,"o":"m 481 0 l 432 243 l 208 243 l 161 0 l 15 0 l 217 947 l 426 947 l 625 0 l 481 0 m 233 371 l 406 371 l 318 810 l 233 371 m 325 1083 l 272 1003 l 192 1003 l 268 1157 l 381 1157 l 457 1003 l 378 1003 l 325 1083 z "},"Ã":{"ha":642,"x_min":15,"x_max":625,"o":"m 481 0 l 432 243 l 208 243 l 161 0 l 15 0 l 217 947 l 426 947 l 625 0 l 481 0 m 233 371 l 406 371 l 318 810 l 233 371 m 222 1019 l 222 1010 l 133 1010 l 133 1021 q 242 1146 136 1146 q 326 1119 279 1146 q 389 1092 374 1092 q 418 1138 418 1092 l 418 1149 l 507 1149 l 507 1135 q 400 1013 504 1013 q 317 1040 364 1013 q 253 1067 269 1067 q 222 1019 222 1067 z "},"Ä":{"ha":642,"x_min":15,"x_max":625,"o":"m 481 0 l 432 243 l 208 243 l 161 0 l 15 0 l 217 947 l 426 947 l 625 0 l 481 0 m 233 371 l 406 371 l 318 810 l 233 371 m 279 1078 q 279 1047 279 1078 q 213 1015 279 1015 q 147 1078 147 1015 q 213 1142 147 1142 q 279 1078 279 1142 m 489 1078 q 489 1047 489 1078 q 423 1015 489 1015 q 357 1078 357 1015 q 423 1142 357 1142 q 489 1078 489 1142 z "},"Å":{"ha":642,"x_min":15,"x_max":625,"o":"m 481 0 l 432 243 l 208 243 l 161 0 l 15 0 l 217 947 l 426 947 l 625 0 l 481 0 m 233 371 l 406 371 l 318 810 l 233 371 m 397 1003 q 382 989 397 1003 q 318 974 368 974 q 240 1003 268 974 q 211 1079 211 1033 q 240 1154 211 1125 q 318 1183 268 1183 q 397 1154 368 1183 q 425 1079 425 1125 q 397 1003 425 1033 m 351 1111 q 345 1117 351 1111 q 318 1124 339 1124 q 285 1111 297 1124 q 274 1079 274 1099 q 318 1033 274 1033 q 363 1079 363 1033 q 351 1111 363 1099 z "},"Æ":{"ha":958,"x_min":6,"x_max":928,"o":"m 928 815 l 635 815 l 635 544 l 889 544 l 889 413 l 635 413 l 635 131 l 928 131 l 928 0 l 493 0 l 493 243 l 251 243 l 154 0 l 6 0 l 403 947 l 928 947 l 928 815 m 493 371 l 493 847 l 303 371 l 493 371 z "},"Ç":{"ha":558,"x_min":67,"x_max":515,"o":"m 338 -54 q 399 -81 372 -57 q 425 -152 425 -104 q 389 -229 425 -200 q 305 -258 353 -258 q 224 -250 257 -258 l 224 -176 q 276 -186 243 -186 q 335 -144 335 -186 q 276 -101 335 -101 l 258 -101 l 279 -4 q 67 207 67 19 l 67 739 q 135 898 67 842 q 344 954 204 954 q 511 933 436 954 l 511 794 q 356 818 438 818 q 247 795 275 818 q 218 726 218 772 l 218 219 q 247 152 218 175 q 358 129 275 129 q 515 150 442 129 l 515 14 q 349 -7 442 -7 l 338 -54 z "},"È":{"ha":567,"x_min":81,"x_max":524,"o":"m 168 1157 l 289 1157 l 346 1003 l 261 1003 l 168 1157 m 81 947 l 524 947 l 524 815 l 231 815 l 231 544 l 485 544 l 485 413 l 231 413 l 231 131 l 524 131 l 524 0 l 81 0 l 81 947 z "},"É":{"ha":567,"x_min":81,"x_max":524,"o":"m 81 947 l 524 947 l 524 815 l 231 815 l 231 544 l 485 544 l 485 413 l 231 413 l 231 131 l 524 131 l 524 0 l 81 0 l 81 947 m 314 1157 l 435 1157 l 342 1003 l 257 1003 l 314 1157 z "},"Ê":{"ha":567,"x_min":81,"x_max":524,"o":"m 524 815 l 231 815 l 231 544 l 485 544 l 485 413 l 231 413 l 231 131 l 524 131 l 524 0 l 81 0 l 81 947 l 524 947 l 524 815 m 293 1083 l 240 1003 l 160 1003 l 236 1157 l 349 1157 l 425 1003 l 346 1003 l 293 1083 z "},"Ë":{"ha":567,"x_min":81,"x_max":524,"o":"m 81 947 l 524 947 l 524 815 l 231 815 l 231 544 l 485 544 l 485 413 l 231 413 l 231 131 l 524 131 l 524 0 l 81 0 l 81 947 m 409 1015 q 376 1015 409 1015 q 343 1078 343 1015 q 409 1142 343 1142 q 475 1078 475 1142 q 409 1015 475 1015 m 199 1015 q 166 1015 199 1015 q 133 1078 133 1015 q 199 1142 133 1142 q 265 1078 265 1142 q 199 1015 265 1015 z "},"Ì":{"ha":567,"x_min":81,"x_max":524,"o":"m 168 1157 l 289 1157 l 346 1003 l 261 1003 l 168 1157 m 81 947 l 524 947 l 524 815 l 231 815 l 231 544 l 485 544 l 485 413 l 231 413 l 231 131 l 524 131 l 524 0 l 81 0 l 81 947 z "},"Í":{"ha":567,"x_min":81,"x_max":524,"o":"m 81 947 l 524 947 l 524 815 l 231 815 l 231 544 l 485 544 l 485 413 l 231 413 l 231 131 l 524 131 l 524 0 l 81 0 l 81 947 m 315 1157 l 436 1157 l 343 1003 l 258 1003 l 315 1157 z "},"Î":{"ha":311,"x_min":26,"x_max":292,"o":"m 81 0 l 81 947 l 232 947 l 232 0 l 81 0 m 160 1083 l 107 1003 l 26 1003 l 103 1157 l 215 1157 l 292 1003 l 213 1003 l 160 1083 z "},"Ï":{"ha":311,"x_min":-17,"x_max":325,"o":"m 259 1015 q 226 1015 259 1015 q 193 1078 193 1015 q 259 1142 193 1142 q 325 1078 325 1142 q 259 1015 325 1015 m 49 1015 q 16 1015 49 1015 q -17 1078 -17 1015 q 49 1142 -17 1142 q 115 1078 115 1142 q 49 1015 115 1015 m 81 947 l 232 947 l 232 0 l 81 0 l 81 947 z "},"Ð":{"ha":669,"x_min":-8,"x_max":607,"o":"m 89 947 l 376 947 q 547 892 488 947 q 607 735 607 836 l 607 219 q 552 58 607 115 q 385 0 497 0 l 89 0 l 89 403 l -8 403 l -8 528 l 89 528 l 89 947 m 457 229 l 457 731 q 360 821 457 821 l 239 821 l 239 528 l 354 528 l 354 403 l 239 403 l 239 131 l 360 131 q 457 229 457 131 z "},"Ñ":{"ha":715,"x_min":81,"x_max":635,"o":"m 465 1149 l 554 1149 l 554 1135 q 447 1013 551 1013 q 364 1040 411 1013 q 300 1067 317 1067 q 269 1019 269 1067 l 269 1010 l 181 1010 l 181 1021 q 289 1146 183 1146 q 374 1119 326 1146 q 436 1092 421 1092 q 465 1138 465 1092 l 465 1149 m 486 947 l 635 947 l 635 0 l 481 0 l 318 411 q 245 610 281 508 q 207 718 210 711 q 211 661 207 707 q 228 368 228 507 l 228 0 l 81 0 l 81 947 l 238 947 q 508 232 457 386 q 503 290 508 242 q 486 585 486 436 l 486 947 z "},"Ò":{"ha":656,"x_min":67,"x_max":589,"o":"m 186 1157 l 307 1157 l 364 1003 l 279 1003 l 186 1157 m 439 721 q 328 824 439 824 q 217 721 217 824 l 217 226 q 328 122 217 122 q 439 226 439 122 l 439 721 m 67 728 q 133 897 67 833 q 328 961 199 961 q 523 897 457 961 q 589 728 589 833 l 589 219 q 523 49 589 113 q 328 -14 457 -14 q 133 49 199 -14 q 67 219 67 113 l 67 728 z "},"Ó":{"ha":656,"x_min":67,"x_max":589,"o":"m 439 721 q 328 824 439 824 q 217 721 217 824 l 217 226 q 328 122 217 122 q 439 226 439 122 l 439 721 m 67 728 q 133 897 67 833 q 328 961 199 961 q 523 897 457 961 q 589 728 589 833 l 589 219 q 523 49 589 113 q 328 -14 457 -14 q 133 49 199 -14 q 67 219 67 113 l 67 728 m 347 1157 l 468 1157 l 375 1003 l 290 1003 l 347 1157 z "},"Ô":{"ha":656,"x_min":67,"x_max":589,"o":"m 67 219 l 67 728 q 133 897 67 833 q 328 961 199 961 q 523 897 457 961 q 589 728 589 833 l 589 219 q 523 49 589 113 q 328 -14 457 -14 q 133 49 199 -14 q 67 219 67 113 m 439 226 l 439 721 q 328 824 439 824 q 217 721 217 824 l 217 226 q 328 122 217 122 q 439 226 439 122 m 329 1083 l 276 1003 l 196 1003 l 272 1157 l 385 1157 l 461 1003 l 382 1003 l 329 1083 z "},"Õ":{"ha":656,"x_min":67,"x_max":589,"o":"m 424 1149 l 513 1149 l 513 1135 q 406 1013 510 1013 q 322 1040 369 1013 q 258 1067 275 1067 q 228 1019 228 1067 l 228 1010 l 139 1010 l 139 1021 q 247 1146 142 1146 q 332 1119 285 1146 q 394 1092 379 1092 q 424 1138 424 1092 l 424 1149 m 439 721 q 328 824 439 824 q 217 721 217 824 l 217 226 q 328 122 217 122 q 439 226 439 122 l 439 721 m 67 728 q 133 897 67 833 q 328 961 199 961 q 523 897 457 961 q 589 728 589 833 l 589 219 q 523 49 589 113 q 328 -14 457 -14 q 133 49 199 -14 q 67 219 67 113 l 67 728 z "},"Ö":{"ha":656,"x_min":67,"x_max":589,"o":"m 439 721 q 328 824 439 824 q 217 721 217 824 l 217 226 q 328 122 217 122 q 439 226 439 122 l 439 721 m 67 728 q 133 897 67 833 q 328 961 199 961 q 523 897 457 961 q 589 728 589 833 l 589 219 q 523 49 589 113 q 328 -14 457 -14 q 133 49 199 -14 q 67 219 67 113 l 67 728 m 433 1015 q 400 1015 433 1015 q 367 1078 367 1015 q 433 1142 367 1142 q 499 1078 499 1142 q 433 1015 499 1015 m 223 1015 q 190 1015 223 1015 q 157 1078 157 1015 q 223 1142 157 1142 q 289 1078 289 1142 q 223 1015 289 1015 z "},"×":{"ha":597,"x_min":50,"x_max":546,"o":"m 546 300 l 456 210 l 299 368 l 140 210 l 50 300 l 208 458 l 51 614 l 142 704 l 299 549 l 454 704 l 544 614 l 389 458 l 546 300 z "},"Ø":{"ha":656,"x_min":63,"x_max":593,"o":"m 589 728 l 589 219 q 523 49 589 113 q 328 -14 457 -14 q 169 22 231 -14 l 160 0 l 63 0 l 101 86 q 67 219 67 142 l 67 728 q 133 897 67 833 q 328 961 199 961 q 485 925 424 961 l 494 947 l 593 947 l 553 861 q 589 728 589 807 m 217 721 l 217 338 l 421 786 q 328 824 394 824 q 217 721 217 824 m 439 226 l 439 610 l 233 161 q 328 122 260 122 q 439 226 439 122 z "},"Ù":{"ha":665,"x_min":74,"x_max":593,"o":"m 199 1157 l 319 1157 l 376 1003 l 292 1003 l 199 1157 m 443 947 l 593 947 l 593 219 q 527 49 593 113 q 332 -14 461 -14 q 138 49 203 -14 q 74 219 74 113 l 74 947 l 224 947 l 224 226 q 333 122 224 122 q 443 226 443 122 l 443 947 z "},"Ú":{"ha":665,"x_min":74,"x_max":593,"o":"m 443 947 l 593 947 l 593 219 q 527 49 593 113 q 332 -14 461 -14 q 138 49 203 -14 q 74 219 74 113 l 74 947 l 224 947 l 224 226 q 333 122 224 122 q 443 226 443 122 l 443 947 m 347 1157 l 468 1157 l 375 1003 l 290 1003 l 347 1157 z "},"Û":{"ha":665,"x_min":74,"x_max":593,"o":"m 443 947 l 593 947 l 593 219 q 527 49 593 113 q 332 -14 461 -14 q 138 49 203 -14 q 74 219 74 113 l 74 947 l 224 947 l 224 226 q 333 122 224 122 q 443 226 443 122 l 443 947 m 333 1083 l 281 1003 l 200 1003 l 276 1157 l 389 1157 l 465 1003 l 386 1003 l 333 1083 z "},"Ü":{"ha":665,"x_min":74,"x_max":593,"o":"m 443 947 l 593 947 l 593 219 q 527 49 593 113 q 332 -14 461 -14 q 138 49 203 -14 q 74 219 74 113 l 74 947 l 224 947 l 224 226 q 333 122 224 122 q 443 226 443 122 l 443 947 m 437 1015 q 404 1015 437 1015 q 371 1078 371 1015 q 437 1142 371 1142 q 503 1078 503 1142 q 437 1015 503 1015 m 227 1015 q 194 1015 227 1015 q 161 1078 161 1015 q 227 1142 161 1142 q 293 1078 293 1142 q 227 1015 293 1015 z "},"Ý":{"ha":615,"x_min":3,"x_max":613,"o":"m 319 1158 l 440 1158 l 347 1004 l 263 1004 l 319 1158 m 383 0 l 232 0 l 232 307 l 3 947 l 157 947 l 229 744 q 310 469 281 589 q 392 744 347 610 l 461 947 l 613 947 l 383 307 l 383 0 z "},"Þ":{"ha":611,"x_min":94,"x_max":585,"o":"m 239 790 l 351 790 q 524 735 464 790 q 585 579 585 679 l 585 369 q 524 213 585 269 q 351 157 464 157 l 239 157 l 239 0 l 94 0 l 94 947 l 239 947 l 239 790 m 440 382 l 440 565 q 342 661 440 661 l 239 661 l 239 288 l 342 288 q 440 382 440 288 z "},"ß":{"ha":767,"x_min":81,"x_max":740,"o":"m 81 746 q 151 936 81 871 q 348 1001 221 1001 q 547 941 475 1001 q 619 774 619 881 q 547 592 619 693 q 524 535 524 558 l 524 519 q 547 468 524 493 q 627 408 571 443 q 712 334 683 372 q 740 242 740 296 l 740 200 q 478 -6 740 -6 q 319 14 403 -6 l 319 150 q 462 128 386 128 q 566 149 538 128 q 594 211 594 169 l 594 229 q 572 284 594 260 q 490 345 549 308 q 402 418 432 382 q 372 504 372 454 l 372 528 q 421 649 372 578 q 469 767 469 719 q 354 868 469 868 q 254 836 286 868 q 222 735 222 804 l 222 0 l 81 0 l 81 746 z "},"à":{"ha":599,"x_min":36,"x_max":525,"o":"m 156 1018 l 276 1018 l 333 864 l 249 864 l 156 1018 m 183 231 l 183 190 q 202 131 183 150 q 277 111 221 111 q 379 147 333 111 l 379 364 l 265 332 q 200 297 217 318 q 183 231 183 275 m 76 785 q 281 811 153 811 q 467 755 408 811 q 525 588 525 699 l 525 0 l 383 0 l 383 58 q 227 -4 326 -4 q 82 44 128 -4 q 36 192 36 93 l 36 238 q 76 368 36 319 q 207 442 117 417 l 381 489 l 381 588 q 353 656 379 635 q 240 678 328 678 q 76 649 151 678 l 76 785 z "},"á":{"ha":599,"x_min":36,"x_max":525,"o":"m 300 1018 l 421 1018 l 328 864 l 243 864 l 300 1018 m 183 231 l 183 190 q 202 131 183 150 q 277 111 221 111 q 379 147 333 111 l 379 364 l 265 332 q 200 297 217 318 q 183 231 183 275 m 76 785 q 281 811 153 811 q 467 755 408 811 q 525 588 525 699 l 525 0 l 383 0 l 383 58 q 227 -4 326 -4 q 82 44 128 -4 q 36 192 36 93 l 36 238 q 76 368 36 319 q 207 442 117 417 l 381 489 l 381 588 q 353 656 379 635 q 240 678 328 678 q 76 649 151 678 l 76 785 z "},"â":{"ha":599,"x_min":36,"x_max":525,"o":"m 76 785 q 281 811 153 811 q 467 755 408 811 q 525 588 525 699 l 525 0 l 383 0 l 383 58 q 227 -4 326 -4 q 82 44 128 -4 q 36 192 36 93 l 36 238 q 76 368 36 319 q 207 442 117 417 l 381 489 l 381 588 q 353 656 379 635 q 240 678 328 678 q 76 649 151 678 l 76 785 m 183 231 l 183 190 q 202 131 183 150 q 277 111 221 111 q 379 147 333 111 l 379 364 l 265 332 q 200 297 217 318 q 183 231 183 275 m 299 944 l 246 864 l 165 864 l 242 1018 l 354 1018 l 431 864 l 351 864 l 299 944 z "},"ã":{"ha":599,"x_min":36,"x_max":525,"o":"m 392 1010 l 481 1010 l 481 996 q 374 874 478 874 q 290 901 338 874 q 226 928 243 928 q 196 881 196 928 l 196 871 l 107 871 l 107 882 q 215 1007 110 1007 q 300 980 253 1007 q 363 953 347 953 q 392 999 392 953 l 392 1010 m 183 231 l 183 190 q 202 131 183 150 q 277 111 221 111 q 379 147 333 111 l 379 364 l 265 332 q 200 297 217 318 q 183 231 183 275 m 76 785 q 281 811 153 811 q 467 755 408 811 q 525 588 525 699 l 525 0 l 383 0 l 383 58 q 227 -4 326 -4 q 82 44 128 -4 q 36 192 36 93 l 36 238 q 76 368 36 319 q 207 442 117 417 l 381 489 l 381 588 q 353 656 379 635 q 240 678 328 678 q 76 649 151 678 l 76 785 z "},"ä":{"ha":599,"x_min":36,"x_max":525,"o":"m 397 876 q 364 876 397 876 q 331 940 331 876 q 397 1003 331 1003 q 463 940 463 1003 q 397 876 463 876 m 187 876 q 154 876 187 876 q 121 940 121 876 q 187 1003 121 1003 q 253 940 253 1003 q 187 876 253 876 m 183 231 l 183 190 q 202 131 183 150 q 277 111 221 111 q 379 147 333 111 l 379 364 l 265 332 q 200 297 217 318 q 183 231 183 275 m 76 785 q 281 811 153 811 q 467 755 408 811 q 525 588 525 699 l 525 0 l 383 0 l 383 58 q 227 -4 326 -4 q 82 44 128 -4 q 36 192 36 93 l 36 238 q 76 368 36 319 q 207 442 117 417 l 381 489 l 381 588 q 353 656 379 635 q 240 678 328 678 q 76 649 151 678 l 76 785 z "},"å":{"ha":599,"x_min":36,"x_max":525,"o":"m 335 940 q 323 972 335 960 q 290 985 311 985 q 258 972 269 985 q 246 940 246 960 q 290 894 246 894 q 335 940 335 894 m 212 865 q 198 880 212 865 q 183 940 183 894 q 212 1015 183 986 q 290 1044 240 1044 q 369 1015 340 1044 q 397 940 397 986 q 369 865 397 894 q 290 835 340 835 q 212 865 240 835 m 183 231 l 183 190 q 202 131 183 150 q 277 111 221 111 q 379 147 333 111 l 379 364 l 265 332 q 200 297 217 318 q 183 231 183 275 m 76 785 q 281 811 153 811 q 467 755 408 811 q 525 588 525 699 l 525 0 l 383 0 l 383 58 q 227 -4 326 -4 q 82 44 128 -4 q 36 192 36 93 l 36 238 q 76 368 36 319 q 207 442 117 417 l 381 489 l 381 588 q 353 656 379 635 q 240 678 328 678 q 76 649 151 678 l 76 785 z "},"æ":{"ha":906,"x_min":40,"x_max":863,"o":"m 721 596 q 622 690 721 690 q 524 596 524 690 l 524 456 l 721 456 l 721 596 m 183 231 l 183 190 q 267 111 183 111 q 382 144 333 111 l 382 365 l 265 333 q 200 297 217 319 q 183 231 183 275 m 449 760 q 631 818 517 818 q 804 759 746 818 q 863 599 863 700 l 863 338 l 524 338 l 524 226 q 558 149 524 172 q 671 125 592 125 q 840 151 750 125 l 840 17 q 638 -8 757 -8 q 451 49 519 -8 q 243 -6 381 -6 q 40 190 40 -6 l 40 238 q 79 367 40 319 q 207 442 118 415 l 379 494 l 379 596 q 353 657 379 636 q 241 678 328 678 q 76 647 154 678 l 76 783 q 274 811 157 811 q 449 760 390 811 z "},"ç":{"ha":518,"x_min":67,"x_max":479,"o":"m 313 -54 q 374 -81 347 -57 q 400 -152 400 -104 q 364 -229 400 -200 q 280 -258 328 -258 q 199 -250 232 -258 l 199 -176 q 251 -186 218 -186 q 310 -144 310 -186 q 251 -101 310 -101 l 233 -101 l 254 -3 q 67 211 67 22 l 67 592 q 318 811 67 811 q 478 792 407 811 l 478 653 q 335 672 400 672 q 244 651 271 672 q 217 582 217 631 l 217 222 q 244 152 217 174 q 338 131 271 131 q 479 153 406 131 l 479 14 q 324 -7 413 -7 l 313 -54 z "},"è":{"ha":603,"x_min":67,"x_max":547,"o":"m 67 217 l 67 599 q 127 759 67 700 q 310 818 188 818 q 490 760 432 818 q 547 599 547 701 l 547 338 l 213 338 l 213 226 q 244 149 213 174 q 356 125 276 125 q 526 151 436 125 l 526 17 q 340 -8 440 -8 q 67 217 67 -8 m 213 456 l 407 456 l 407 596 q 310 690 407 690 q 213 596 213 690 l 213 456 m 356 864 l 271 864 l 178 1018 l 299 1018 l 356 864 z "},"é":{"ha":603,"x_min":67,"x_max":547,"o":"m 67 217 l 67 599 q 127 759 67 700 q 310 818 188 818 q 490 760 432 818 q 547 599 547 701 l 547 338 l 213 338 l 213 226 q 244 149 213 174 q 356 125 276 125 q 526 151 436 125 l 526 17 q 340 -8 440 -8 q 67 217 67 -8 m 213 456 l 407 456 l 407 596 q 310 690 407 690 q 213 596 213 690 l 213 456 m 446 1018 l 353 864 l 268 864 l 325 1018 l 446 1018 z "},"ê":{"ha":603,"x_min":67,"x_max":547,"o":"m 67 217 l 67 599 q 127 759 67 700 q 310 818 188 818 q 490 760 432 818 q 547 599 547 701 l 547 338 l 213 338 l 213 226 q 244 149 213 174 q 356 125 276 125 q 526 151 436 125 l 526 17 q 340 -8 440 -8 q 67 217 67 -8 m 213 456 l 407 456 l 407 596 q 310 690 407 690 q 213 596 213 690 l 213 456 m 317 944 l 264 864 l 183 864 l 260 1018 l 372 1018 l 449 864 l 369 864 l 317 944 z "},"ë":{"ha":603,"x_min":67,"x_max":547,"o":"m 67 217 l 67 599 q 127 759 67 700 q 310 818 188 818 q 490 760 432 818 q 547 599 547 701 l 547 338 l 213 338 l 213 226 q 244 149 213 174 q 356 125 276 125 q 526 151 436 125 l 526 17 q 340 -8 440 -8 q 67 217 67 -8 m 213 456 l 407 456 l 407 596 q 310 690 407 690 q 213 596 213 690 l 213 456 m 272 940 q 272 908 272 940 q 206 876 272 876 q 140 940 140 876 q 206 1003 140 1003 q 272 940 272 1003 m 482 940 q 482 908 482 940 q 416 876 482 876 q 350 940 350 876 q 416 1003 350 1003 q 482 940 482 1003 z "},"ì":{"ha":311,"x_min":14,"x_max":231,"o":"m 14 1018 l 135 1018 l 192 864 l 107 864 l 14 1018 m 81 790 l 231 790 l 231 0 l 81 0 l 81 790 z "},"í":{"ha":311,"x_min":81,"x_max":289,"o":"m 168 1018 l 289 1018 l 196 864 l 111 864 l 168 1018 m 81 790 l 231 790 l 231 0 l 81 0 l 81 790 z "},"î":{"ha":311,"x_min":24,"x_max":289,"o":"m 81 0 l 81 790 l 231 790 l 231 0 l 81 0 m 157 944 l 104 864 l 24 864 l 100 1018 l 213 1018 l 289 864 l 210 864 l 157 944 z "},"ï":{"ha":311,"x_min":-15,"x_max":326,"o":"m 260 876 q 227 876 260 876 q 194 940 194 876 q 260 1003 194 1003 q 326 940 326 1003 q 260 876 326 876 m 51 876 q 18 876 51 876 q -15 940 -15 876 q 51 1003 -15 1003 q 117 940 117 1003 q 51 876 117 876 m 81 790 l 231 790 l 231 0 l 81 0 l 81 790 z "},"ð":{"ha":629,"x_min":74,"x_max":558,"o":"m 558 428 l 558 213 q 497 49 558 108 q 315 -10 436 -10 q 134 49 194 -10 q 74 211 74 107 l 74 424 q 276 631 74 631 q 392 583 350 631 q 314 764 368 671 l 164 696 l 164 781 l 271 829 q 175 947 239 876 l 351 947 q 399 889 371 926 l 538 953 l 538 867 l 442 822 q 558 428 558 626 m 414 215 l 414 485 q 324 514 385 514 q 241 491 264 514 q 218 419 218 468 l 218 217 q 316 121 218 121 q 414 215 414 121 z "},"ñ":{"ha":635,"x_min":81,"x_max":561,"o":"m 418 1010 l 507 1010 l 507 996 q 400 874 504 874 q 317 901 364 874 q 253 928 269 928 q 222 881 222 928 l 222 871 l 133 871 l 133 882 q 242 1007 136 1007 q 326 980 279 1007 q 389 953 374 953 q 418 999 418 953 l 418 1010 m 224 768 q 387 807 310 807 q 513 761 464 807 q 561 628 561 715 l 561 0 l 408 0 l 408 599 q 338 668 408 668 q 231 640 286 668 l 231 0 l 81 0 l 81 804 l 224 804 l 224 768 z "},"ò":{"ha":619,"x_min":67,"x_max":553,"o":"m 182 1018 l 303 1018 l 360 864 l 275 864 l 182 1018 m 404 594 q 309 689 404 689 q 214 594 214 689 l 214 210 q 309 115 214 115 q 404 210 404 115 l 404 594 m 67 599 q 127 759 67 700 q 310 818 188 818 q 492 759 432 818 q 553 599 553 700 l 553 206 q 492 45 553 104 q 310 -14 432 -14 q 127 45 188 -14 q 67 206 67 104 l 67 599 z "},"ó":{"ha":619,"x_min":67,"x_max":553,"o":"m 404 594 q 309 689 404 689 q 214 594 214 689 l 214 210 q 309 115 214 115 q 404 210 404 115 l 404 594 m 67 599 q 127 759 67 700 q 310 818 188 818 q 492 759 432 818 q 553 599 553 700 l 553 206 q 492 45 553 104 q 310 -14 432 -14 q 127 45 188 -14 q 67 206 67 104 l 67 599 m 329 1018 l 450 1018 l 357 864 l 272 864 l 329 1018 z "},"ô":{"ha":619,"x_min":67,"x_max":553,"o":"m 67 206 l 67 599 q 127 759 67 700 q 310 818 188 818 q 492 759 432 818 q 553 599 553 700 l 553 206 q 492 45 553 104 q 310 -14 432 -14 q 127 45 188 -14 q 67 206 67 104 m 404 210 l 404 594 q 309 689 404 689 q 214 594 214 689 l 214 210 q 309 115 214 115 q 404 210 404 115 m 314 944 l 261 864 l 181 864 l 257 1018 l 369 1018 l 446 864 l 367 864 l 314 944 z "},"õ":{"ha":619,"x_min":67,"x_max":553,"o":"m 411 1010 l 500 1010 l 500 996 q 393 874 497 874 q 310 901 357 874 q 246 928 263 928 q 215 881 215 928 l 215 871 l 126 871 l 126 882 q 235 1007 129 1007 q 319 980 272 1007 q 382 953 367 953 q 411 999 411 953 l 411 1010 m 404 594 q 309 689 404 689 q 214 594 214 689 l 214 210 q 309 115 214 115 q 404 210 404 115 l 404 594 m 67 599 q 127 759 67 700 q 310 818 188 818 q 492 759 432 818 q 553 599 553 700 l 553 206 q 492 45 553 104 q 310 -14 432 -14 q 127 45 188 -14 q 67 206 67 104 l 67 599 z "},"ö":{"ha":619,"x_min":67,"x_max":553,"o":"m 404 594 q 309 689 404 689 q 214 594 214 689 l 214 210 q 309 115 214 115 q 404 210 404 115 l 404 594 m 67 599 q 127 759 67 700 q 310 818 188 818 q 492 759 432 818 q 553 599 553 700 l 553 206 q 492 45 553 104 q 310 -14 432 -14 q 127 45 188 -14 q 67 206 67 104 l 67 599 m 422 876 q 389 876 422 876 q 356 940 356 876 q 422 1003 356 1003 q 488 940 488 1003 q 422 876 488 876 m 212 876 q 179 876 212 876 q 146 940 146 876 q 212 1003 146 1003 q 278 940 278 1003 q 212 876 278 876 z "},"÷":{"ha":647,"x_min":57,"x_max":589,"o":"m 324 613 q 284 613 324 613 q 244 692 244 613 q 324 771 244 771 q 404 692 404 771 q 324 613 404 613 m 324 136 q 284 136 324 136 q 244 215 244 136 q 324 294 244 294 q 404 215 404 294 q 324 136 404 136 m 57 518 l 589 518 l 589 390 l 57 390 l 57 518 z "},"ø":{"ha":619,"x_min":56,"x_max":569,"o":"m 553 599 l 553 206 q 492 45 553 104 q 321 -14 432 -14 q 149 28 210 -14 l 133 0 l 56 0 l 99 79 q 67 206 67 129 l 67 599 q 127 759 67 700 q 300 818 188 818 q 475 774 413 818 l 492 804 l 569 804 l 524 719 q 553 599 553 669 m 214 594 l 214 292 l 399 633 q 310 689 381 689 q 214 594 214 689 m 404 210 l 404 500 l 222 164 q 310 115 242 115 q 404 210 404 115 z "},"ù":{"ha":638,"x_min":74,"x_max":557,"o":"m 172 1018 l 293 1018 l 350 864 l 265 864 l 172 1018 m 407 804 l 557 804 l 557 0 l 414 0 l 414 38 q 256 -1 343 -1 q 122 48 169 -1 q 74 189 74 97 l 74 804 l 225 804 l 225 214 q 303 133 225 133 q 407 164 346 133 l 407 804 z "},"ú":{"ha":638,"x_min":74,"x_max":557,"o":"m 407 804 l 557 804 l 557 0 l 414 0 l 414 38 q 256 -1 343 -1 q 122 48 169 -1 q 74 189 74 97 l 74 804 l 225 804 l 225 214 q 303 133 225 133 q 407 164 346 133 l 407 804 m 332 1018 l 453 1018 l 360 864 l 275 864 l 332 1018 z "},"û":{"ha":638,"x_min":74,"x_max":557,"o":"m 407 804 l 557 804 l 557 0 l 414 0 l 414 38 q 256 -1 343 -1 q 122 48 169 -1 q 74 189 74 97 l 74 804 l 225 804 l 225 214 q 303 133 225 133 q 407 164 346 133 l 407 804 m 319 944 l 267 864 l 186 864 l 263 1018 l 375 1018 l 451 864 l 372 864 l 319 944 z "},"ü":{"ha":638,"x_min":74,"x_max":557,"o":"m 407 804 l 557 804 l 557 0 l 414 0 l 414 38 q 256 -1 343 -1 q 122 48 169 -1 q 74 189 74 97 l 74 804 l 225 804 l 225 214 q 303 133 225 133 q 407 164 346 133 l 407 804 m 422 876 q 389 876 422 876 q 356 940 356 876 q 422 1003 356 1003 q 488 940 488 1003 q 422 876 488 876 m 212 876 q 179 876 212 876 q 146 940 146 876 q 212 1003 146 1003 q 278 940 278 1003 q 212 876 278 876 z "},"ý":{"ha":578,"x_min":19,"x_max":558,"o":"m 297 1018 l 418 1018 l 325 864 l 240 864 l 297 1018 m 411 804 l 558 804 l 351 -207 l 207 -207 l 247 0 l 189 0 l 19 804 l 169 804 l 236 476 q 290 114 272 288 q 346 475 308 281 l 411 804 z "},"þ":{"ha":638,"x_min":81,"x_max":565,"o":"m 413 600 q 339 669 413 669 q 231 642 286 669 l 231 135 l 319 135 q 413 222 413 135 l 413 600 m 81 1018 l 231 1018 l 231 771 q 385 807 303 807 q 516 761 467 807 q 565 628 565 715 l 565 206 q 508 53 565 106 q 357 0 451 0 l 231 0 l 231 -231 l 81 -231 l 81 1018 z "},"ÿ":{"ha":578,"x_min":19,"x_max":558,"o":"m 411 804 l 558 804 l 351 -207 l 207 -207 l 247 0 l 189 0 l 19 804 l 169 804 l 236 476 q 290 114 272 288 q 346 475 308 281 l 411 804 m 392 876 q 359 876 392 876 q 326 940 326 876 q 392 1003 326 1003 q 458 940 458 1003 q 392 876 458 876 m 183 876 q 150 876 183 876 q 117 940 117 876 q 183 1003 117 1003 q 249 940 249 1003 q 183 876 249 876 z "},"Ā":{"ha":642,"x_min":15,"x_max":625,"o":"m 481 0 l 432 243 l 208 243 l 161 0 l 15 0 l 217 947 l 426 947 l 625 0 l 481 0 m 233 371 l 406 371 l 318 810 l 233 371 m 486 1122 l 486 1038 l 149 1038 l 149 1122 l 486 1122 z "},"ā":{"ha":599,"x_min":36,"x_max":525,"o":"m 129 983 l 467 983 l 467 899 l 129 899 l 129 983 m 183 231 l 183 190 q 202 131 183 150 q 277 111 221 111 q 379 147 333 111 l 379 364 l 265 332 q 200 297 217 318 q 183 231 183 275 m 76 785 q 281 811 153 811 q 467 755 408 811 q 525 588 525 699 l 525 0 l 383 0 l 383 58 q 227 -4 326 -4 q 82 44 128 -4 q 36 192 36 93 l 36 238 q 76 368 36 319 q 207 442 117 417 l 381 489 l 381 588 q 353 656 379 635 q 240 678 328 678 q 76 649 151 678 l 76 785 z "},"Ă":{"ha":642,"x_min":15,"x_max":625,"o":"m 481 0 l 432 243 l 208 243 l 161 0 l 15 0 l 217 947 l 426 947 l 625 0 l 481 0 m 233 371 l 406 371 l 318 810 l 233 371 m 433 1046 q 411 1024 433 1046 q 318 1003 389 1003 q 203 1046 247 1003 q 158 1157 160 1089 l 246 1157 q 266 1101 247 1122 q 318 1081 285 1081 q 370 1101 351 1081 q 390 1157 389 1122 l 478 1157 q 433 1046 476 1089 z "},"ă":{"ha":599,"x_min":36,"x_max":525,"o":"m 409 907 q 387 885 409 907 q 294 864 365 864 q 180 907 224 864 q 135 1018 136 950 l 222 1018 q 242 963 224 983 q 294 942 261 942 q 347 963 328 942 q 367 1018 365 983 l 454 1018 q 409 907 453 950 m 183 231 l 183 190 q 202 131 183 150 q 277 111 221 111 q 379 147 333 111 l 379 364 l 265 332 q 200 297 217 318 q 183 231 183 275 m 76 785 q 281 811 153 811 q 467 755 408 811 q 525 588 525 699 l 525 0 l 383 0 l 383 58 q 227 -4 326 -4 q 82 44 128 -4 q 36 192 36 93 l 36 238 q 76 368 36 319 q 207 442 117 417 l 381 489 l 381 588 q 353 656 379 635 q 240 678 328 678 q 76 649 151 678 l 76 785 z "},"Ą":{"ha":642,"x_min":15,"x_max":625,"o":"m 564 -131 q 610 -181 564 -181 l 625 -181 l 625 -260 l 599 -260 q 476 -158 476 -260 q 564 0 476 -71 l 481 0 l 432 243 l 208 243 l 161 0 l 15 0 l 217 947 l 426 947 l 625 0 q 564 -131 564 -54 m 233 371 l 406 371 l 318 810 l 233 371 z "},"ą":{"ha":599,"x_min":36,"x_max":525,"o":"m 76 785 q 281 811 153 811 q 467 755 408 811 q 525 588 525 699 l 525 0 l 524 0 q 463 -131 463 -54 q 508 -181 463 -181 l 524 -181 l 524 -260 l 497 -260 q 375 -158 375 -260 q 463 0 375 -71 l 383 0 l 383 58 q 227 -4 326 -4 q 82 44 128 -4 q 36 192 36 93 l 36 238 q 76 368 36 319 q 207 442 117 417 l 381 489 l 381 588 q 353 656 379 635 q 240 678 328 678 q 76 649 151 678 l 76 785 m 183 231 l 183 190 q 202 131 183 150 q 277 111 221 111 q 379 147 333 111 l 379 364 l 265 332 q 200 297 217 318 q 183 231 183 275 z "},"Ć":{"ha":558,"x_min":67,"x_max":515,"o":"m 67 739 q 135 898 67 842 q 344 954 204 954 q 511 933 436 954 l 511 794 q 356 818 438 818 q 247 795 275 818 q 218 726 218 772 l 218 219 q 247 152 218 175 q 358 129 275 129 q 515 150 442 129 l 515 14 q 343 -7 440 -7 q 135 49 203 -7 q 67 207 67 104 l 67 739 m 342 1157 l 463 1157 l 369 1003 l 285 1003 l 342 1157 z "},"ć":{"ha":518,"x_min":67,"x_max":479,"o":"m 67 592 q 318 811 67 811 q 478 792 407 811 l 478 653 q 335 672 400 672 q 244 651 271 672 q 217 582 217 631 l 217 222 q 244 152 217 174 q 338 131 271 131 q 479 153 406 131 l 479 14 q 318 -7 410 -7 q 67 211 67 -7 l 67 592 m 329 1018 l 450 1018 l 357 864 l 272 864 l 329 1018 z "},"Č":{"ha":558,"x_min":67,"x_max":515,"o":"m 218 726 l 218 219 q 247 152 218 175 q 358 129 275 129 q 515 150 442 129 l 515 14 q 343 -7 440 -7 q 135 49 203 -7 q 67 207 67 104 l 67 739 q 135 898 67 842 q 344 954 204 954 q 511 933 436 954 l 511 794 q 356 818 438 818 q 247 795 275 818 q 218 726 218 772 m 269 1003 l 193 1157 l 274 1157 l 326 1076 l 379 1157 l 458 1157 l 382 1003 l 269 1003 z "},"č":{"ha":518,"x_min":67,"x_max":479,"o":"m 217 582 l 217 222 q 244 152 217 174 q 338 131 271 131 q 479 153 406 131 l 479 14 q 318 -7 410 -7 q 67 211 67 -7 l 67 592 q 318 811 67 811 q 478 792 407 811 l 478 653 q 335 672 400 672 q 244 651 271 672 q 217 582 217 631 m 256 864 l 179 1018 l 260 1018 l 313 938 l 365 1018 l 444 1018 l 368 864 l 256 864 z "},"Ď":{"ha":664,"x_min":81,"x_max":599,"o":"m 81 947 l 368 947 q 539 892 479 947 q 599 735 599 836 l 599 219 q 544 58 599 115 q 376 0 489 0 l 81 0 l 81 947 m 449 229 l 449 731 q 351 821 449 821 l 231 821 l 231 131 l 351 131 q 449 229 449 131 m 263 1003 l 186 1157 l 267 1157 l 319 1076 l 372 1157 l 451 1157 l 375 1003 l 263 1003 z "},"ď":{"ha":653,"x_min":67,"x_max":735,"o":"m 692 1017 q 735 972 735 1017 q 663 826 735 928 l 606 826 l 642 1017 l 692 1017 m 400 669 l 318 669 q 217 572 217 669 l 217 210 q 294 132 217 132 q 400 165 361 132 l 400 669 m 399 1018 l 550 1018 l 550 0 l 404 0 l 404 51 q 252 -6 343 -6 q 114 45 161 -6 q 67 189 67 96 l 67 576 q 127 744 67 683 q 301 804 188 804 l 399 804 l 399 1018 z "},"Đ":{"ha":669,"x_min":1,"x_max":607,"o":"m 89 947 l 376 947 q 547 892 488 947 q 607 735 607 836 l 607 219 q 552 58 607 115 q 385 0 497 0 l 89 0 l 89 406 l 1 406 l 1 532 l 89 532 l 89 947 m 457 229 l 457 731 q 360 821 457 821 l 239 821 l 239 532 l 349 532 l 349 406 l 239 406 l 239 131 l 360 131 q 457 229 457 131 z "},"đ":{"ha":633,"x_min":69,"x_max":608,"o":"m 608 953 l 608 876 l 553 876 l 553 0 l 407 0 l 407 51 q 255 -6 346 -6 q 117 45 164 -6 q 69 189 69 96 l 69 576 q 130 744 69 683 q 304 804 190 804 l 401 804 l 401 876 l 226 876 l 226 953 l 401 953 l 401 1018 l 553 1018 l 553 953 l 608 953 m 403 669 l 321 669 q 219 572 219 669 l 219 210 q 297 132 219 132 q 403 165 364 132 l 403 669 z "},"Ē":{"ha":567,"x_min":81,"x_max":524,"o":"m 131 1122 l 468 1122 l 468 1038 l 131 1038 l 131 1122 m 81 947 l 524 947 l 524 815 l 231 815 l 231 544 l 485 544 l 485 413 l 231 413 l 231 131 l 524 131 l 524 0 l 81 0 l 81 947 z "},"ē":{"ha":603,"x_min":67,"x_max":547,"o":"m 67 217 l 67 599 q 127 759 67 700 q 310 818 188 818 q 490 760 432 818 q 547 599 547 701 l 547 338 l 213 338 l 213 226 q 244 149 213 174 q 356 125 276 125 q 526 151 436 125 l 526 17 q 340 -8 440 -8 q 67 217 67 -8 m 213 456 l 407 456 l 407 596 q 310 690 407 690 q 213 596 213 690 l 213 456 m 476 983 l 476 899 l 139 899 l 139 983 l 476 983 z "},"Ė":{"ha":567,"x_min":81,"x_max":524,"o":"m 306 1032 q 273 1032 306 1032 q 240 1095 240 1032 q 306 1158 240 1158 q 372 1095 372 1158 q 306 1032 372 1032 m 81 947 l 524 947 l 524 815 l 231 815 l 231 544 l 485 544 l 485 413 l 231 413 l 231 131 l 524 131 l 524 0 l 81 0 l 81 947 z "},"ė":{"ha":603,"x_min":67,"x_max":547,"o":"m 67 217 l 67 599 q 127 759 67 700 q 310 818 188 818 q 490 760 432 818 q 547 599 547 701 l 547 338 l 213 338 l 213 226 q 244 149 213 174 q 356 125 276 125 q 526 151 436 125 l 526 17 q 340 -8 440 -8 q 67 217 67 -8 m 213 456 l 407 456 l 407 596 q 310 690 407 690 q 213 596 213 690 l 213 456 m 378 956 q 378 925 378 956 q 312 893 378 893 q 246 956 246 893 q 312 1019 246 1019 q 378 956 378 1019 z "},"Ę":{"ha":567,"x_min":81,"x_max":524,"o":"m 524 815 l 231 815 l 231 544 l 485 544 l 485 413 l 231 413 l 231 131 l 524 131 l 524 0 l 522 0 q 461 -131 461 -54 q 507 -181 461 -181 l 522 -181 l 522 -260 l 496 -260 q 374 -158 374 -260 q 461 0 374 -71 l 81 0 l 81 947 l 524 947 l 524 815 z "},"ę":{"ha":603,"x_min":67,"x_max":547,"o":"m 67 217 l 67 599 q 127 759 67 700 q 310 818 188 818 q 490 760 432 818 q 547 599 547 701 l 547 338 l 213 338 l 213 226 q 244 149 213 174 q 356 125 276 125 q 526 151 436 125 l 526 17 l 522 15 q 464 -112 464 -39 q 510 -162 464 -162 l 525 -162 l 525 -242 l 499 -242 q 376 -140 376 -242 q 442 -3 376 -65 q 340 -8 386 -8 q 67 217 67 -8 m 213 456 l 407 456 l 407 596 q 310 690 407 690 q 213 596 213 690 l 213 456 z "},"Ě":{"ha":567,"x_min":81,"x_max":524,"o":"m 524 815 l 231 815 l 231 544 l 485 544 l 485 413 l 231 413 l 231 131 l 524 131 l 524 0 l 81 0 l 81 947 l 524 947 l 524 815 m 243 1003 l 167 1157 l 247 1157 l 300 1076 l 353 1157 l 432 1157 l 356 1003 l 243 1003 z "},"ě":{"ha":603,"x_min":67,"x_max":547,"o":"m 67 217 l 67 599 q 127 759 67 700 q 310 818 188 818 q 490 760 432 818 q 547 599 547 701 l 547 338 l 213 338 l 213 226 q 244 149 213 174 q 356 125 276 125 q 526 151 436 125 l 526 17 q 340 -8 440 -8 q 67 217 67 -8 m 213 456 l 407 456 l 407 596 q 310 690 407 690 q 213 596 213 690 l 213 456 m 256 864 l 179 1018 l 260 1018 l 313 938 l 365 1018 l 444 1018 l 368 864 l 256 864 z "},"Ğ":{"ha":636,"x_min":67,"x_max":571,"o":"m 447 1046 q 425 1024 447 1046 q 332 1003 403 1003 q 217 1046 261 1003 q 172 1157 174 1089 l 260 1157 q 280 1101 261 1122 q 332 1081 299 1081 q 384 1101 365 1081 q 404 1157 403 1122 l 492 1157 q 447 1046 490 1089 m 67 733 q 140 895 67 836 q 356 954 213 954 q 536 929 461 954 l 536 786 q 357 815 458 815 q 218 718 218 815 l 218 219 q 333 128 218 128 q 424 149 386 128 l 424 486 l 571 486 l 571 50 q 338 -7 469 -7 q 136 47 206 -7 q 67 207 67 101 l 67 733 z "},"ğ":{"ha":626,"x_min":39,"x_max":608,"o":"m 608 743 l 560 743 q 513 735 533 743 q 549 608 549 683 l 549 493 q 488 339 549 394 q 306 282 428 283 q 247 229 247 282 q 263 192 247 203 q 321 181 279 181 l 400 181 q 551 140 503 181 q 600 13 600 99 l 600 -12 q 329 -208 600 -208 l 275 -208 q 39 -156 117 -208 l 39 -17 q 272 -81 135 -81 l 313 -81 q 458 -11 458 -81 l 458 0 q 442 43 458 29 q 382 57 426 57 l 299 57 q 114 178 114 57 l 114 200 q 133 263 114 238 q 186 296 153 289 q 47 493 47 339 l 47 608 q 109 763 47 708 q 297 818 171 818 q 450 788 389 818 q 586 881 479 881 l 608 881 l 608 743 m 399 493 l 399 607 q 298 696 399 696 q 197 607 197 696 l 197 493 q 298 406 197 406 q 399 493 399 406 m 410 907 q 389 885 410 907 q 296 864 367 864 q 181 907 225 864 q 136 1018 138 950 l 224 1018 q 244 963 225 983 q 296 942 263 942 q 348 963 329 942 q 368 1018 367 983 l 456 1018 q 410 907 454 950 z "},"Ģ":{"ha":636,"x_min":67,"x_max":571,"o":"m 356 -85 q 399 -129 399 -85 q 326 -275 399 -174 l 269 -275 l 306 -85 l 356 -85 m 67 733 q 140 895 67 836 q 356 954 213 954 q 536 929 461 954 l 536 786 q 357 815 458 815 q 218 718 218 815 l 218 219 q 333 128 218 128 q 424 149 386 128 l 424 486 l 571 486 l 571 50 q 338 -7 469 -7 q 136 47 206 -7 q 67 207 67 101 l 67 733 z "},"ģ":{"ha":626,"x_min":39,"x_max":608,"o":"m 608 743 l 560 743 q 513 735 533 743 q 549 608 549 683 l 549 493 q 488 339 549 394 q 306 282 428 283 q 247 229 247 282 q 263 192 247 203 q 321 181 279 181 l 400 181 q 551 140 503 181 q 600 13 600 99 l 600 -12 q 329 -208 600 -208 l 275 -208 q 39 -156 117 -208 l 39 -17 q 272 -81 135 -81 l 313 -81 q 458 -11 458 -81 l 458 0 q 442 43 458 29 q 382 57 426 57 l 299 57 q 114 178 114 57 l 114 200 q 133 263 114 238 q 186 296 153 289 q 47 493 47 339 l 47 608 q 109 763 47 708 q 297 818 171 818 q 450 788 389 818 q 586 881 479 881 l 608 881 l 608 743 m 399 493 l 399 607 q 298 696 399 696 q 197 607 197 696 l 197 493 q 298 406 197 406 q 399 493 399 406 m 289 864 q 246 904 246 864 q 271 977 246 931 q 319 1054 296 1024 l 375 1054 l 340 864 l 289 864 z "},"Ī":{"ha":311,"x_min":-10,"x_max":328,"o":"m -10 1122 l 328 1122 l 328 1038 l -10 1038 l -10 1122 m 81 947 l 232 947 l 232 0 l 81 0 l 81 947 z "},"ī":{"ha":311,"x_min":-14,"x_max":324,"o":"m -14 983 l 324 983 l 324 899 l -14 899 l -14 983 m 81 790 l 231 790 l 231 0 l 81 0 l 81 790 z "},"Į":{"ha":311,"x_min":81,"x_max":232,"o":"m 81 947 l 232 947 l 232 0 l 231 0 q 169 -131 169 -54 q 215 -181 169 -181 l 231 -181 l 231 -260 l 204 -260 q 82 -158 82 -260 q 169 0 82 -71 l 81 0 l 81 947 z "},"į":{"ha":311,"x_min":69,"x_max":242,"o":"m 81 0 l 81 790 l 231 790 l 231 0 q 169 -131 169 -54 q 215 -181 169 -181 l 231 -181 l 231 -260 l 204 -260 q 82 -158 82 -260 q 169 0 82 -71 l 81 0 m 242 947 q 242 905 242 947 q 156 863 242 863 q 69 947 69 863 q 156 1032 69 1032 q 242 947 242 1032 z "},"İ":{"ha":311,"x_min":81,"x_max":232,"o":"m 153 1032 q 120 1032 153 1032 q 88 1095 88 1032 q 153 1158 88 1158 q 219 1095 219 1158 q 153 1032 219 1032 m 81 947 l 232 947 l 232 0 l 81 0 l 81 947 z "},"ı":{"ha":311,"x_min":81,"x_max":231,"o":"m 81 790 l 231 790 l 231 0 l 81 0 l 81 790 z "},"Ķ":{"ha":636,"x_min":81,"x_max":621,"o":"m 347 -85 q 390 -125 390 -85 q 365 -199 390 -151 q 318 -275 340 -246 l 261 -275 l 297 -85 l 347 -85 m 81 947 l 231 947 l 231 0 l 81 0 l 81 947 m 446 947 l 607 947 l 419 482 l 621 0 l 453 0 l 263 479 l 446 947 z "},"ķ":{"ha":579,"x_min":81,"x_max":564,"o":"m 308 -85 q 351 -125 351 -85 q 326 -199 351 -151 q 279 -275 301 -246 l 222 -275 l 258 -85 l 308 -85 m 81 1018 l 226 1018 l 226 0 l 81 0 l 81 1018 m 394 804 l 547 804 l 399 421 l 564 0 l 403 0 l 249 425 l 394 804 z "},"Ĺ":{"ha":510,"x_min":81,"x_max":503,"o":"m 81 947 l 232 947 l 232 128 l 503 128 l 503 0 l 81 0 l 81 947 m 165 1157 l 286 1157 l 193 1003 l 108 1003 l 165 1157 z "},"ĺ":{"ha":311,"x_min":81,"x_max":289,"o":"m 81 1018 l 231 1018 l 231 0 l 81 0 l 81 1018 m 168 1226 l 289 1226 l 196 1072 l 111 1072 l 168 1226 z "},"Ļ":{"ha":510,"x_min":81,"x_max":503,"o":"m 292 -85 q 335 -125 335 -85 q 310 -199 335 -151 q 263 -275 285 -246 l 206 -275 l 242 -85 l 292 -85 m 81 947 l 232 947 l 232 128 l 503 128 l 503 0 l 81 0 l 81 947 z "},"ļ":{"ha":311,"x_min":76,"x_max":231,"o":"m 163 -85 q 206 -125 206 -85 q 181 -199 206 -151 q 133 -275 156 -246 l 76 -275 l 113 -85 l 163 -85 m 81 1018 l 231 1018 l 231 0 l 81 0 l 81 1018 z "},"Ľ":{"ha":510,"x_min":19,"x_max":503,"o":"m 232 128 l 503 128 l 503 0 l 81 0 l 81 947 l 232 947 l 232 128 m 96 1003 l 19 1157 l 100 1157 l 153 1076 l 206 1157 l 285 1157 l 208 1003 l 96 1003 z "},"ľ":{"ha":311,"x_min":81,"x_max":414,"o":"m 371 1017 q 414 972 414 1017 q 342 826 414 928 l 285 826 l 321 1017 l 371 1017 m 81 1018 l 231 1018 l 231 0 l 81 0 l 81 1018 z "},"Ł":{"ha":511,"x_min":11,"x_max":511,"o":"m 240 128 l 511 128 l 511 0 l 89 0 l 89 378 l 11 342 l 11 449 l 89 485 l 89 947 l 240 947 l 240 553 l 367 611 l 367 506 l 240 447 l 240 128 z "},"ł":{"ha":314,"x_min":11,"x_max":303,"o":"m 232 0 l 82 0 l 82 575 l 11 542 l 11 649 l 82 682 l 82 1018 l 232 1018 l 232 754 l 303 788 l 303 681 l 232 647 l 232 0 z "},"Ń":{"ha":715,"x_min":81,"x_max":635,"o":"m 486 947 l 635 947 l 635 0 l 481 0 l 318 411 q 245 610 281 508 q 207 718 210 711 q 211 661 207 707 q 228 368 228 507 l 228 0 l 81 0 l 81 947 l 238 947 q 508 232 457 386 q 503 290 508 242 q 486 585 486 436 l 486 947 m 363 1157 l 483 1157 l 390 1003 l 306 1003 l 363 1157 z "},"ń":{"ha":635,"x_min":81,"x_max":561,"o":"m 224 768 q 387 807 310 807 q 513 761 464 807 q 561 628 561 715 l 561 0 l 408 0 l 408 599 q 338 668 408 668 q 231 640 286 668 l 231 0 l 81 0 l 81 804 l 224 804 l 224 768 m 322 1018 l 443 1018 l 350 864 l 265 864 l 322 1018 z "},"Ņ":{"ha":715,"x_min":81,"x_max":635,"o":"m 354 -85 q 397 -129 397 -85 q 325 -275 397 -174 l 268 -275 l 304 -85 l 354 -85 m 486 947 l 635 947 l 635 0 l 481 0 l 318 411 q 245 610 281 508 q 207 718 210 711 q 211 661 207 707 q 228 368 228 507 l 228 0 l 81 0 l 81 947 l 238 947 q 508 232 457 386 q 503 290 508 242 q 486 585 486 436 l 486 947 z "},"ņ":{"ha":635,"x_min":81,"x_max":561,"o":"m 322 -85 q 365 -125 365 -85 q 340 -199 365 -151 q 293 -275 315 -246 l 236 -275 l 272 -85 l 322 -85 m 224 768 q 387 807 310 807 q 513 761 464 807 q 561 628 561 715 l 561 0 l 408 0 l 408 599 q 338 668 408 668 q 231 640 286 668 l 231 0 l 81 0 l 81 804 l 224 804 l 224 768 z "},"Ň":{"ha":715,"x_min":81,"x_max":635,"o":"m 486 947 l 635 947 l 635 0 l 481 0 l 318 411 q 245 610 281 508 q 207 718 210 711 q 211 661 207 707 q 228 368 228 507 l 228 0 l 81 0 l 81 947 l 238 947 q 508 232 457 386 q 503 290 508 242 q 486 585 486 436 l 486 947 m 296 1003 l 219 1157 l 300 1157 l 353 1076 l 406 1157 l 485 1157 l 408 1003 l 296 1003 z "},"ň":{"ha":635,"x_min":81,"x_max":561,"o":"m 224 804 l 224 768 q 387 807 310 807 q 513 761 464 807 q 561 628 561 715 l 561 0 l 408 0 l 408 599 q 338 668 408 668 q 231 640 286 668 l 231 0 l 81 0 l 81 804 l 224 804 m 254 864 l 178 1018 l 258 1018 l 311 938 l 364 1018 l 443 1018 l 367 864 l 254 864 z "},"Ō":{"ha":656,"x_min":67,"x_max":589,"o":"m 439 721 q 328 824 439 824 q 217 721 217 824 l 217 226 q 328 122 217 122 q 439 226 439 122 l 439 721 m 67 728 q 133 897 67 833 q 328 961 199 961 q 523 897 457 961 q 589 728 589 833 l 589 219 q 523 49 589 113 q 328 -14 457 -14 q 133 49 199 -14 q 67 219 67 113 l 67 728 m 160 1122 l 497 1122 l 497 1038 l 160 1038 l 160 1122 z "},"ō":{"ha":619,"x_min":67,"x_max":553,"o":"m 404 594 q 309 689 404 689 q 214 594 214 689 l 214 210 q 309 115 214 115 q 404 210 404 115 l 404 594 m 67 599 q 127 759 67 700 q 310 818 188 818 q 492 759 432 818 q 553 599 553 700 l 553 206 q 492 45 553 104 q 310 -14 432 -14 q 127 45 188 -14 q 67 206 67 104 l 67 599 m 139 983 l 476 983 l 476 899 l 139 899 l 139 983 z "},"Ő":{"ha":656,"x_min":67,"x_max":589,"o":"m 439 721 q 328 824 439 824 q 217 721 217 824 l 217 226 q 328 122 217 122 q 439 226 439 122 l 439 721 m 67 728 q 133 897 67 833 q 328 961 199 961 q 523 897 457 961 q 589 728 589 833 l 589 219 q 523 49 589 113 q 328 -14 457 -14 q 133 49 199 -14 q 67 219 67 113 l 67 728 m 274 1157 l 386 1157 l 289 1003 l 213 1003 l 274 1157 m 415 1157 l 528 1157 l 431 1003 l 354 1003 l 415 1157 z "},"ő":{"ha":619,"x_min":67,"x_max":553,"o":"m 404 594 q 309 689 404 689 q 214 594 214 689 l 214 210 q 309 115 214 115 q 404 210 404 115 l 404 594 m 67 599 q 127 759 67 700 q 310 818 188 818 q 492 759 432 818 q 553 599 553 700 l 553 206 q 492 45 553 104 q 310 -14 432 -14 q 127 45 188 -14 q 67 206 67 104 l 67 599 m 264 1018 l 376 1018 l 279 864 l 203 864 l 264 1018 m 406 1018 l 518 1018 l 421 864 l 344 864 l 406 1018 z "},"Œ":{"ha":958,"x_min":94,"x_max":918,"o":"m 918 815 l 625 815 l 625 544 l 879 544 l 879 413 l 625 413 l 625 131 l 918 131 l 918 0 l 317 0 q 94 219 94 0 l 94 735 q 153 892 94 836 q 324 947 213 947 l 918 947 l 918 815 m 340 131 l 475 131 l 475 821 l 340 821 q 244 731 244 821 l 244 229 q 340 131 244 131 z "},"œ":{"ha":964,"x_min":72,"x_max":894,"o":"m 72 206 l 72 599 q 133 759 72 700 q 308 818 193 818 q 486 769 424 818 q 664 818 549 818 q 837 760 779 818 q 894 599 894 701 l 894 338 l 560 338 l 560 226 q 592 149 560 174 q 703 125 624 125 q 874 151 783 125 l 874 17 q 674 -8 788 -8 q 492 40 560 -8 q 312 -14 431 -14 q 133 45 193 -14 q 72 206 72 104 m 411 210 l 411 594 q 316 689 411 689 q 221 594 221 689 l 221 210 q 316 115 221 115 q 411 210 411 115 m 560 456 l 754 456 l 754 596 q 657 690 754 690 q 560 596 560 690 l 560 456 z "},"Ŕ":{"ha":651,"x_min":81,"x_max":614,"o":"m 231 363 l 231 0 l 81 0 l 81 947 l 347 947 q 520 892 460 947 q 581 736 581 836 l 581 579 q 464 379 581 421 l 614 0 l 449 0 l 315 363 l 231 363 m 231 818 l 231 485 l 335 485 q 408 508 386 485 q 431 582 431 532 l 431 725 q 335 818 431 818 l 231 818 m 449 1157 l 356 1003 l 271 1003 l 328 1157 l 449 1157 z "},"ŕ":{"ha":418,"x_min":81,"x_max":411,"o":"m 382 808 l 411 808 l 411 667 l 372 667 q 231 621 303 667 l 231 0 l 81 0 l 81 804 l 224 804 l 224 746 q 240 757 226 749 q 256 767 253 765 q 269 776 258 769 q 284 785 281 783 q 297 791 288 786 q 313 797 307 796 q 327 802 318 799 q 344 806 336 806 q 382 808 367 808 m 272 1018 l 393 1018 l 300 864 l 215 864 l 272 1018 z "},"Ŗ":{"ha":651,"x_min":81,"x_max":614,"o":"m 231 363 l 231 0 l 81 0 l 81 947 l 347 947 q 520 892 460 947 q 581 736 581 836 l 581 579 q 464 379 581 421 l 614 0 l 449 0 l 315 363 l 231 363 m 231 818 l 231 485 l 335 485 q 408 508 386 485 q 431 582 431 532 l 431 725 q 335 818 431 818 l 231 818 m 339 -85 q 382 -129 382 -85 q 310 -275 382 -174 l 253 -275 l 289 -85 l 339 -85 z "},"ŗ":{"ha":418,"x_min":76,"x_max":411,"o":"m 163 -85 q 206 -125 206 -85 q 181 -199 206 -151 q 133 -275 156 -246 l 76 -275 l 113 -85 l 163 -85 m 382 808 l 411 808 l 411 667 l 372 667 q 231 621 303 667 l 231 0 l 81 0 l 81 804 l 224 804 l 224 746 q 240 757 226 749 q 256 767 253 765 q 269 776 258 769 q 284 785 281 783 q 297 791 288 786 q 313 797 307 796 q 327 802 318 799 q 344 806 336 806 q 382 808 367 808 z "},"Ř":{"ha":651,"x_min":81,"x_max":614,"o":"m 231 363 l 231 0 l 81 0 l 81 947 l 347 947 q 520 892 460 947 q 581 736 581 836 l 581 579 q 464 379 581 421 l 614 0 l 449 0 l 315 363 l 231 363 m 231 818 l 231 485 l 335 485 q 408 508 386 485 q 431 582 431 532 l 431 725 q 335 818 431 818 l 231 818 m 256 1003 l 179 1157 l 260 1157 l 313 1076 l 365 1157 l 444 1157 l 368 1003 l 256 1003 z "},"ř":{"ha":418,"x_min":81,"x_max":411,"o":"m 382 808 l 411 808 l 411 667 l 372 667 q 231 621 303 667 l 231 0 l 81 0 l 81 804 l 224 804 l 224 746 q 240 757 226 749 q 256 767 253 765 q 269 776 258 769 q 284 785 281 783 q 297 791 288 786 q 313 797 307 796 q 327 802 318 799 q 344 806 336 806 q 382 808 367 808 m 192 864 l 115 1018 l 196 1018 l 249 938 l 301 1018 l 381 1018 l 304 864 l 192 864 z "},"Ś":{"ha":572,"x_min":33,"x_max":538,"o":"m 33 742 q 101 898 33 842 q 292 954 169 954 q 492 928 415 954 l 492 785 q 307 815 410 815 q 188 726 188 815 l 188 681 q 203 613 188 638 q 264 565 219 589 l 424 475 q 538 290 538 414 l 538 210 q 463 49 538 106 q 253 -7 389 -7 q 43 22 118 -7 l 43 168 q 242 132 128 132 q 385 225 385 132 l 385 267 q 370 327 385 306 q 315 369 356 349 l 161 454 q 33 657 33 525 l 33 742 m 301 1157 l 422 1157 l 329 1003 l 244 1003 l 301 1157 z "},"ś":{"ha":519,"x_min":35,"x_max":486,"o":"m 35 603 q 96 759 35 707 q 294 811 157 811 q 456 789 383 811 l 456 654 q 309 676 386 676 q 207 658 232 676 q 182 596 182 639 l 182 571 q 196 522 182 539 q 251 481 210 504 l 368 415 q 456 342 426 382 q 486 240 486 301 l 486 204 q 210 -7 486 -7 q 36 14 108 -7 l 36 150 q 190 128 106 128 q 305 148 274 128 q 336 210 336 168 l 336 231 q 319 278 336 260 q 251 325 303 296 l 143 385 q 35 561 35 444 l 35 603 m 288 1018 l 408 1018 l 315 864 l 231 864 l 288 1018 z "},"Ş":{"ha":572,"x_min":33,"x_max":538,"o":"m 279 -85 q 322 -125 322 -85 q 297 -199 322 -151 q 250 -275 272 -246 l 193 -275 l 229 -85 l 279 -85 m 33 742 q 101 898 33 842 q 292 954 169 954 q 492 928 415 954 l 492 785 q 307 815 410 815 q 188 726 188 815 l 188 681 q 203 613 188 638 q 264 565 219 589 l 424 475 q 538 290 538 414 l 538 210 q 463 49 538 106 q 253 -7 389 -7 q 43 22 118 -7 l 43 168 q 242 132 128 132 q 385 225 385 132 l 385 267 q 370 327 385 306 q 315 369 356 349 l 161 454 q 33 657 33 525 l 33 742 z "},"ş":{"ha":519,"x_min":35,"x_max":486,"o":"m 260 -85 q 303 -125 303 -85 q 278 -199 303 -151 q 231 -275 253 -246 l 174 -275 l 210 -85 l 260 -85 m 35 603 q 96 759 35 707 q 294 811 157 811 q 456 789 383 811 l 456 654 q 309 676 386 676 q 207 658 232 676 q 182 596 182 639 l 182 571 q 196 522 182 539 q 251 481 210 504 l 368 415 q 456 342 426 382 q 486 240 486 301 l 486 204 q 210 -7 486 -7 q 36 14 108 -7 l 36 150 q 190 128 106 128 q 305 148 274 128 q 336 210 336 168 l 336 231 q 319 278 336 260 q 251 325 303 296 l 143 385 q 35 561 35 444 l 35 603 z "},"Š":{"ha":572,"x_min":33,"x_max":538,"o":"m 538 290 l 538 210 q 463 49 538 106 q 253 -7 389 -7 q 43 22 118 -7 l 43 168 q 242 132 128 132 q 385 225 385 132 l 385 267 q 370 327 385 306 q 315 369 356 349 l 161 454 q 33 657 33 525 l 33 742 q 101 898 33 842 q 292 954 169 954 q 492 928 415 954 l 492 785 q 307 815 410 815 q 188 726 188 815 l 188 681 q 203 613 188 638 q 264 565 219 589 l 424 475 q 538 290 538 414 m 231 1003 l 154 1157 l 235 1157 l 288 1076 l 340 1157 l 419 1157 l 343 1003 l 231 1003 z "},"š":{"ha":519,"x_min":35,"x_max":486,"o":"m 486 240 l 486 204 q 210 -7 486 -7 q 36 14 108 -7 l 36 150 q 190 128 106 128 q 305 148 274 128 q 336 210 336 168 l 336 231 q 319 278 336 260 q 251 325 303 296 l 143 385 q 35 561 35 444 l 35 603 q 96 759 35 707 q 294 811 157 811 q 456 789 383 811 l 456 654 q 309 676 386 676 q 207 658 232 676 q 182 596 182 639 l 182 571 q 196 522 182 539 q 251 481 210 504 l 368 415 q 456 342 426 382 q 486 240 486 301 m 215 864 l 139 1018 l 219 1018 l 272 938 l 325 1018 l 404 1018 l 328 864 l 215 864 z "},"Ţ":{"ha":526,"x_min":10,"x_max":517,"o":"m 517 947 l 517 815 l 339 815 l 339 0 l 188 0 l 188 815 l 10 815 l 10 947 l 517 947 m 272 -85 q 315 -125 315 -85 q 290 -199 315 -151 q 243 -275 265 -246 l 186 -275 l 222 -85 l 272 -85 z "},"ţ":{"ha":422,"x_min":7,"x_max":401,"o":"m 260 -85 q 303 -125 303 -85 q 278 -199 303 -151 q 231 -275 253 -246 l 174 -275 l 210 -85 l 260 -85 m 239 947 l 239 804 l 390 804 l 390 675 l 239 675 l 239 199 q 314 126 239 126 q 401 144 356 126 l 401 10 q 288 -8 365 -8 q 88 186 88 -8 l 88 675 l 7 675 l 7 804 l 94 804 l 139 947 l 239 947 z "},"Ť":{"ha":526,"x_min":10,"x_max":517,"o":"m 517 947 l 517 815 l 339 815 l 339 0 l 188 0 l 188 815 l 10 815 l 10 947 l 517 947 m 206 1003 l 129 1157 l 210 1157 l 263 1076 l 315 1157 l 394 1157 l 318 1003 l 206 1003 z "},"ť":{"ha":422,"x_min":7,"x_max":490,"o":"m 239 947 l 239 804 l 390 804 l 390 675 l 239 675 l 239 199 q 314 126 239 126 q 401 144 356 126 l 401 10 q 288 -8 365 -8 q 88 186 88 -8 l 88 675 l 7 675 l 7 804 l 94 804 l 139 947 l 239 947 m 440 1124 q 490 1078 490 1124 q 401 871 490 1015 l 339 871 l 385 1124 l 440 1124 z "},"Ū":{"ha":665,"x_min":74,"x_max":593,"o":"m 163 1122 l 500 1122 l 500 1038 l 163 1038 l 163 1122 m 443 947 l 593 947 l 593 219 q 527 49 593 113 q 332 -14 461 -14 q 138 49 203 -14 q 74 219 74 113 l 74 947 l 224 947 l 224 226 q 333 122 224 122 q 443 226 443 122 l 443 947 z "},"ū":{"ha":638,"x_min":74,"x_max":557,"o":"m 146 983 l 483 983 l 483 899 l 146 899 l 146 983 m 407 804 l 557 804 l 557 0 l 414 0 l 414 38 q 256 -1 343 -1 q 122 48 169 -1 q 74 189 74 97 l 74 804 l 225 804 l 225 214 q 303 133 225 133 q 407 164 346 133 l 407 804 z "},"Ů":{"ha":665,"x_min":74,"x_max":593,"o":"m 443 947 l 593 947 l 593 219 q 527 49 593 113 q 332 -14 461 -14 q 138 49 203 -14 q 74 219 74 113 l 74 947 l 224 947 l 224 226 q 333 122 224 122 q 443 226 443 122 l 443 947 m 379 1079 q 367 1111 379 1099 q 335 1124 356 1124 q 302 1111 314 1124 q 290 1079 290 1099 q 335 1033 290 1033 q 379 1079 379 1033 m 256 1003 q 242 1018 256 1003 q 228 1079 228 1033 q 256 1154 228 1125 q 335 1183 285 1183 q 413 1154 385 1183 q 442 1079 442 1125 q 413 1003 442 1033 q 335 974 385 974 q 256 1003 285 974 z "},"ů":{"ha":638,"x_min":74,"x_max":557,"o":"m 407 804 l 557 804 l 557 0 l 414 0 l 414 38 q 256 -1 343 -1 q 122 48 169 -1 q 74 189 74 97 l 74 804 l 225 804 l 225 214 q 303 133 225 133 q 407 164 346 133 l 407 804 m 358 940 q 347 972 358 960 q 314 985 335 985 q 281 972 293 985 q 269 940 269 960 q 314 894 269 894 q 358 940 358 894 m 235 865 q 221 880 235 865 q 207 940 207 894 q 235 1015 207 986 q 314 1044 264 1044 q 392 1015 364 1044 q 421 940 421 986 q 392 865 421 894 q 314 835 364 835 q 235 865 264 835 z "},"Ű":{"ha":665,"x_min":74,"x_max":593,"o":"m 271 1157 l 383 1157 l 286 1003 l 210 1003 l 271 1157 m 413 1157 l 525 1157 l 428 1003 l 351 1003 l 413 1157 m 443 947 l 593 947 l 593 219 q 527 49 593 113 q 332 -14 461 -14 q 138 49 203 -14 q 74 219 74 113 l 74 947 l 224 947 l 224 226 q 333 122 224 122 q 443 226 443 122 l 443 947 z "},"ű":{"ha":638,"x_min":74,"x_max":557,"o":"m 260 1018 l 372 1018 l 275 864 l 199 864 l 260 1018 m 401 1018 l 514 1018 l 417 864 l 340 864 l 401 1018 m 407 804 l 557 804 l 557 0 l 414 0 l 414 38 q 256 -1 343 -1 q 122 48 169 -1 q 74 189 74 97 l 74 804 l 225 804 l 225 214 q 303 133 225 133 q 407 164 346 133 l 407 804 z "},"Ų":{"ha":665,"x_min":74,"x_max":593,"o":"m 443 947 l 593 947 l 593 219 q 461 8 593 63 q 406 -117 406 -44 q 451 -167 406 -167 l 467 -167 l 467 -246 l 440 -246 q 318 -144 318 -246 q 378 -11 318 -75 q 332 -14 350 -14 q 138 49 203 -14 q 74 219 74 113 l 74 947 l 224 947 l 224 226 q 333 122 224 122 q 443 226 443 122 l 443 947 z "},"ų":{"ha":638,"x_min":74,"x_max":557,"o":"m 557 804 l 557 0 q 496 -131 496 -54 q 542 -181 496 -181 l 557 -181 l 557 -260 l 531 -260 q 408 -158 408 -260 q 496 0 408 -71 l 414 0 l 414 38 q 256 -1 343 -1 q 122 48 169 -1 q 74 189 74 97 l 74 804 l 225 804 l 225 214 q 303 133 225 133 q 407 164 346 133 l 407 804 l 557 804 z "},"Ÿ":{"ha":615,"x_min":3,"x_max":613,"o":"m 383 0 l 232 0 l 232 307 l 3 947 l 157 947 l 229 744 q 310 469 281 589 q 392 744 347 610 l 461 947 l 613 947 l 383 307 l 383 0 m 410 1015 q 377 1015 410 1015 q 344 1078 344 1015 q 410 1142 344 1142 q 476 1078 476 1142 q 410 1015 476 1015 m 201 1015 q 168 1015 201 1015 q 135 1078 135 1015 q 201 1142 135 1142 q 267 1078 267 1142 q 201 1015 267 1015 z "},"Ź":{"ha":558,"x_min":33,"x_max":522,"o":"m 40 947 l 522 947 l 522 824 l 192 129 l 522 129 l 522 0 l 33 0 l 33 129 l 360 818 l 40 818 l 40 947 m 290 1157 l 411 1157 l 318 1003 l 233 1003 l 290 1157 z "},"ź":{"ha":474,"x_min":28,"x_max":444,"o":"m 33 804 l 443 804 l 443 706 l 189 128 l 444 128 l 444 0 l 28 0 l 28 100 l 282 676 l 33 676 l 33 804 m 253 1018 l 374 1018 l 281 864 l 196 864 l 253 1018 z "},"Ż":{"ha":558,"x_min":33,"x_max":522,"o":"m 280 1032 q 247 1032 280 1032 q 214 1095 214 1032 q 280 1158 214 1158 q 346 1095 346 1158 q 280 1032 346 1032 m 40 947 l 522 947 l 522 824 l 192 129 l 522 129 l 522 0 l 33 0 l 33 129 l 360 818 l 40 818 l 40 947 z "},"ż":{"ha":474,"x_min":28,"x_max":444,"o":"m 242 893 q 209 893 242 893 q 176 956 176 893 q 242 1019 176 1019 q 308 956 308 1019 q 242 893 308 893 m 33 804 l 443 804 l 443 706 l 189 128 l 444 128 l 444 0 l 28 0 l 28 100 l 282 676 l 33 676 l 33 804 z "},"Ž":{"ha":558,"x_min":33,"x_max":522,"o":"m 522 947 l 522 824 l 192 129 l 522 129 l 522 0 l 33 0 l 33 129 l 360 818 l 40 818 l 40 947 l 522 947 m 222 1003 l 146 1157 l 226 1157 l 279 1076 l 332 1157 l 411 1157 l 335 1003 l 222 1003 z "},"ž":{"ha":474,"x_min":28,"x_max":444,"o":"m 444 128 l 444 0 l 28 0 l 28 100 l 282 676 l 33 676 l 33 804 l 443 804 l 443 706 l 189 128 l 444 128 m 186 864 l 110 1018 l 190 1018 l 243 938 l 296 1018 l 375 1018 l 299 864 l 186 864 z "},"ƒ":{"ha":482,"x_min":0,"x_max":489,"o":"m 56 -6 l 0 -1 l 0 119 q 49 117 19 117 q 122 203 110 117 l 179 582 l 71 582 l 71 704 l 197 704 l 213 808 q 276 967 228 914 q 431 1019 325 1019 q 489 1014 450 1019 l 489 894 q 451 897 467 897 q 390 877 408 897 q 365 810 372 857 l 349 704 l 440 704 l 440 582 l 331 582 l 274 204 q 210 47 258 100 q 56 -6 163 -6 z "},"Ș":{"ha":572,"x_min":33,"x_max":538,"o":"m 288 -85 q 329 -125 329 -85 q 304 -199 329 -151 q 257 -275 279 -246 l 200 -275 l 236 -85 l 288 -85 m 33 742 q 101 898 33 842 q 292 954 169 954 q 492 928 415 954 l 492 785 q 307 815 410 815 q 188 726 188 815 l 188 681 q 203 613 188 638 q 264 565 219 589 l 424 475 q 538 290 538 414 l 538 210 q 463 49 538 106 q 253 -7 389 -7 q 43 22 118 -7 l 43 168 q 242 132 128 132 q 385 225 385 132 l 385 267 q 370 327 385 306 q 315 369 356 349 l 161 454 q 33 657 33 525 l 33 742 z "},"ș":{"ha":519,"x_min":35,"x_max":486,"o":"m 274 -85 q 315 -125 315 -85 q 290 -199 315 -151 q 243 -275 265 -246 l 186 -275 l 222 -85 l 274 -85 m 35 603 q 96 759 35 707 q 294 811 157 811 q 456 789 383 811 l 456 654 q 309 676 386 676 q 207 658 232 676 q 182 596 182 639 l 182 571 q 196 522 182 539 q 251 481 210 504 l 368 415 q 456 342 426 382 q 486 240 486 301 l 486 204 q 210 -7 486 -7 q 36 14 108 -7 l 36 150 q 190 128 106 128 q 305 148 274 128 q 336 210 336 168 l 336 231 q 319 278 336 260 q 251 325 303 296 l 143 385 q 35 561 35 444 l 35 603 z "},"Ț":{"ha":526,"x_min":10,"x_max":517,"o":"m 517 947 l 517 815 l 339 815 l 339 0 l 188 0 l 188 815 l 10 815 l 10 947 l 517 947 m 269 -85 q 313 -125 313 -85 q 288 -199 313 -151 q 240 -275 263 -246 l 183 -275 l 219 -85 l 269 -85 z "},"ț":{"ha":422,"x_min":7,"x_max":401,"o":"m 261 -85 q 304 -125 304 -85 q 279 -199 304 -151 q 232 -275 254 -246 l 175 -275 l 211 -85 l 261 -85 m 239 947 l 239 804 l 390 804 l 390 675 l 239 675 l 239 199 q 314 126 239 126 q 401 144 356 126 l 401 10 q 288 -8 365 -8 q 88 186 88 -8 l 88 675 l 7 675 l 7 804 l 94 804 l 139 947 l 239 947 z "},"ˆ":{"ha":486,"x_min":110,"x_max":375,"o":"m 375 864 l 296 864 l 243 944 l 190 864 l 110 864 l 186 1018 l 299 1018 l 375 864 z "},"ˇ":{"ha":486,"x_min":110,"x_max":375,"o":"m 296 1018 l 375 1018 l 299 864 l 186 864 l 110 1018 l 190 1018 l 243 938 l 296 1018 z "},"ˉ":{"ha":486,"x_min":74,"x_max":411,"o":"m 74 983 l 411 983 l 411 899 l 74 899 l 74 983 z "},"˘":{"ha":486,"x_min":83,"x_max":403,"o":"m 358 907 q 336 885 358 907 q 243 864 314 864 q 128 907 172 864 q 83 1018 85 950 l 171 1018 q 191 963 172 983 q 243 942 210 942 q 295 963 276 942 q 315 1018 314 983 l 403 1018 q 358 907 401 950 z "},"˙":{"ha":486,"x_min":176,"x_max":308,"o":"m 242 893 q 209 893 242 893 q 176 956 176 893 q 242 1019 176 1019 q 308 956 308 1019 q 242 893 308 893 z "},"˚":{"ha":486,"x_min":136,"x_max":350,"o":"m 288 940 q 276 972 288 960 q 243 985 264 985 q 210 972 222 985 q 199 940 199 960 q 243 894 199 894 q 288 940 288 894 m 165 865 q 150 880 165 865 q 136 940 136 894 q 165 1015 136 986 q 243 1044 193 1044 q 322 1015 293 1044 q 350 940 350 986 q 322 865 350 894 q 243 835 293 835 q 165 865 193 835 z "},"˛":{"ha":486,"x_min":169,"x_max":318,"o":"m 257 -131 q 303 -181 257 -181 l 318 -181 l 318 -260 l 292 -260 q 169 -158 169 -260 q 257 0 169 -71 l 318 0 q 257 -131 257 -54 z "},"˜":{"ha":486,"x_min":56,"x_max":429,"o":"m 340 1010 l 429 1010 l 429 996 q 322 874 426 874 q 239 901 286 874 q 175 928 192 928 q 144 881 144 928 l 144 871 l 56 871 l 56 882 q 164 1007 58 1007 q 249 980 201 1007 q 311 953 296 953 q 340 999 340 953 l 340 1010 z "},"˝":{"ha":486,"x_min":85,"x_max":400,"o":"m 146 1018 l 258 1018 l 161 864 l 85 864 l 146 1018 m 288 1018 l 400 1018 l 303 864 l 226 864 l 288 1018 z "},"π":{"ha":635,"x_min":79,"x_max":650,"o":"m 650 804 l 650 675 l 561 675 l 561 0 l 408 0 l 408 675 l 231 675 l 231 0 l 81 0 l 79 804 l 650 804 z "},"ँ":{"ha":0,"x_min":-406,"x_max":104,"o":"m -32 1207 l 104 1207 l 104 1203 q 41 1053 104 1100 q -150 1006 -22 1006 q -342 1053 -278 1006 q -406 1203 -406 1100 l -406 1207 l -268 1207 q -241 1143 -268 1161 q -150 1125 -214 1125 q -59 1143 -86 1125 q -32 1207 -32 1161 m -149 1207 q -187 1207 -149 1207 q -225 1283 -225 1207 q -149 1358 -225 1358 q -74 1283 -74 1358 q -149 1207 -74 1207 z "},"ं":{"ha":0,"x_min":-231,"x_max":-71,"o":"m -151 1010 q -191 1010 -151 1010 q -231 1090 -231 1010 q -151 1169 -231 1169 q -71 1090 -71 1169 q -151 1010 -71 1010 z "},"ः":{"ha":310,"x_min":64,"x_max":224,"o":"m 144 0 q 104 0 144 0 q 64 80 64 0 q 144 160 64 160 q 224 80 224 160 q 144 0 224 0 m 144 476 q 104 476 144 476 q 64 556 64 476 q 144 636 64 636 q 224 556 224 636 q 144 476 224 476 z "},"अ":{"ha":811,"x_min":54,"x_max":854,"o":"m 592 917 l 854 917 l 854 799 l 731 799 l 731 0 l 592 0 l 592 296 l 458 296 l 458 260 q 204 49 458 49 q 54 68 122 49 l 54 196 q 199 175 131 175 q 294 198 267 175 q 322 265 321 221 l 322 344 q 301 410 322 388 q 226 433 281 433 l 143 433 l 143 563 l 226 563 q 301 584 281 563 q 322 649 322 606 l 322 707 q 204 796 322 796 q 71 775 136 796 l 71 904 q 206 924 129 924 q 458 713 458 924 l 458 649 q 393 499 458 533 q 450 415 436 476 l 592 415 l 592 917 z "},"आ":{"ha":1128,"x_min":72,"x_max":1172,"o":"m 1172 917 l 1172 799 l 1047 799 l 1047 0 l 908 0 l 908 799 l 749 799 l 749 0 l 610 0 l 610 296 l 476 296 l 476 260 q 222 49 476 49 q 72 68 140 49 l 72 196 q 217 175 149 175 q 312 198 285 175 q 340 265 339 221 l 340 344 q 319 410 340 388 q 244 433 299 433 l 161 433 l 161 563 l 244 563 q 319 584 299 563 q 340 649 340 606 l 340 707 q 222 796 340 796 q 89 775 153 796 l 89 904 q 224 924 147 924 q 476 713 476 924 l 476 649 q 411 499 476 533 q 468 415 454 476 l 610 415 l 610 917 l 1172 917 z "},"इ":{"ha":567,"x_min":-44,"x_max":610,"o":"m 196 236 l 196 150 q 288 140 254 140 q 386 214 386 140 l 386 253 q 299 326 386 326 l 265 326 q 47 507 47 326 l 47 518 q 101 656 47 613 q 265 700 154 700 l 347 700 l 347 799 l -44 799 l -44 917 l 610 917 l 610 799 l 486 799 l 486 579 l 265 579 q 203 563 221 579 q 186 514 186 547 l 186 510 q 203 460 186 476 q 265 444 221 444 l 299 444 q 525 257 525 444 l 525 211 q 474 63 525 111 q 304 15 422 15 q 196 26 257 15 l 196 -101 l 60 -101 l 60 236 l 196 236 z "},"ई":{"ha":567,"x_min":-44,"x_max":610,"o":"m 486 579 l 265 579 q 203 563 221 579 q 186 514 186 547 l 186 510 q 203 460 186 476 q 265 444 221 444 l 299 444 q 525 257 525 444 l 525 211 q 474 63 525 111 q 304 15 422 15 q 196 26 257 15 l 196 -101 l 60 -101 l 60 236 l 196 236 l 196 150 q 288 140 254 140 q 386 214 386 140 l 386 253 q 299 326 386 326 l 265 326 q 47 507 47 326 l 47 518 q 101 656 47 613 q 265 700 154 700 l 347 700 l 347 799 l -44 799 l -44 917 l 344 917 q 303 1068 303 1003 q 356 1201 303 1161 q 488 1242 408 1242 q 576 1235 535 1242 l 576 1111 q 529 1115 551 1115 q 443 1042 443 1115 q 481 917 443 989 l 610 917 l 610 799 l 486 799 l 486 579 z "},"उ":{"ha":558,"x_min":-44,"x_max":603,"o":"m 343 718 q 326 799 343 768 l -44 799 l -44 917 l 603 917 l 603 799 l 467 799 q 482 718 482 774 l 482 606 q 418 463 482 492 q 482 319 482 432 l 482 207 q 218 -6 482 -6 q 61 14 147 -6 l 61 143 q 217 121 147 121 q 343 210 343 121 l 343 311 q 324 376 343 353 q 251 400 304 400 l 167 400 l 167 528 l 258 528 q 326 550 310 529 q 343 610 343 571 l 343 718 z "},"ऊ":{"ha":808,"x_min":-44,"x_max":853,"o":"m 343 718 q 326 799 343 768 l -44 799 l -44 917 l 853 917 l 853 799 l 467 799 q 482 718 482 774 l 482 606 q 461 504 482 540 q 563 517 517 517 q 771 324 771 517 l 771 199 q 722 49 771 101 q 579 -3 674 -3 l 546 0 l 546 128 l 557 128 q 616 147 600 129 q 632 203 632 164 l 632 301 q 612 365 632 343 q 542 388 592 388 l 474 388 q 482 319 482 356 l 482 207 q 218 -6 482 -6 q 61 14 147 -6 l 61 143 q 217 121 147 121 q 343 210 343 121 l 343 311 q 324 376 343 353 q 251 400 304 400 l 167 400 l 167 528 l 258 528 q 326 550 310 529 q 343 610 343 571 l 343 718 z "},"ऋ":{"ha":989,"x_min":-44,"x_max":1033,"o":"m 1033 799 l 569 799 l 569 601 q 693 590 636 590 q 799 676 799 590 l 799 692 l 932 692 l 932 274 l 871 274 q 782 175 782 274 q 892 79 782 79 q 969 88 933 79 l 969 -31 q 876 -37 931 -37 q 708 13 771 -37 q 646 169 646 64 q 804 367 646 356 l 804 492 q 701 461 764 461 q 569 474 639 461 l 569 0 l 438 0 l 438 86 q 449 304 438 246 l 444 304 q 347 174 415 244 l 219 35 l 46 35 l 46 40 l 431 447 l 431 544 q 310 561 376 561 q 213 536 243 561 q 182 460 182 511 l 182 375 l 49 375 l 49 467 q 297 690 49 690 q 431 674 376 690 l 431 799 l -44 799 l -44 917 l 1033 917 l 1033 799 z "},"ऌ":{"ha":879,"x_min":-44,"x_max":922,"o":"m 797 799 l 797 53 q 700 60 757 60 q 622 41 643 60 q 600 -22 600 22 q 623 -83 600 -67 q 687 -100 646 -100 q 800 -87 728 -100 l 800 -215 q 688 -229 731 -229 q 521 -176 579 -229 q 463 -21 463 -124 q 658 186 463 174 l 658 533 q 583 547 629 547 q 496 471 496 547 l 496 299 l 357 299 l 357 471 q 276 547 357 547 q 213 527 229 547 q 196 469 196 507 l 196 236 q 220 156 196 185 q 297 128 244 128 q 374 132 349 128 l 374 6 q 307 0 340 0 q 117 58 178 0 q 57 232 57 117 l 57 474 q 112 622 57 569 q 275 675 167 675 q 424 606 383 675 q 574 675 474 675 q 658 661 621 675 l 658 799 l -44 799 l -44 917 l 922 917 l 922 799 l 797 799 z "},"ऍ":{"ha":601,"x_min":-44,"x_max":646,"o":"m 426 1211 l 563 1211 l 563 1207 q 308 1008 563 1008 q 117 1056 181 1008 q 53 1207 53 1104 l 53 1211 l 190 1211 q 217 1147 190 1165 q 308 1129 244 1129 q 399 1148 371 1129 q 426 1211 426 1167 m 331 -7 q 76 214 76 -7 l 76 799 l -44 799 l -44 917 l 646 917 l 646 799 l 535 799 l 535 556 q 490 410 535 460 q 339 360 444 360 q 310 363 329 360 l 310 490 l 328 490 q 382 508 368 490 q 396 563 396 525 l 396 799 l 215 799 l 215 218 q 242 145 215 169 q 340 121 269 121 q 506 147 411 121 l 506 21 q 331 -7 431 -7 z "},"ऎ":{"ha":601,"x_min":-44,"x_max":646,"o":"m 533 917 l 646 917 l 646 799 l 535 799 l 535 556 q 490 410 535 460 q 339 360 444 360 q 310 363 329 360 l 310 490 l 328 490 q 382 508 368 490 q 396 563 396 525 l 396 799 l 215 799 l 215 218 q 242 145 215 169 q 340 121 269 121 q 506 147 411 121 l 506 21 q 331 -7 431 -7 q 76 214 76 -7 l 76 799 l -44 799 l -44 917 l 397 917 q 373 994 397 968 q 281 1019 349 1019 q 92 1069 150 1019 q 33 1235 33 1118 l 171 1235 q 195 1158 171 1183 q 288 1133 219 1133 q 475 1081 417 1133 q 533 917 533 1029 z "},"ए":{"ha":601,"x_min":-44,"x_max":646,"o":"m 508 21 q 317 -7 433 -7 q 76 218 76 -7 l 76 799 l -44 799 l -44 917 l 646 917 l 646 799 l 535 799 l 535 556 q 490 410 535 460 q 339 360 444 360 q 310 363 329 360 l 310 490 l 328 490 q 382 508 368 490 q 396 563 396 525 l 396 799 l 215 799 l 215 221 q 243 146 215 171 q 342 121 271 121 q 508 147 414 121 l 508 21 z "},"ऐ":{"ha":601,"x_min":-44,"x_max":646,"o":"m 646 917 l 646 799 l 535 799 l 535 556 q 490 410 535 460 q 339 360 444 360 q 310 363 329 360 l 310 490 l 328 490 q 382 508 368 490 q 396 563 396 525 l 396 799 l 215 799 l 215 218 q 242 145 215 169 q 340 121 269 121 q 506 147 411 121 l 506 21 q 331 -7 431 -7 q 76 214 76 -7 l 76 799 l -44 799 l -44 917 l 389 917 l 160 1235 l 315 1235 l 531 917 l 646 917 z "},"ऑ":{"ha":1129,"x_min":72,"x_max":1172,"o":"m 1172 917 l 1172 799 l 1049 799 l 1049 0 l 910 0 l 910 799 l 749 799 l 749 0 l 610 0 l 610 296 l 476 296 l 476 260 q 222 49 476 49 q 72 68 140 49 l 72 196 q 217 175 149 175 q 312 198 285 175 q 340 265 339 221 l 340 344 q 319 410 340 388 q 244 433 299 433 l 161 433 l 161 563 l 244 563 q 319 584 299 563 q 340 649 340 606 l 340 707 q 222 796 340 796 q 89 775 153 796 l 89 904 q 224 924 147 924 q 476 713 476 924 l 476 649 q 411 499 476 533 q 468 415 454 476 l 610 415 l 610 917 l 1172 917 m 1090 1207 l 1090 1203 q 1027 1051 1090 1099 q 836 1004 964 1004 q 582 1203 582 1004 l 582 1207 l 718 1207 q 745 1143 718 1161 q 835 1125 772 1125 q 926 1143 899 1125 q 953 1207 953 1161 l 1090 1207 z "},"ऒ":{"ha":1129,"x_min":72,"x_max":1174,"o":"m 1047 917 l 1174 917 l 1174 799 l 1049 799 l 1049 0 l 910 0 l 910 799 l 749 799 l 749 0 l 610 0 l 610 296 l 476 296 l 476 260 q 222 49 476 49 q 72 68 140 49 l 72 196 q 217 175 149 175 q 312 198 285 175 q 340 265 339 221 l 340 344 q 319 410 340 388 q 244 433 299 433 l 161 433 l 161 563 l 244 563 q 319 584 299 563 q 340 649 340 606 l 340 707 q 222 796 340 796 q 89 775 153 796 l 89 904 q 224 924 147 924 q 476 713 476 924 l 476 649 q 411 499 476 533 q 468 415 454 476 l 610 415 l 610 917 l 910 917 q 885 994 910 968 q 794 1019 861 1019 q 607 1069 665 1019 q 549 1235 549 1118 l 685 1235 q 709 1158 685 1183 q 801 1133 733 1133 q 989 1081 931 1133 q 1047 917 1047 1029 z "},"ओ":{"ha":1129,"x_min":72,"x_max":1174,"o":"m 1174 917 l 1174 799 l 1049 799 l 1049 0 l 910 0 l 910 799 l 749 799 l 749 0 l 610 0 l 610 296 l 476 296 l 476 260 q 222 49 476 49 q 72 68 140 49 l 72 196 q 217 175 149 175 q 312 198 285 175 q 340 265 339 221 l 340 344 q 319 410 340 388 q 244 433 299 433 l 161 433 l 161 563 l 244 563 q 319 584 299 563 q 340 649 340 606 l 340 707 q 222 796 340 796 q 89 775 153 796 l 89 904 q 224 924 147 924 q 476 713 476 924 l 476 649 q 411 499 476 533 q 468 415 454 476 l 610 415 l 610 917 l 906 917 l 808 1061 q 710 1118 769 1118 q 674 1115 696 1118 l 674 1232 q 725 1235 704 1235 q 828 1212 786 1235 q 908 1129 869 1189 l 1049 917 l 1174 917 z "},"औ":{"ha":1129,"x_min":72,"x_max":1174,"o":"m 1174 917 l 1174 799 l 1049 799 l 1049 0 l 910 0 l 910 799 l 749 799 l 749 0 l 610 0 l 610 296 l 476 296 l 476 260 q 222 49 476 49 q 72 68 140 49 l 72 196 q 217 175 149 175 q 312 198 285 175 q 340 265 339 221 l 340 344 q 319 410 340 388 q 244 433 299 433 l 161 433 l 161 563 l 244 563 q 319 584 299 563 q 340 649 340 606 l 340 707 q 222 796 340 796 q 89 775 153 796 l 89 904 q 224 924 147 924 q 476 713 476 924 l 476 649 q 411 499 476 533 q 468 415 454 476 l 610 415 l 610 917 l 751 917 l 649 1061 q 549 1118 606 1118 q 513 1115 538 1118 l 513 1232 q 565 1235 546 1235 q 662 1208 622 1235 q 746 1121 701 1182 l 889 917 l 922 917 l 876 1056 q 853 1103 865 1089 q 820 1117 840 1117 q 792 1115 800 1117 l 792 1232 q 835 1235 819 1235 q 982 1115 944 1235 l 1043 917 l 1174 917 z "},"क":{"ha":842,"x_min":-44,"x_max":885,"o":"m 300 578 l 274 579 q 206 559 225 579 q 186 501 186 539 l 186 278 q 274 201 186 201 q 354 213 304 201 l 354 799 l -44 799 l -44 917 l 885 917 l 885 799 l 489 799 l 489 690 q 581 701 522 701 q 786 507 786 701 l 786 286 q 596 93 786 93 l 565 94 l 565 225 q 597 224 569 224 q 653 297 653 224 l 653 503 q 633 560 653 540 q 569 581 614 581 q 489 571 525 581 l 489 0 l 353 0 l 353 96 q 258 83 303 83 q 53 274 53 83 l 53 506 q 258 701 53 701 l 300 697 l 300 578 z "},"ख":{"ha":1056,"x_min":-44,"x_max":1099,"o":"m 349 717 q 332 799 349 765 l -44 799 l -44 917 l 1099 917 l 1099 799 l 974 799 l 974 0 l 838 0 l 838 168 q 746 158 801 158 q 589 206 636 158 q 542 353 542 254 l 542 494 q 586 644 542 594 q 740 693 631 693 q 838 683 799 693 l 838 799 l 465 799 q 478 717 478 771 l 478 549 q 268 338 478 338 q 189 346 225 338 l 189 257 q 372 121 189 121 q 551 149 472 121 l 551 18 q 363 -7 469 -7 q 135 61 214 -7 q 56 256 56 129 l 56 619 l 189 619 l 189 467 q 260 461 233 461 q 349 550 349 461 l 349 717 m 838 561 q 752 572 797 572 q 688 553 707 572 q 669 496 669 533 l 669 353 q 688 296 669 315 q 755 276 707 276 q 838 286 803 276 l 838 561 z "},"ग":{"ha":675,"x_min":-44,"x_max":718,"o":"m 718 917 l 718 799 l 594 799 l 594 0 l 456 0 l 456 799 l 294 799 l 294 454 q 242 304 294 357 q 90 251 189 251 q 28 256 40 251 l 28 388 q 71 385 61 385 q 156 464 156 385 l 156 799 l -44 799 l -44 917 l 718 917 z "},"घ":{"ha":692,"x_min":-44,"x_max":735,"o":"m 472 799 l 229 799 q 217 717 217 772 l 217 642 q 234 585 217 604 q 301 567 251 567 l 356 567 l 356 438 l 296 438 q 227 419 246 438 q 208 363 208 400 l 208 311 q 242 232 208 256 q 347 208 276 208 q 472 225 418 208 l 472 799 m 78 717 q 88 799 78 760 l -44 799 l -44 917 l 735 917 l 735 799 l 611 799 l 611 0 l 472 0 l 472 100 q 328 83 394 83 q 137 139 204 83 q 69 296 69 194 l 69 367 q 142 504 69 475 q 78 638 78 538 l 78 717 z "},"ङ":{"ha":692,"x_min":-44,"x_max":735,"o":"m 608 389 q 568 389 608 389 q 528 469 528 389 q 608 549 528 549 q 688 469 688 549 q 608 389 688 389 m 533 231 l 533 193 q 269 -11 533 -11 q 74 11 175 -11 l 74 138 q 253 115 172 115 q 364 132 333 115 q 394 193 394 149 l 394 228 q 376 281 394 263 q 308 299 358 299 l 278 299 q 60 481 60 299 l 60 519 q 113 656 60 613 q 278 700 167 700 l 354 700 l 354 799 l -44 799 l -44 917 l 735 917 l 735 799 l 493 799 l 493 579 l 278 579 q 200 513 200 579 l 200 486 q 217 435 200 453 q 278 418 233 418 l 308 418 q 478 372 424 418 q 533 231 533 326 z "},"च":{"ha":660,"x_min":-44,"x_max":703,"o":"m 110 456 q 119 550 110 517 l 18 550 l 18 675 l 376 675 l 376 556 l 263 556 q 249 454 249 525 l 249 289 q 349 204 249 204 q 440 218 399 204 l 440 799 l -44 799 l -44 917 l 703 917 l 703 799 l 579 799 l 579 0 l 440 0 l 440 96 q 326 81 392 81 q 110 286 110 81 l 110 456 z "},"छ":{"ha":735,"x_min":-44,"x_max":778,"o":"m 532 479 q 511 551 532 529 q 444 574 490 574 q 363 563 399 574 l 363 678 q 450 692 400 692 l 450 799 l 228 799 q 213 717 213 772 l 213 533 q 230 477 213 496 q 297 458 247 458 l 386 458 l 386 335 l 301 335 q 227 317 249 335 q 206 257 206 300 l 206 233 q 237 158 206 176 q 368 139 268 139 q 500 162 468 139 q 532 244 532 185 l 532 479 m 74 717 q 89 799 74 763 l -44 799 l -44 917 l 778 917 l 778 799 l 579 799 l 579 671 q 668 499 668 639 l 668 239 q 601 66 668 118 q 371 14 535 14 q 137 64 207 14 q 67 226 67 114 l 67 267 q 139 396 67 365 q 74 528 74 428 l 74 717 z "},"ज":{"ha":793,"x_min":-44,"x_max":836,"o":"m 289 467 q 276 547 289 517 l 131 547 l 131 675 l 574 675 l 574 799 l -44 799 l -44 917 l 836 917 l 836 799 l 713 799 l 713 0 l 574 0 l 574 556 l 417 556 q 429 474 429 526 l 429 276 q 366 117 429 171 q 185 63 303 63 q 60 78 118 63 l 60 204 q 181 189 121 189 q 289 281 289 189 l 289 467 z "},"झ":{"ha":865,"x_min":-44,"x_max":908,"o":"m 279 444 l 646 444 l 646 799 l 503 799 l 503 579 l 281 579 q 219 564 236 579 q 201 515 201 549 l 201 510 q 219 460 201 476 q 279 444 236 444 m 292 326 l 279 326 q 63 507 63 326 l 63 519 q 116 657 63 614 q 281 700 169 700 l 363 700 l 363 799 l -44 799 l -44 917 l 908 917 l 908 799 l 785 799 l 785 0 l 646 0 l 646 333 l 488 333 q 517 249 517 306 l 517 200 q 465 56 517 100 q 307 11 413 11 q 199 21 240 11 l 199 -97 l 63 -97 l 63 226 l 199 226 l 199 142 q 286 132 240 132 q 381 208 381 132 l 381 250 q 292 326 381 326 z "},"ञ":{"ha":818,"x_min":-44,"x_max":861,"o":"m 315 285 l 315 490 q 291 560 315 536 q 203 585 267 585 q 86 567 140 585 l 86 692 q 207 711 142 711 q 454 500 454 711 l 454 447 l 599 447 l 599 799 l -44 799 l -44 917 l 861 917 l 861 799 l 738 799 l 738 0 l 599 0 l 599 326 l 454 326 l 454 275 q 207 64 454 64 q 81 85 149 64 l 81 210 q 204 192 150 192 q 315 285 315 192 z "},"ट":{"ha":561,"x_min":-44,"x_max":604,"o":"m 203 471 l 203 221 q 336 121 203 121 q 501 140 417 121 l 501 14 q 329 -7 415 -7 q 133 51 201 -7 q 64 218 64 110 l 64 479 q 294 689 64 689 l 340 689 l 340 799 l -44 799 l -44 917 l 604 917 l 604 799 l 479 799 l 479 563 l 308 563 q 203 471 203 563 z "},"ठ":{"ha":578,"x_min":-44,"x_max":621,"o":"m 381 194 l 381 507 q 290 588 381 588 q 199 507 199 588 l 199 194 q 290 114 199 114 q 381 194 381 114 m 515 510 l 515 196 q 459 46 515 99 q 290 -7 403 -7 q 120 46 176 -7 q 64 196 64 99 l 64 510 q 219 700 64 674 l 219 799 l -44 799 l -44 917 l 621 917 l 621 799 l 358 799 l 358 700 q 515 510 515 674 z "},"ड":{"ha":583,"x_min":-44,"x_max":626,"o":"m 533 224 l 533 193 q 269 -11 533 -11 q 75 10 169 -11 l 75 139 q 255 115 178 115 q 363 133 332 115 q 394 196 394 151 l 394 219 q 376 274 394 256 q 308 293 358 293 l 278 293 q 60 474 60 293 l 60 519 q 113 656 60 613 q 278 700 167 700 l 354 700 l 354 799 l -44 799 l -44 917 l 626 917 l 626 799 l 493 799 l 493 579 l 278 579 q 200 513 200 579 l 200 481 q 217 428 200 446 q 278 411 233 411 l 308 411 q 478 365 424 411 q 533 224 533 319 z "},"ढ":{"ha":583,"x_min":-44,"x_max":626,"o":"m 285 696 l 356 696 l 356 799 l -44 799 l -44 917 l 626 917 l 626 799 l 492 799 l 492 569 l 285 569 q 218 551 236 569 q 200 496 200 532 l 200 210 q 221 143 200 165 q 299 121 242 121 q 376 143 356 121 q 397 208 397 165 l 397 243 q 326 313 397 313 l 281 306 l 281 429 q 344 436 307 436 q 531 246 531 436 l 531 201 q 297 -7 531 -7 q 63 206 63 -7 l 63 500 q 116 649 63 601 q 285 696 169 696 z "},"ण":{"ha":875,"x_min":-44,"x_max":918,"o":"m 367 799 l 200 799 l 200 358 q 217 301 200 321 q 283 281 235 281 q 349 301 332 281 q 367 358 367 321 l 367 799 m 506 357 q 283 154 506 154 q 61 357 61 154 l 61 799 l -44 799 l -44 917 l 918 917 l 918 799 l 794 799 l 794 0 l 656 0 l 656 799 l 506 799 l 506 357 z "},"त":{"ha":622,"x_min":-44,"x_max":665,"o":"m 61 483 q 118 638 61 582 q 288 694 175 694 q 403 681 347 694 l 403 799 l -44 799 l -44 917 l 665 917 l 665 799 l 542 799 l 542 0 l 403 0 l 403 554 q 304 565 342 565 q 200 479 200 565 l 200 203 q 222 145 200 163 q 296 129 243 128 l 296 -3 l 261 -3 q 107 46 153 -3 q 61 192 61 94 l 61 483 z "},"थ":{"ha":794,"x_min":57,"x_max":838,"o":"m 575 917 l 838 917 l 838 799 l 714 799 l 714 0 l 575 0 l 575 131 q 392 111 490 111 q 144 183 231 111 q 57 393 57 254 l 57 553 l 210 553 q 314 576 283 553 q 344 661 344 599 l 344 721 q 332 781 344 763 q 279 799 319 799 q 226 779 239 799 q 213 718 213 760 l 218 663 l 85 663 q 79 719 79 692 q 276 924 79 924 q 425 873 379 924 q 471 721 471 822 l 471 642 q 411 482 471 533 q 226 431 351 431 l 199 431 l 199 397 q 244 275 199 311 q 393 239 289 239 q 575 258 497 239 l 575 917 z "},"द":{"ha":578,"x_min":-44,"x_max":622,"o":"m 51 293 l 51 496 q 106 647 51 600 q 279 693 161 693 l 354 693 l 354 799 l -44 799 l -44 917 l 622 917 l 622 799 l 493 799 l 493 565 l 279 565 q 209 547 228 565 q 190 493 190 529 l 190 297 q 288 218 190 218 q 374 228 328 218 l 374 357 l 511 357 l 511 -6 l 374 -6 l 374 104 q 269 94 328 94 q 51 293 51 94 z "},"ध":{"ha":692,"x_min":-44,"x_max":736,"o":"m 78 717 q 92 799 78 765 l -44 799 l -44 917 l 343 917 l 343 799 l 235 799 q 217 717 217 772 l 217 644 q 234 588 217 607 q 301 569 251 569 l 356 569 l 356 442 l 296 442 q 227 422 246 442 q 208 365 208 403 l 208 310 q 344 208 208 208 q 472 225 413 208 l 472 917 l 736 917 l 736 799 l 611 799 l 611 0 l 472 0 l 472 100 q 329 83 415 83 q 138 138 206 83 q 69 294 69 192 l 69 369 q 142 507 69 478 q 78 640 78 540 l 78 717 z "},"न":{"ha":818,"x_min":-44,"x_max":863,"o":"m 261 546 q 203 528 219 546 q 186 474 186 510 l 186 276 q 203 222 186 240 q 261 204 219 204 q 319 222 303 204 q 336 276 336 240 l 336 453 q 322 546 336 518 l 261 546 m 599 546 l 456 546 q 468 457 468 496 l 468 275 q 260 79 468 79 q 53 275 53 79 l 53 478 q 261 674 53 674 l 599 674 l 599 799 l -44 799 l -44 917 l 863 917 l 863 799 l 738 799 l 738 0 l 599 0 l 599 546 z "},"ऩ":{"ha":826,"x_min":-44,"x_max":871,"o":"m 131 -44 q 131 -84 131 -44 q 51 -124 131 -124 q -28 -44 -28 -124 q 51 36 -28 36 q 131 -44 131 36 m 269 546 q 212 528 228 546 q 196 474 196 510 l 196 276 q 212 222 196 240 q 270 204 228 204 q 328 222 313 204 q 344 276 344 240 l 344 453 q 331 546 344 504 l 269 546 m 607 546 l 464 546 q 476 457 476 496 l 476 275 q 269 79 476 79 q 63 275 63 79 l 63 478 q 269 674 63 674 l 607 674 l 607 799 l -44 799 l -44 917 l 871 917 l 871 799 l 746 799 l 746 0 l 607 0 l 607 546 z "},"प":{"ha":604,"x_min":-44,"x_max":647,"o":"m 383 799 l 203 799 l 203 371 q 297 293 203 293 q 383 307 346 293 l 383 799 m 383 0 l 383 183 q 278 168 349 168 q 63 367 63 168 l 63 799 l -44 799 l -44 917 l 647 917 l 647 799 l 524 799 l 524 0 l 383 0 z "},"फ":{"ha":863,"x_min":-44,"x_max":907,"o":"m 371 799 l 203 799 l 203 356 q 299 276 203 276 q 371 286 339 276 l 371 799 m 671 492 q 590 567 671 567 q 508 556 547 567 l 508 0 l 371 0 l 371 164 q 279 153 326 153 q 64 350 64 153 l 64 799 l -44 799 l -44 917 l 907 917 l 907 799 l 508 799 l 508 682 q 601 696 549 696 q 758 644 706 696 q 810 496 810 592 l 810 279 q 610 86 810 86 q 586 88 592 86 l 586 215 q 653 233 635 215 q 671 290 671 250 l 671 492 z "},"ब":{"ha":617,"x_min":-44,"x_max":660,"o":"m -44 917 l 660 917 l 660 799 l 536 799 l 536 0 l 404 0 l 404 100 q 294 86 356 86 q 53 292 53 86 l 53 497 q 112 654 53 606 q 289 703 171 703 q 404 685 354 703 l 404 799 l -44 799 l -44 917 m 301 585 q 194 538 219 585 l 404 356 l 404 568 q 301 585 360 585 m 186 297 q 301 203 186 203 q 404 215 338 203 l 404 251 l 186 444 l 186 297 z "},"भ":{"ha":856,"x_min":58,"x_max":899,"o":"m 351 575 l 351 719 q 336 776 351 757 q 276 794 321 794 q 216 776 231 794 q 201 719 201 757 l 207 661 l 67 661 q 61 724 61 697 q 276 924 61 924 q 490 724 490 924 l 490 575 l 636 575 l 636 917 l 899 917 l 899 799 l 775 799 l 775 0 l 636 0 l 636 457 l 485 457 l 485 269 q 272 81 485 81 q 58 269 58 81 l 58 388 q 272 575 58 575 l 351 575 m 351 272 l 351 457 l 272 457 q 209 440 225 457 q 193 385 193 422 l 193 272 q 209 218 193 236 q 272 200 225 200 q 335 217 319 200 q 351 272 351 235 z "},"म":{"ha":826,"x_min":-44,"x_max":871,"o":"m 610 0 l 610 489 l 468 489 l 468 269 q 254 81 468 81 q 40 269 40 81 l 40 421 q 254 608 40 608 l 333 608 l 333 799 l -44 799 l -44 917 l 871 917 l 871 799 l 746 799 l 746 0 l 610 0 m 468 608 l 610 608 l 610 799 l 468 799 l 468 608 m 333 274 l 333 489 l 254 489 q 191 472 207 489 q 175 417 175 454 l 175 274 q 191 219 175 236 q 254 201 207 201 q 317 219 301 201 q 333 274 333 236 z "},"य":{"ha":711,"x_min":-44,"x_max":754,"o":"m 228 717 q 218 799 228 760 l -44 799 l -44 917 l 754 917 l 754 799 l 631 799 l 631 0 l 492 0 l 492 133 q 356 119 440 119 q 140 180 221 119 q 60 365 60 240 l 60 542 l 90 542 q 199 560 169 542 q 228 636 228 579 l 228 717 m 364 717 l 364 613 q 196 446 364 450 l 196 381 q 363 249 196 249 q 492 261 432 249 l 492 799 l 354 799 q 364 717 364 768 z "},"र":{"ha":592,"x_min":-44,"x_max":635,"o":"m 383 717 q 369 799 383 765 l -44 799 l -44 917 l 635 917 l 635 799 l 513 799 q 522 717 522 771 l 522 547 q 313 347 522 347 q 210 363 260 347 l 210 222 q 351 119 210 119 q 529 150 443 119 l 529 19 q 328 -7 450 -7 q 139 53 207 -7 q 71 218 71 113 l 71 626 l 210 626 l 210 485 q 299 471 251 471 q 365 491 346 471 q 383 549 383 511 l 383 717 z "},"ऱ":{"ha":599,"x_min":-49,"x_max":642,"o":"m 390 717 q 378 799 390 761 l -44 799 l -44 917 l 642 917 l 642 799 l 519 799 q 529 717 529 771 l 529 547 q 321 347 529 347 q 217 363 267 347 l 217 222 q 358 119 217 119 q 538 150 451 119 l 538 19 q 335 -7 456 -7 q 146 53 214 -7 q 78 218 78 113 l 78 626 l 217 626 l 217 485 q 306 471 258 471 q 372 491 353 471 q 390 549 390 511 l 390 717 m 29 -186 q -49 -107 -49 -186 q 29 -28 -49 -28 q 110 -107 110 -28 q 29 -186 110 -186 z "},"ल":{"ha":882,"x_min":-44,"x_max":926,"o":"m 60 232 l 60 474 q 115 622 60 569 q 279 675 171 675 q 428 606 388 675 q 576 675 478 675 q 663 661 632 675 l 663 799 l -44 799 l -44 917 l 926 917 l 926 799 l 801 799 l 801 0 l 663 0 l 663 533 q 588 547 635 547 q 500 471 500 547 l 500 290 l 361 290 l 361 471 q 281 547 361 547 q 217 527 233 547 q 200 469 200 507 l 200 236 q 225 156 200 183 q 309 128 250 128 q 401 132 368 128 l 401 6 q 314 0 357 0 q 121 58 182 0 q 60 232 60 117 z "},"ळ":{"ha":844,"x_min":-44,"x_max":888,"o":"m 490 479 l 490 197 q 508 136 490 157 q 575 115 526 115 q 640 136 624 115 q 657 197 657 157 l 657 479 q 640 540 657 518 q 574 561 622 561 q 508 540 526 561 q 490 479 490 518 m 192 479 l 192 197 q 208 136 192 157 q 274 115 225 115 q 340 136 322 115 q 358 197 358 157 l 358 479 q 340 540 358 518 q 274 561 322 561 q 209 540 226 561 q 192 479 192 518 m 783 481 l 783 194 q 579 -7 783 -7 q 425 61 472 -7 q 269 -7 378 -7 q 60 194 60 -7 l 60 483 q 271 682 60 682 q 425 614 378 682 q 510 669 454 658 l 510 799 l -44 799 l -44 917 l 888 917 l 888 799 l 649 799 l 649 674 q 783 481 783 644 z "},"ऴ":{"ha":844,"x_min":-44,"x_max":888,"o":"m 504 -159 q 504 -199 504 -159 q 425 -239 504 -239 q 346 -159 346 -239 q 425 -79 346 -79 q 504 -159 504 -79 m 490 479 l 490 197 q 508 136 490 157 q 575 115 526 115 q 640 136 624 115 q 657 197 657 157 l 657 479 q 640 540 657 518 q 574 561 622 561 q 508 540 526 561 q 490 479 490 518 m 192 479 l 192 197 q 208 136 192 157 q 274 115 225 115 q 340 136 322 115 q 358 197 358 157 l 358 479 q 340 540 358 518 q 274 561 322 561 q 209 540 226 561 q 192 479 192 518 m 783 481 l 783 194 q 579 -7 783 -7 q 425 61 472 -7 q 269 -7 378 -7 q 60 194 60 -7 l 60 483 q 271 682 60 682 q 425 614 378 682 q 510 669 454 658 l 510 799 l -44 799 l -44 917 l 888 917 l 888 799 l 649 799 l 649 674 q 783 481 783 644 z "},"व":{"ha":606,"x_min":-44,"x_max":649,"o":"m 294 583 q 193 500 193 583 l 193 289 q 296 204 193 204 q 392 218 357 204 l 392 571 q 294 583 338 583 m 386 799 l -44 799 l -44 917 l 649 917 l 649 799 l 525 799 l 525 0 l 386 0 l 386 99 q 275 85 326 85 q 57 286 57 85 l 57 501 q 275 703 57 703 q 386 689 326 703 l 386 799 z "},"श":{"ha":858,"x_min":74,"x_max":903,"o":"m 525 721 l 525 535 q 313 338 525 338 q 213 353 254 338 l 213 236 q 349 125 213 125 q 513 156 428 125 l 513 26 q 319 -1 433 -1 q 140 63 206 -1 q 74 232 74 126 l 74 560 l 213 560 l 213 475 q 299 461 250 461 q 367 481 349 461 q 386 539 386 501 l 386 717 q 367 774 386 754 q 299 794 349 794 q 213 714 213 794 q 217 663 213 692 l 78 663 q 74 721 74 696 q 130 871 74 818 q 299 924 186 924 q 469 871 413 924 q 525 721 525 818 m 639 917 l 903 917 l 903 799 l 778 799 l 778 0 l 639 0 l 639 917 z "},"ष":{"ha":628,"x_min":-46,"x_max":671,"o":"m -46 917 l 671 917 l 671 799 l 547 799 l 547 0 l 410 0 l 410 176 q 282 158 346 158 q 61 357 61 158 l 61 799 l -46 799 l -46 917 m 410 799 l 200 799 l 200 696 l 410 506 l 410 799 m 200 361 q 303 283 200 283 q 410 301 350 283 l 410 397 l 200 586 l 200 361 z "},"स":{"ha":861,"x_min":-44,"x_max":906,"o":"m 361 717 q 349 799 361 768 l -44 799 l -44 917 l 906 917 l 906 799 l 781 799 l 781 0 l 642 0 l 642 383 l 449 383 q 290 331 399 331 q 206 340 250 331 l 206 222 q 349 119 206 119 q 518 150 432 119 l 518 19 q 319 -7 436 -7 q 135 53 203 -7 q 67 218 67 113 l 67 626 l 206 626 l 206 464 q 281 454 239 454 q 361 533 361 454 l 361 717 m 642 504 l 642 799 l 488 799 q 497 717 497 771 l 497 531 q 496 504 497 513 l 642 504 z "},"ह":{"ha":601,"x_min":-44,"x_max":644,"o":"m 60 200 l 60 251 q 128 385 60 346 q 61 508 63 418 l 61 531 q 114 662 61 621 q 278 703 167 703 l 372 703 l 372 799 l -44 799 l -44 917 l 644 917 l 644 799 l 511 799 l 511 582 l 278 582 q 217 567 235 582 q 200 521 200 553 l 200 507 q 218 460 200 475 q 279 446 236 446 l 363 446 q 503 402 460 446 q 546 269 546 358 l 546 226 l 421 226 l 421 260 q 406 313 421 297 q 347 329 392 329 l 289 329 q 200 256 200 329 l 200 207 q 343 114 200 114 q 525 139 444 114 l 525 17 q 324 -8 444 -8 q 131 46 203 -8 q 60 200 60 100 z "},"़":{"ha":0,"x_min":-362,"x_max":-204,"o":"m -204 -148 q -204 -188 -204 -148 q -283 -228 -204 -228 q -362 -148 -362 -228 q -283 -68 -362 -68 q -204 -148 -204 -68 z "},"ऽ":{"ha":585,"x_min":54,"x_max":540,"o":"m 540 271 l 540 210 q 307 -7 540 -7 l 290 -7 q 56 210 56 -7 l 56 294 l 194 294 l 194 206 q 216 144 194 167 q 294 122 238 122 l 301 122 q 380 144 358 122 q 401 206 401 167 l 401 274 q 389 336 401 313 q 342 382 376 360 l 161 496 q 54 685 54 561 l 54 722 q 104 868 54 819 q 269 917 154 917 l 507 917 l 507 788 l 279 788 q 210 769 226 788 q 193 715 193 751 l 193 690 q 254 588 193 625 l 432 475 q 518 389 496 435 q 540 271 540 343 z "},"ा":{"ha":300,"x_min":-44,"x_max":344,"o":"m 81 799 l -44 799 l -44 917 l 344 917 l 344 799 l 219 799 l 219 0 l 81 0 l 81 799 z "},"ि":{"ha":300,"x_min":-44,"x_max":797,"o":"m 83 917 l 83 956 q 417 1236 83 1236 q 609 1218 514 1236 q 750 1183 704 1200 l 797 1165 l 797 1042 q 426 1108 615 1108 q 269 1072 315 1108 q 222 954 222 1036 l 222 917 l 344 917 l 344 799 l 219 799 l 219 0 l 81 0 l 81 799 l -44 799 l -44 917 l 83 917 z "},"ी":{"ha":300,"x_min":-214,"x_max":344,"o":"m 81 917 l 81 1040 q 63 1095 81 1078 q 2 1113 44 1113 q -58 1095 -40 1113 q -76 1040 -76 1078 l -76 999 l -214 999 l -214 1043 q 3 1239 -214 1239 q 219 1043 219 1239 l 219 917 l 344 917 l 344 799 l 219 799 l 219 0 l 81 0 l 81 799 l -44 799 l -44 917 l 81 917 z "},"ु":{"ha":0,"x_min":-599,"x_max":36,"o":"m -246 -221 l -162 -221 q -103 -206 -118 -221 q -87 -158 -87 -192 q -104 -108 -87 -124 q -158 -93 -121 -93 q -287 -108 -233 -93 l -287 3 q -145 18 -235 18 q -10 -23 -56 18 q 36 -156 36 -64 q -5 -289 36 -247 q -139 -331 -46 -331 l -260 -331 q -369 -310 -322 -331 q -465 -231 -417 -290 l -599 -74 l -437 -74 l -362 -158 q -306 -209 -328 -197 q -246 -221 -283 -221 z "},"ू":{"ha":0,"x_min":-364,"x_max":263,"o":"m -62 -214 l -62 -326 q -82 -331 -64 -326 q -174 -339 -129 -339 q -317 -297 -269 -339 q -364 -165 -364 -256 q -323 -32 -364 -74 q -187 10 -282 10 l -124 10 q -1 -15 -50 10 q 96 -101 49 -39 l 263 -318 l 108 -318 l -4 -175 q -66 -115 -42 -129 q -137 -100 -90 -100 l -165 -100 q -224 -115 -208 -100 q -239 -163 -239 -129 q -223 -212 -239 -197 q -174 -228 -207 -228 q -119 -225 -142 -228 q -81 -218 -97 -222 q -62 -214 -64 -214 z "},"ृ":{"ha":0,"x_min":-431,"x_max":-79,"o":"m -82 -115 q -198 -103 -144 -103 q -273 -118 -251 -103 q -294 -181 -294 -133 q -272 -246 -294 -229 q -214 -262 -250 -262 q -79 -250 -161 -262 l -79 -376 q -208 -389 -137 -389 q -431 -181 -431 -389 q -208 24 -431 24 q -82 11 -150 24 l -82 -115 z "},"ॄ":{"ha":0,"x_min":-429,"x_max":-74,"o":"m -289 -410 l -289 -415 q -270 -464 -289 -451 q -188 -476 -251 -476 q -74 -468 -125 -476 l -74 -593 q -215 -603 -131 -603 q -428 -411 -428 -603 q -386 -287 -428 -331 q -429 -156 -429 -244 q -217 24 -429 24 q -83 14 -176 24 l -83 -106 q -212 -96 -174 -96 q -271 -110 -251 -96 q -290 -162 -290 -125 l -290 -167 q -272 -217 -289 -206 q -217 -228 -254 -228 l -115 -228 l -115 -343 l -211 -343 q -271 -358 -253 -343 q -289 -410 -289 -372 z "},"ॅ":{"ha":0,"x_min":-406,"x_max":104,"o":"m -32 1207 l 104 1207 l 104 1203 q 41 1053 104 1100 q -150 1006 -22 1006 q -342 1053 -278 1006 q -406 1203 -406 1100 l -406 1207 l -268 1207 q -241 1143 -268 1161 q -150 1125 -214 1125 q -59 1143 -86 1125 q -32 1207 -32 1161 z "},"ॆ":{"ha":0,"x_min":-581,"x_max":-81,"o":"m -217 917 q -241 994 -217 968 q -333 1019 -265 1019 q -522 1069 -464 1019 q -581 1235 -581 1118 l -443 1235 q -419 1158 -443 1183 q -326 1133 -394 1133 q -139 1081 -197 1133 q -81 917 -81 1029 l -217 917 z "},"े":{"ha":0,"x_min":-456,"x_max":-81,"o":"m -403 1235 q -300 1212 -342 1235 q -219 1129 -258 1189 l -81 917 l -222 917 l -321 1061 q -419 1118 -358 1118 q -456 1115 -431 1118 l -456 1232 q -403 1235 -422 1235 z "},"ै":{"ha":0,"x_min":-610,"x_max":-81,"o":"m -289 1235 q -142 1115 -179 1235 l -81 917 l -201 917 l -247 1056 q -271 1103 -258 1089 q -303 1117 -283 1117 q -332 1115 -324 1117 l -332 1232 q -289 1235 -304 1235 m -558 1235 q -461 1208 -501 1235 q -376 1121 -421 1182 l -235 917 l -372 917 l -475 1061 q -574 1118 -518 1118 q -610 1115 -587 1118 l -610 1232 q -558 1235 -579 1235 z "},"ॉ":{"ha":300,"x_min":-100,"x_max":410,"o":"m 272 1207 l 410 1207 l 410 1203 q 346 1051 410 1099 q 154 1004 282 1004 q -100 1203 -100 1004 l -100 1207 l 36 1207 q 63 1143 36 1161 q 153 1125 90 1125 q 244 1144 217 1125 q 272 1207 272 1163 m 81 799 l -44 799 l -44 917 l 344 917 l 344 799 l 219 799 l 219 0 l 81 0 l 81 799 z "},"ॊ":{"ha":300,"x_min":-281,"x_max":344,"o":"m 81 799 l -44 799 l -44 917 l 81 917 q 56 994 81 968 q -35 1019 32 1019 q -222 1069 -164 1019 q -281 1235 -281 1118 l -144 1235 q -120 1158 -144 1183 q -28 1133 -96 1133 q 160 1081 101 1133 q 218 917 218 1029 l 344 917 l 344 799 l 219 799 l 219 0 l 81 0 l 81 799 z "},"ो":{"ha":300,"x_min":-156,"x_max":344,"o":"m 344 917 l 344 799 l 219 799 l 219 0 l 81 0 l 81 799 l -44 799 l -44 917 l 76 917 l -21 1061 q -119 1118 -60 1118 q -156 1115 -133 1118 l -156 1232 q -104 1235 -125 1235 q -1 1212 -43 1235 q 79 1129 40 1189 l 219 917 l 344 917 z "},"ौ":{"ha":300,"x_min":-317,"x_max":344,"o":"m 344 917 l 344 799 l 219 799 l 219 0 l 81 0 l 81 799 l -139 799 l -139 917 l -78 917 l -181 1061 q -281 1118 -224 1118 q -317 1115 -292 1118 l -317 1232 q -264 1235 -283 1235 q -167 1208 -207 1235 q -83 1121 -128 1182 l 60 917 l 93 917 l 47 1056 q 24 1103 36 1089 q -9 1117 11 1117 q -37 1115 -29 1117 l -37 1232 q 6 1235 -10 1235 q 153 1115 115 1235 l 214 917 l 344 917 z "},"्":{"ha":0,"x_min":-210,"x_max":79,"o":"m 79 -303 l -68 -303 l -210 -81 l -83 -81 l 79 -303 z "},"ॐ":{"ha":1108,"x_min":63,"x_max":1039,"o":"m 599 385 l 599 721 q 819 924 599 924 q 1039 722 1039 924 l 1039 232 q 973 53 1039 113 q 764 -7 907 -7 q 638 6 693 -7 l 638 133 q 772 122 699 122 q 874 150 844 122 q 904 240 904 178 l 904 717 q 886 774 904 754 q 819 794 868 794 q 753 774 771 794 q 735 717 735 754 l 735 326 q 722 279 735 293 q 675 265 710 265 l 467 265 l 467 204 q 213 -7 467 -7 q 63 13 124 -7 l 63 140 q 207 119 139 119 q 302 142 275 119 q 331 210 329 165 l 331 310 q 310 376 331 353 q 235 399 289 399 l 151 399 l 151 528 l 235 528 q 310 549 289 528 q 331 614 331 571 l 331 707 q 213 796 331 796 q 79 775 144 796 l 79 904 q 214 924 138 924 q 467 713 467 924 l 467 614 q 401 464 467 499 q 458 385 443 442 l 599 385 m 788 1153 l 788 1149 q 724 998 788 1046 q 532 950 660 950 q 340 998 404 950 q 276 1149 276 1046 l 276 1153 l 414 1153 q 441 1089 414 1107 q 531 1071 468 1071 q 622 1090 594 1071 q 650 1153 650 1108 l 788 1153 m 608 1228 q 608 1191 608 1228 q 533 1153 608 1153 q 457 1228 457 1153 q 533 1304 457 1304 q 608 1228 608 1304 z "},"॑":{"ha":0,"x_min":-219,"x_max":-81,"o":"m -219 1326 l -81 1326 l -81 983 l -219 983 l -219 1326 z "},"॒":{"ha":0,"x_min":-626,"x_max":-49,"o":"m -49 -229 l -626 -229 l -626 -111 l -49 -111 l -49 -229 z "},"॓":{"ha":468,"x_min":64,"x_max":374,"o":"m 64 1326 l 211 1326 l 374 983 l 226 983 l 64 1326 z "},"॔":{"ha":461,"x_min":64,"x_max":374,"o":"m 226 1326 l 374 1326 l 211 983 l 64 983 l 226 1326 z "},"क़":{"ha":842,"x_min":-42,"x_max":888,"o":"m 173 -126 q 133 -126 173 -126 q 93 -47 93 -126 q 173 33 93 33 q 253 -47 253 33 q 173 -126 253 -126 m 303 578 l 276 579 q 208 559 228 579 q 189 501 189 539 l 189 278 q 276 201 189 201 q 357 213 307 201 l 357 799 l -42 799 l -42 917 l 888 917 l 888 799 l 492 799 l 492 690 q 583 701 525 701 q 789 507 789 701 l 789 286 q 599 93 789 93 l 568 94 l 568 225 q 600 224 572 224 q 656 297 656 224 l 656 503 q 636 560 656 540 q 572 581 617 581 q 492 571 528 581 l 492 0 l 356 0 l 356 96 q 261 83 306 83 q 56 274 56 83 l 56 506 q 261 701 56 701 l 303 697 l 303 578 z "},"ख़":{"ha":1058,"x_min":-44,"x_max":1101,"o":"m 351 717 q 336 799 351 768 l -44 799 l -44 917 l 1101 917 l 1101 799 l 978 799 l 978 0 l 842 0 l 842 168 q 750 158 806 158 q 593 206 640 158 q 546 353 546 254 l 546 494 q 590 644 546 594 q 744 693 635 693 q 842 683 803 693 l 842 799 l 469 799 q 482 717 482 771 l 482 549 q 272 338 482 338 q 193 346 228 338 l 193 257 q 376 121 193 121 q 556 149 476 121 l 556 18 q 367 -7 474 -7 q 139 61 218 -7 q 60 256 60 129 l 60 619 l 193 619 l 193 467 q 275 461 238 461 q 351 550 351 461 l 351 717 m 842 561 q 756 572 801 572 q 692 553 711 572 q 674 496 674 533 l 674 353 q 692 296 674 315 q 760 276 711 276 q 842 286 808 276 l 842 561 m 58 -14 q 139 -94 139 -14 q 58 -174 139 -174 q -19 -94 -19 -174 q 58 -14 -19 -14 z "},"ग़":{"ha":682,"x_min":-37,"x_max":725,"o":"m 725 917 l 725 799 l 601 799 l 601 0 l 463 0 l 463 799 l 301 799 l 301 454 q 249 304 301 357 q 97 251 196 251 q 35 256 47 251 l 35 388 q 78 385 68 385 q 163 464 163 385 l 163 799 l -37 799 l -37 917 l 725 917 m 81 67 q 81 107 81 67 q 160 147 81 147 q 239 67 239 147 q 160 -12 239 -12 q 81 67 81 -12 z "},"ज़":{"ha":793,"x_min":-44,"x_max":836,"o":"m 289 467 q 276 547 289 517 l 131 547 l 131 675 l 574 675 l 574 799 l -44 799 l -44 917 l 836 917 l 836 799 l 713 799 l 713 0 l 574 0 l 574 556 l 417 556 q 429 474 429 526 l 429 276 q 366 117 429 171 q 185 63 303 63 q 60 78 118 63 l 60 204 q 181 189 121 189 q 289 281 289 189 l 289 467 m 70 -157 q 30 -157 70 -157 q -10 -77 -10 -157 q 70 3 -10 3 q 150 -77 150 3 q 70 -157 150 -157 z "},"ड़":{"ha":583,"x_min":-44,"x_max":626,"o":"m 533 224 l 533 193 q 269 -11 533 -11 q 75 10 169 -11 l 75 139 q 255 115 178 115 q 363 133 332 115 q 394 196 394 151 l 394 219 q 376 274 394 256 q 308 293 358 293 l 278 293 q 60 474 60 293 l 60 519 q 113 656 60 613 q 278 700 167 700 l 354 700 l 354 799 l -44 799 l -44 917 l 626 917 l 626 799 l 493 799 l 493 579 l 278 579 q 200 513 200 579 l 200 481 q 217 428 200 446 q 278 411 233 411 l 308 411 q 478 365 424 411 q 533 224 533 319 m 299 -257 q 259 -257 299 -257 q 219 -177 219 -257 q 299 -97 219 -97 q 379 -177 379 -97 q 299 -257 379 -257 z "},"ढ़":{"ha":583,"x_min":-44,"x_max":626,"o":"m 379 -177 q 379 -217 379 -177 q 300 -257 379 -257 q 221 -177 221 -257 q 300 -97 221 -97 q 379 -177 379 -97 m 331 313 q 281 301 303 313 l 281 425 q 347 436 307 436 q 531 246 531 436 l 531 201 q 297 -7 531 -7 q 63 206 63 -7 l 63 500 q 116 649 63 601 q 285 696 169 696 l 356 696 l 356 799 l -44 799 l -44 917 l 626 917 l 626 799 l 492 799 l 492 569 l 285 569 q 218 551 236 569 q 200 496 200 532 l 200 210 q 221 143 200 165 q 299 121 242 121 q 376 143 356 121 q 397 208 397 165 l 397 242 q 331 313 397 313 z "},"फ़":{"ha":872,"x_min":-44,"x_max":915,"o":"m 379 799 l 213 799 l 213 356 q 307 276 213 276 q 379 286 347 276 l 379 799 m 594 567 q 518 556 557 567 l 518 0 l 379 0 l 379 164 q 288 153 335 153 q 74 350 74 153 l 74 799 l -44 799 l -44 917 l 915 917 l 915 799 l 518 799 l 518 682 q 610 696 558 696 q 818 496 818 696 l 818 279 q 619 86 818 86 q 596 88 600 86 l 596 215 q 662 233 644 215 q 679 290 679 250 l 679 492 q 594 567 679 567 m 122 -89 q 82 -89 122 -89 q 42 -9 42 -89 q 122 71 42 71 q 201 -9 201 71 q 122 -89 201 -89 z "},"य़":{"ha":718,"x_min":-44,"x_max":761,"o":"m 235 717 q 225 799 235 769 l -44 799 l -44 917 l 761 917 l 761 799 l 638 799 l 638 0 l 497 0 l 497 133 q 363 119 446 119 q 147 180 228 119 q 65 365 65 240 l 65 542 l 97 542 q 206 560 176 542 q 235 636 235 579 l 235 717 m 371 717 l 371 613 q 203 446 371 450 l 203 381 q 368 249 203 249 q 497 261 438 249 l 497 799 l 361 799 q 371 717 371 768 m 102 -76 q 63 -76 102 -76 q 24 3 24 -76 q 102 82 24 82 q 181 3 181 82 q 102 -76 181 -76 z "},"ॠ":{"ha":1008,"x_min":-44,"x_max":1051,"o":"m 1051 799 l 569 799 l 569 596 q 699 590 624 590 q 797 611 774 590 q 821 676 821 632 l 821 692 l 956 692 l 956 292 l 879 292 q 821 273 838 292 q 804 213 804 254 q 888 136 804 136 l 932 136 l 932 19 l 878 19 q 822 6 840 19 q 804 -53 804 -8 q 824 -112 804 -99 q 905 -126 844 -126 q 994 -121 965 -126 l 994 -240 q 881 -246 960 -246 q 667 -68 667 -246 q 718 74 667 26 q 669 207 669 118 q 826 383 669 375 l 826 492 q 727 461 788 461 q 569 468 667 461 l 569 0 l 438 0 l 438 104 q 446 300 438 242 l 444 301 q 347 174 424 256 l 219 35 l 43 35 l 44 39 l 431 447 l 431 497 q 399 543 431 525 q 303 561 367 561 q 210 536 239 561 q 182 460 182 511 l 182 375 l 49 375 l 49 467 q 293 690 49 690 q 431 660 406 690 l 431 799 l -44 799 l -44 917 l 1051 917 l 1051 799 z "},"ॡ":{"ha":882,"x_min":-44,"x_max":926,"o":"m 801 224 l 686 224 q 626 209 644 224 q 608 155 608 194 q 626 103 608 115 q 682 92 643 92 l 768 92 l 768 -29 l 686 -29 q 627 -44 644 -29 q 610 -99 610 -60 q 628 -149 610 -137 q 713 -161 646 -161 q 811 -157 779 -161 l 811 -282 q 683 -287 778 -287 q 471 -97 471 -287 q 515 29 471 -14 q 469 160 469 72 q 663 343 469 335 l 663 496 q 581 547 663 547 q 500 471 500 547 l 500 367 l 361 367 l 361 471 q 281 547 361 547 q 217 527 233 547 q 200 469 200 507 l 200 236 q 225 156 200 183 q 321 128 250 128 l 356 128 l 356 0 l 314 0 q 121 58 182 0 q 60 232 60 117 l 60 474 q 115 622 60 569 q 279 675 171 675 q 428 606 388 675 q 574 675 478 675 q 663 654 644 675 l 663 799 l -44 799 l -44 917 l 926 917 l 926 799 l 801 799 l 801 224 z "},"।":{"ha":419,"x_min":200,"x_max":339,"o":"m 200 0 l 200 917 l 339 917 l 339 0 l 200 0 z "},"॥":{"ha":617,"x_min":110,"x_max":536,"o":"m 397 0 l 397 917 l 536 917 l 536 0 l 397 0 m 110 0 l 110 917 l 249 917 l 249 0 l 110 0 z "},"०":{"ha":635,"x_min":67,"x_max":568,"o":"m 418 722 q 317 825 418 825 q 239 799 261 825 q 217 722 217 774 l 217 225 q 239 147 217 174 q 317 121 261 121 q 395 147 372 121 q 418 225 418 174 l 418 722 m 67 728 q 128 898 67 835 q 317 961 189 961 q 506 898 444 961 q 568 728 568 835 l 568 219 q 506 49 568 111 q 317 -14 444 -14 q 128 49 189 -14 q 67 219 67 111 l 67 728 z "},"१":{"ha":414,"x_min":18,"x_max":333,"o":"m 333 947 l 333 0 l 182 0 l 182 775 l 18 654 l 18 821 l 189 947 l 333 947 z "},"२":{"ha":583,"x_min":54,"x_max":526,"o":"m 254 954 q 526 740 526 954 l 526 658 q 421 447 525 519 l 304 357 q 225 283 243 311 q 207 199 207 254 l 207 135 l 522 135 l 522 0 l 54 0 l 54 213 q 88 347 54 296 q 188 447 121 399 l 311 544 q 362 599 349 571 q 375 679 375 628 l 375 725 q 349 792 375 769 q 239 815 324 815 q 72 782 154 815 l 72 926 q 254 954 146 954 z "},"३":{"ha":564,"x_min":35,"x_max":497,"o":"m 56 935 q 235 954 111 954 q 426 898 358 954 q 493 739 493 842 l 493 643 q 396 481 493 513 q 497 328 497 457 l 497 208 q 429 49 497 106 q 233 -8 361 -8 q 35 19 106 -8 l 35 164 q 203 129 117 129 q 319 153 290 129 q 347 222 347 176 l 347 310 q 324 383 347 360 q 244 406 300 406 l 143 406 l 143 544 l 243 544 q 320 570 297 544 q 343 647 343 596 l 343 725 q 315 793 343 769 q 203 817 288 817 q 56 793 118 817 l 56 935 z "},"४":{"ha":600,"x_min":14,"x_max":593,"o":"m 593 301 l 593 169 l 501 169 l 501 0 l 358 0 l 358 169 l 14 169 l 14 307 l 296 947 l 501 947 l 501 301 l 593 301 m 363 301 l 363 800 l 146 301 l 363 301 z "},"५":{"ha":596,"x_min":68,"x_max":536,"o":"m 75 947 l 510 947 l 510 807 l 224 807 l 224 575 q 319 579 274 579 q 481 525 426 579 q 536 369 536 471 l 536 208 q 469 49 536 106 q 263 -8 401 -8 q 68 22 165 -8 l 68 165 q 257 129 174 129 q 386 222 386 129 l 386 350 q 363 422 386 400 q 295 444 340 444 q 75 429 250 444 l 75 947 z "},"६":{"ha":622,"x_min":67,"x_max":568,"o":"m 418 385 q 322 476 418 476 q 217 454 254 476 l 217 222 q 239 145 217 172 q 317 118 261 118 q 395 144 372 118 q 418 222 418 171 l 418 385 m 67 715 q 133 888 67 822 q 328 954 200 954 q 528 926 457 954 l 528 785 q 346 815 450 815 q 217 701 217 815 l 217 585 q 360 607 265 607 q 511 552 454 607 q 568 397 568 497 l 568 219 q 506 49 568 111 q 317 -14 444 -14 q 128 49 189 -14 q 67 219 67 111 l 67 715 z "},"७":{"ha":494,"x_min":7,"x_max":467,"o":"m 7 947 l 467 947 l 467 826 l 361 501 q 300 140 300 314 l 300 0 l 147 0 l 147 151 q 211 522 147 331 l 301 808 l 7 808 l 7 947 z "},"८":{"ha":646,"x_min":67,"x_max":579,"o":"m 578 733 l 578 639 q 497 472 578 521 q 579 306 579 424 l 579 214 q 515 47 579 108 q 322 -14 451 -14 q 130 47 193 -14 q 67 214 67 107 l 67 306 q 149 472 67 424 q 68 639 68 521 l 68 733 q 131 900 68 839 q 323 961 194 961 q 515 900 451 961 q 578 733 578 839 m 217 731 l 217 635 q 323 531 217 531 q 429 635 429 531 l 429 731 q 322 831 429 831 q 241 806 265 831 q 217 731 217 781 m 431 215 l 431 308 q 322 413 431 413 q 214 308 214 413 l 214 215 q 322 117 214 117 q 431 215 431 117 z "},"९":{"ha":622,"x_min":53,"x_max":556,"o":"m 406 725 q 306 828 406 828 q 226 801 249 828 q 203 725 203 775 l 203 556 q 300 458 203 458 q 406 482 369 458 l 406 725 m 53 728 q 115 898 53 835 q 305 961 178 961 q 494 898 432 961 q 556 728 556 835 l 556 215 q 486 53 556 113 q 289 -7 417 -7 q 85 21 161 -7 l 85 164 q 275 131 169 131 q 406 229 406 131 l 406 351 q 261 328 358 328 q 108 384 164 328 q 53 542 53 440 l 53 728 z "},"॰":{"ha":560,"x_min":65,"x_max":497,"o":"m 208 537 q 199 523 208 537 q 189 456 189 510 q 208 376 189 401 q 281 350 228 350 q 353 376 333 350 q 374 456 374 401 q 353 537 374 510 q 281 564 333 564 q 208 537 228 564 m 65 457 q 117 619 65 560 q 281 679 169 679 q 445 619 393 679 q 497 457 497 560 q 281 236 497 236 q 65 457 65 236 z "},"ॲ":{"ha":811,"x_min":54,"x_max":917,"o":"m 781 1207 l 917 1207 l 917 1203 q 853 1053 917 1100 q 663 1006 790 1006 q 471 1053 535 1006 q 407 1203 407 1100 l 407 1207 l 544 1207 q 572 1143 544 1161 q 663 1125 599 1125 q 753 1143 726 1125 q 781 1207 781 1161 m 592 415 l 592 917 l 854 917 l 854 799 l 731 799 l 731 0 l 592 0 l 592 296 l 458 296 l 458 260 q 204 49 458 49 q 54 68 122 49 l 54 196 q 199 175 131 175 q 294 198 267 175 q 322 265 321 221 l 322 344 q 301 410 322 388 q 226 433 281 433 l 143 433 l 143 563 l 226 563 q 301 584 281 563 q 322 649 322 606 l 322 707 q 204 796 322 796 q 71 775 136 796 l 71 904 q 206 924 129 924 q 458 713 458 924 l 458 649 q 393 499 458 533 q 450 415 436 476 l 592 415 z "},"ॽ":{"ha":621,"x_min":75,"x_max":554,"o":"m 75 615 l 75 750 q 133 907 75 850 q 315 964 192 964 q 496 907 438 964 q 554 750 554 850 l 554 479 q 510 326 554 379 q 360 267 465 274 l 360 0 l 228 0 l 228 390 l 315 390 q 395 417 375 392 q 415 488 415 442 l 415 746 q 394 811 415 788 q 315 835 372 835 q 214 746 214 835 l 214 615 l 75 615 z "},"​":{"ha":0,"x_min":0,"x_max":0,"o":""},"‌":{"ha":0,"x_min":-32,"x_max":33,"o":"m 33 -319 l -32 -319 l -32 1126 l 33 1126 l 33 -319 z "},"‍":{"ha":0,"x_min":-176,"x_max":179,"o":"m 33 -319 l -32 -319 l -32 882 l -128 781 l -174 826 l -44 956 l -176 1088 l -131 1133 l 1 1001 l 135 1133 l 179 1089 l 46 956 l 179 824 l 133 778 l 33 882 l 33 -319 z "},"–":{"ha":704,"x_min":57,"x_max":632,"o":"m 57 519 l 632 519 l 632 392 l 57 392 l 57 519 z "},"—":{"ha":1032,"x_min":57,"x_max":963,"o":"m 57 519 l 963 519 l 963 392 l 57 392 l 57 519 z "},"‘":{"ha":251,"x_min":38,"x_max":214,"o":"m 103 694 q 38 756 38 694 q 143 1004 38 838 l 214 1004 l 156 694 l 103 694 z "},"’":{"ha":251,"x_min":38,"x_max":214,"o":"m 149 1004 q 214 942 214 1004 q 108 694 214 864 l 38 694 l 94 1004 l 149 1004 z "},"‚":{"ha":251,"x_min":38,"x_max":214,"o":"m 149 157 q 214 96 214 157 q 108 -153 214 17 l 38 -153 l 94 157 l 149 157 z "},"“":{"ha":440,"x_min":38,"x_max":403,"o":"m 103 694 q 38 756 38 694 q 143 1004 38 838 l 207 1004 l 150 694 l 103 694 m 297 694 q 233 756 233 694 q 339 1004 233 838 l 403 1004 l 346 694 l 297 694 z "},"”":{"ha":440,"x_min":38,"x_max":403,"o":"m 143 1004 q 207 942 207 1004 q 172 824 207 899 q 101 694 136 749 l 38 694 l 94 1004 l 143 1004 m 338 1004 q 403 942 403 1004 q 367 824 403 899 q 297 694 332 749 l 233 694 l 290 1004 l 338 1004 z "},"„":{"ha":440,"x_min":38,"x_max":403,"o":"m 143 157 q 207 96 207 157 q 172 -24 207 51 q 101 -153 136 -99 l 38 -153 l 94 157 l 143 157 m 338 157 q 403 96 403 157 q 367 -24 403 51 q 297 -153 332 -99 l 233 -153 l 290 157 l 338 157 z "},"†":{"ha":514,"x_min":49,"x_max":469,"o":"m 190 1117 l 328 1117 q 317 906 328 1028 q 469 917 388 917 l 469 799 q 317 808 388 799 q 328 575 328 697 l 328 -42 l 190 -42 l 190 575 q 200 808 190 699 q 49 799 135 799 l 49 917 q 200 906 125 917 q 190 1117 190 1018 z "},"‡":{"ha":515,"x_min":47,"x_max":468,"o":"m 189 1117 l 326 1117 l 317 906 q 468 917 382 917 l 468 799 q 317 808 382 799 q 317 267 322 544 q 468 276 382 276 l 468 160 q 317 169 382 160 q 326 -42 326 94 l 189 -42 q 200 169 189 81 q 47 160 133 160 l 47 276 q 200 267 135 276 q 200 808 194 543 q 47 799 133 799 l 47 917 q 200 906 125 917 q 189 1117 189 1018 z "},"•":{"ha":363,"x_min":61,"x_max":299,"o":"m 180 342 q 120 342 180 342 q 61 460 61 342 q 180 579 61 579 q 299 460 299 579 q 180 342 299 342 z "},"…":{"ha":897,"x_min":64,"x_max":807,"o":"m 435 -4 q 395 -4 435 -4 q 356 76 356 -4 q 435 156 356 156 q 515 76 515 156 q 435 -4 515 -4 m 144 -4 q 104 -4 144 -4 q 64 76 64 -4 q 144 156 64 156 q 224 76 224 156 q 144 -4 224 -4 m 727 -4 q 687 -4 727 -4 q 647 76 647 -4 q 727 156 647 156 q 807 76 807 156 q 727 -4 807 -4 z "},"‰":{"ha":1288,"x_min":49,"x_max":1243,"o":"m 892 207 q 1068 424 892 424 q 1200 366 1157 424 q 1243 207 1243 308 q 1200 47 1243 106 q 1067 -11 1157 -11 q 935 47 978 -11 q 892 207 892 106 m 1000 206 q 1000 148 1000 206 q 1067 89 1000 89 q 1133 206 1133 89 q 1067 324 1133 324 q 1000 206 1000 324 m 488 207 q 663 424 488 424 q 839 206 839 424 q 664 -11 839 -11 q 531 47 574 -11 q 488 207 488 106 m 596 206 q 596 148 596 206 q 663 89 596 89 q 729 206 729 89 q 663 324 729 324 q 596 206 596 324 m 224 522 q 49 740 49 522 q 224 957 49 957 q 400 740 400 957 q 357 581 400 639 q 224 522 314 522 m 223 624 q 257 624 223 624 q 290 740 290 624 q 223 857 290 857 q 156 740 156 857 q 223 624 156 624 m 596 947 l 701 947 l 292 0 l 188 0 l 596 947 z "},"‹":{"ha":592,"x_min":128,"x_max":447,"o":"m 296 701 l 447 701 l 278 447 l 447 193 l 296 193 l 128 447 l 296 701 z "},"›":{"ha":560,"x_min":128,"x_max":447,"o":"m 128 701 l 279 701 l 447 447 l 279 193 l 128 193 l 297 447 l 128 701 z "},"⁄":{"ha":403,"x_min":-103,"x_max":507,"o":"m 406 947 l 507 947 l -1 0 l -103 0 l 406 947 z "},"⁴":{"ha":433,"x_min":25,"x_max":426,"o":"m 264 611 l 264 943 l 118 611 l 264 611 m 363 1026 l 363 611 l 426 611 l 426 522 l 363 522 l 363 400 l 264 400 l 264 522 l 25 522 l 25 615 l 208 1026 l 363 1026 z "},"€":{"ha":607,"x_min":24,"x_max":544,"o":"m 247 333 l 247 219 q 276 152 247 175 q 388 129 304 129 q 544 150 471 129 l 544 14 q 372 -7 469 -7 q 164 49 232 -7 q 96 207 96 104 l 96 333 l 24 333 l 24 436 l 96 436 l 96 522 l 24 522 l 24 624 l 96 624 l 96 739 q 165 898 96 842 q 374 954 233 954 q 540 933 465 954 l 540 794 q 385 818 467 818 q 276 795 304 818 q 247 726 247 772 l 247 624 l 426 624 l 426 522 l 247 522 l 247 436 l 426 436 l 426 333 l 247 333 z "},"₹":{"ha":658,"x_min":67,"x_max":606,"o":"m 606 917 l 606 799 l 458 799 q 493 717 493 772 l 493 693 l 606 693 l 606 589 l 493 589 l 493 567 q 438 408 493 457 q 257 360 383 360 l 222 360 l 506 0 l 342 0 l 67 358 l 67 476 l 253 476 q 336 499 314 476 q 358 571 358 521 l 358 589 l 67 589 l 67 693 l 358 693 l 358 721 q 267 799 358 799 l 67 799 l 67 917 l 606 917 z "},"ℓ":{"ha":624,"x_min":25,"x_max":574,"o":"m 25 313 l 129 376 l 129 796 q 183 967 129 906 q 347 1028 238 1028 q 515 963 456 1028 q 574 774 574 897 q 276 300 574 501 l 276 197 q 354 126 276 126 q 440 143 399 126 l 440 10 q 328 -8 404 -8 q 129 186 129 -8 l 129 213 q 25 153 32 158 l 25 313 m 276 796 l 276 483 q 425 774 425 617 q 349 889 425 889 q 276 796 276 889 z "},"™":{"ha":832,"x_min":118,"x_max":751,"o":"m 751 986 l 751 636 l 678 636 l 678 825 l 694 965 l 610 636 l 547 636 l 464 965 l 481 825 l 481 636 l 407 636 l 407 986 l 522 986 l 568 786 l 579 722 l 589 786 l 635 986 l 751 986 m 118 924 l 118 986 l 376 986 l 376 924 l 288 924 l 288 636 l 208 636 l 208 924 l 118 924 z "},"Ω":{"ha":744,"x_min":63,"x_max":685,"o":"m 111 728 q 178 897 111 833 q 374 961 244 961 q 569 897 503 961 q 635 728 635 833 l 635 243 q 594 131 635 163 l 685 131 l 685 0 l 418 0 l 418 128 q 485 226 485 140 l 485 721 q 373 824 485 824 q 261 721 261 824 l 261 226 q 328 128 261 140 l 328 0 l 63 0 l 63 131 l 151 131 q 111 243 111 163 l 111 728 z "},"℮":{"ha":942,"x_min":85,"x_max":864,"o":"m 664 649 q 485 701 601 701 q 301 642 369 701 l 301 440 l 664 440 l 664 649 m 492 -14 q 196 97 307 -14 q 85 383 85 208 q 196 671 85 557 q 483 785 307 785 q 761 683 658 785 q 864 408 864 581 q 861 361 864 381 l 301 361 l 301 131 q 494 72 378 72 q 771 215 688 72 l 843 169 q 492 -14 735 -14 z "},"∂":{"ha":629,"x_min":74,"x_max":558,"o":"m 315 514 q 218 419 218 514 l 218 217 q 316 121 218 121 q 414 215 414 121 l 414 485 q 315 514 385 514 m 558 428 l 558 213 q 497 49 558 108 q 315 -10 436 -10 q 134 49 194 -10 q 74 211 74 107 l 74 424 q 276 631 74 631 q 392 583 354 631 q 175 947 343 763 l 351 947 q 494 720 431 858 q 558 428 558 582 z "},"∆":{"ha":663,"x_min":76,"x_max":607,"o":"m 424 947 l 607 0 l 76 0 l 260 947 l 424 947 m 342 760 l 231 133 l 453 133 l 342 760 z "},"∏":{"ha":683,"x_min":81,"x_max":604,"o":"m 81 947 l 604 947 l 604 0 l 451 0 l 451 814 l 232 814 l 232 0 l 81 0 l 81 947 z "},"∑":{"ha":558,"x_min":38,"x_max":518,"o":"m 38 947 l 518 947 l 518 818 l 199 818 l 361 474 l 199 129 l 518 129 l 518 0 l 38 0 l 38 124 l 201 474 l 38 824 l 38 947 z "},"−":{"ha":647,"x_min":57,"x_max":589,"o":"m 57 519 l 589 519 l 589 392 l 57 392 l 57 519 z "},"∕":{"ha":403,"x_min":-56,"x_max":458,"o":"m 353 947 l 458 947 l 50 0 l -56 0 l 353 947 z "},"∙":{"ha":272,"x_min":49,"x_max":221,"o":"m 135 388 q 92 388 135 388 q 49 472 49 388 q 135 557 49 557 q 221 472 221 557 q 135 388 221 388 z "},"√":{"ha":625,"x_min":39,"x_max":607,"o":"m 39 357 l 39 488 l 233 488 l 311 143 l 463 947 l 607 947 l 414 0 l 207 0 l 124 357 l 39 357 z "},"∞":{"ha":940,"x_min":53,"x_max":888,"o":"m 682 692 q 888 467 888 692 q 841 301 888 360 q 679 243 794 243 q 468 372 564 243 q 259 244 374 244 q 99 302 144 244 q 53 467 53 360 q 99 633 53 574 q 259 692 146 692 q 469 563 372 692 q 682 692 567 692 m 265 368 q 403 467 332 368 q 265 567 331 567 q 200 543 215 567 q 185 467 185 519 q 200 391 185 414 q 265 368 215 368 m 674 368 q 741 390 726 368 q 756 465 756 413 q 740 542 756 518 q 674 567 724 567 q 536 468 607 567 q 674 368 608 368 z "},"∫":{"ha":393,"x_min":18,"x_max":347,"o":"m 107 944 q 170 1106 107 1053 q 347 1156 233 1160 l 347 1025 q 279 1008 300 1025 q 258 947 258 990 l 258 3 q 195 -158 258 -104 q 18 -208 132 -212 l 18 -78 q 86 -60 65 -78 q 107 0 107 -42 l 107 944 z "},"≈":{"ha":749,"x_min":47,"x_max":700,"o":"m 700 638 q 664 526 700 567 q 450 501 597 454 l 293 561 q 208 569 243 585 q 183 497 174 554 l 53 497 q 47 558 47 526 q 85 669 47 629 q 297 694 151 742 l 454 635 q 541 626 507 610 q 565 699 575 642 l 694 699 q 700 638 700 672 m 700 376 q 664 265 700 306 q 450 240 597 193 l 293 300 q 208 308 243 324 q 183 236 174 293 l 53 236 q 47 297 47 265 q 85 408 47 368 q 297 433 151 481 l 454 374 q 541 365 507 349 q 565 438 575 381 l 694 438 q 700 376 700 411 z "},"≠":{"ha":647,"x_min":56,"x_max":588,"o":"m 588 524 l 411 524 l 357 388 l 588 388 l 588 258 l 306 258 l 251 122 l 129 122 l 183 258 l 56 258 l 56 388 l 235 388 l 289 524 l 56 524 l 56 651 l 339 651 l 396 793 l 518 793 l 461 651 l 588 651 l 588 524 z "},"≤":{"ha":643,"x_min":51,"x_max":585,"o":"m 585 800 l 585 665 l 188 529 l 585 393 l 585 258 l 51 458 l 51 599 l 585 800 m 51 94 l 51 222 l 585 222 l 585 94 l 51 94 z "},"≥":{"ha":643,"x_min":57,"x_max":590,"o":"m 57 800 l 590 599 l 590 458 l 57 258 l 57 393 l 454 529 l 57 665 l 57 800 m 57 94 l 57 222 l 590 222 l 590 94 l 57 94 z "},"◊":{"ha":607,"x_min":36,"x_max":572,"o":"m 421 401 l 304 686 l 186 401 l 304 117 l 421 401 m 214 804 l 394 804 l 572 401 l 394 0 l 214 0 l 36 401 l 214 804 z "},"◌":{"ha":917,"x_min":61,"x_max":856,"o":"m 374 733 q 366 742 374 733 q 357 778 357 750 q 374 822 357 806 q 418 839 392 839 q 462 822 444 839 q 479 778 479 806 q 462 733 479 750 q 418 717 444 717 q 374 733 392 717 m 594 696 q 581 696 594 696 q 550 714 568 696 q 532 758 532 732 q 549 801 532 783 q 594 819 567 819 q 638 802 621 819 q 654 758 654 785 q 637 714 654 732 q 594 696 619 696 m 681 619 q 673 627 681 619 q 664 663 664 636 q 681 707 664 689 q 725 725 699 725 q 769 708 751 725 q 786 663 786 690 q 769 619 786 636 q 725 601 751 601 q 681 619 699 601 m 750 455 q 742 464 750 455 q 733 499 733 472 q 750 542 733 525 q 794 560 767 560 q 838 542 821 560 q 856 499 856 525 q 838 455 856 472 q 794 438 821 438 q 750 455 767 438 m 738 269 q 728 277 738 269 q 719 313 719 286 q 738 357 719 339 q 781 375 756 375 q 824 357 807 375 q 842 313 842 339 q 824 269 842 286 q 781 251 807 251 q 738 269 756 251 m 635 133 q 627 141 635 133 q 618 176 618 150 q 635 220 618 203 q 679 238 653 238 q 724 220 706 238 q 742 176 742 203 q 724 133 742 150 q 679 115 706 115 q 635 133 653 115 m 467 58 q 458 67 467 58 q 450 103 450 75 q 467 147 450 131 q 511 164 483 164 q 556 147 539 164 q 574 103 574 129 q 556 59 574 76 q 511 42 539 42 q 467 58 483 42 m 336 61 q 323 61 336 61 q 292 79 310 61 q 274 124 274 97 q 292 168 274 150 q 336 186 310 186 q 380 168 363 186 q 397 124 397 150 q 380 79 397 97 q 336 61 363 61 m 150 185 q 142 194 150 185 q 133 229 133 203 q 151 273 133 256 q 194 290 168 290 q 238 273 221 290 q 256 229 256 256 q 238 185 256 203 q 194 168 221 168 q 150 185 167 168 m 78 347 q 70 356 78 347 q 61 390 61 364 q 78 435 61 417 q 122 453 96 453 q 166 435 149 453 q 183 391 183 418 q 166 347 183 364 q 122 331 149 331 q 78 347 96 331 m 97 522 q 88 530 97 522 q 79 565 79 539 q 97 609 79 592 q 142 626 115 626 q 186 609 168 626 q 204 565 204 592 q 186 522 204 539 q 142 504 168 504 q 97 522 115 504 m 254 656 q 241 656 254 656 q 210 673 228 656 q 193 717 193 690 q 210 762 193 744 q 254 779 228 779 q 298 762 281 779 q 315 717 315 744 q 298 673 315 690 q 254 656 281 656 z "},"":{"ha":486,"x_min":178,"x_max":307,"o":"m 264 -85 q 307 -125 307 -85 q 282 -199 307 -151 q 235 -275 257 -246 l 178 -275 l 214 -85 l 264 -85 z "},"ﬁ":{"ha":668,"x_min":28,"x_max":589,"o":"m 589 804 l 589 0 l 438 0 l 438 682 l 258 682 l 258 0 l 107 0 l 107 682 l 28 682 l 28 804 l 107 804 l 107 829 q 375 1042 107 1042 q 553 1022 458 1042 l 553 901 q 399 919 481 919 q 288 899 318 919 q 258 831 258 878 l 258 804 l 589 804 z "},"ﬂ":{"ha":668,"x_min":28,"x_max":589,"o":"m 589 1018 l 589 0 l 440 0 l 440 917 q 361 921 408 921 q 257 831 257 921 l 257 804 l 364 804 l 364 682 l 258 682 l 258 0 l 107 0 l 107 682 l 28 682 l 28 804 l 107 804 l 107 829 q 365 1042 107 1042 q 536 1018 449 1042 l 589 1018 z "}}}
